<?xml version="1.0" encoding="UTF-8"?>
<svg viewBox="0 0 568.3689 533.81415" xmlns="http://www.w3.org/2000/svg" xmlns:xlink="http://www.w3.org/1999/xlink">
 <defs>
  <clipPath id="f">
   <path d="m687.73 591.66c37.25 79.4-126.68 119.45-285.51 116.33-181.91-3.5764-318.17-37.25-284.16-118.26 25.282-60.223 128.57-116.33 285.51-116.33 156.24 0 283.17 52.495 284.15 117.52"/>
  </clipPath>
  <clipPath id="c">
   <path d="m379.89 275.49c-89.078 0-163.01 8.5811-177.12 19.844 40.159 8.3538 105.64 13.812 179.66 13.812 71.511 0 135.06-5.0912 175.5-12.969-11.418-11.681-86.805-20.688-178.03-20.688z"/>
  </clipPath>
  <linearGradient id="e">
   <stop stop-color="#4e4e4e" stop-opacity=".56757" offset="0"/>
   <stop stop-color="#171717" offset="1"/>
  </linearGradient>
  <linearGradient id="i" x1="152.84" x2="600.29" gradientUnits="userSpaceOnUse">
   <stop stop-color="#ce2121" stop-opacity=".81081" offset="0"/>
   <stop stop-color="#1f0606" offset="1"/>
  </linearGradient>
  <linearGradient id="h" x1="240.33" x2="600.48" gradientUnits="userSpaceOnUse">
   <stop stop-color="#ff4500" offset="0"/>
   <stop stop-color="#6a1d00" stop-opacity="0" offset="1"/>
  </linearGradient>
  <linearGradient id="b" x1="376.01" x2="436.97" gradientUnits="userSpaceOnUse">
   <stop stop-color="#b22222" stop-opacity=".08108" offset="0"/>
   <stop stop-color="#0f0303" stop-opacity="0" offset="1"/>
  </linearGradient>
  <linearGradient id="a" x1="376.01" x2="436.97" gradientUnits="userSpaceOnUse">
   <stop stop-color="#ff4500" stop-opacity=".30631" offset="0"/>
   <stop stop-color="#ff4500" offset="1"/>
  </linearGradient>
  <linearGradient id="d">
   <stop stop-color="#ebff0b" stop-opacity=".1982" offset="0"/>
   <stop stop-color="#ee841d" stop-opacity=".59459" offset="1"/>
  </linearGradient>
  <linearGradient id="k" x1="139.1" x2="701.17" gradientUnits="userSpaceOnUse" xlink:href="#e"/>
  <linearGradient id="j" x1="194.66" x2="645.62" gradientUnits="userSpaceOnUse" xlink:href="#e"/>
  <linearGradient id="l" x1="376.01" x2="436.97" gradientUnits="userSpaceOnUse" xlink:href="#d"/>
  <linearGradient id="g" x1="253.55" x2="540.7" gradientUnits="userSpaceOnUse" xlink:href="#d"/>
 </defs>
 <g transform="translate(-136.03 -230.42)">
  <g transform="translate(-2.7304 -7.1237)" stroke="#8b4513" stroke-linecap="round" stroke-linejoin="round">
   <path d="m229.63 734.02c-4.3918 1.5329-3.0512 7.0278-3.7408 10.621-0.19002 5.7169-0.66795 11.451-0.82235 17.164 5.6407 2.4804 11.982 1.5892 17.951 1.6752 3.6864-0.42776 7.4406-0.96028 11.165-0.36662 3.8661 0.37645 7.8683-0.65458 11.586 0.66703 3.2947 0.43191 4.2594-3.6254 7.8087-2.2493 1.4535-1.9575 2.7794-6.4856 4.169-9.476 0.95148-3.4964 0.56503-7.3255 2.6848-10.435 0.96175-2.4508-0.0156-5.5921 0.38569-7.5569-1.8836 0.36715-5.4637-0.63683-7.9108-0.83173-5.8045-0.94307-11.669-1.4687-17.467-2.4495-6.0897-0.40735-12.224-0.36568-18.316-0.20315-3.087 0.26691-6.0937 1.8183-8.1995 3.7325 2.6499-3.6985 7.8637-4.3162 12.124-4.1804 7.161 0.0172 14.379-0.18584 21.42 1.3636 6.1727 0.55252 12.251 1.8562 18.421 2.3913 0.81157 2.1834 0.26075 5.4358-0.13788 7.8384-2.0586 3.1276-1.7538 6.9338-2.6879 10.437-1.4054 3.1788-2.5875 6.9188-4.2047 9.6989-3.4159-1.242-4.4584 1.9628-7.4131 2.2686-3.9859-1.1028-8.1544-0.46832-12.275-0.68929-4.1929-0.69863-8.3806 0.10452-12.534 0.59585-5.5873-0.1439-11.493 0.33819-16.718-1.9943-0.5019-3.7475 0.43761-7.6472 0.38053-11.467 0.34832-4.8404 0.10545-9.8274 1.4282-14.526 0.32941-0.89016 2.2352-2.7679 2.905-2.0269z" fill="#d2691e"/>
   <path d="m232.93 731.74c2.1342-2.7904 5.368-4.5737 8.4358-6.1509 4.9282-1.5742 10.648-2.2977 14.009-6.7194 3.4491-3.3611 6.3407-7.568 11.054-9.2861 2.6624-1.3137 5.453-2.3626 8.014-3.8685 9.9968 0.33671 19.999 0.19034 30.001 0.19998 5.3724 0.76234 11.027 0.33277 16.168 2.2267-1.8691 2.8169-4.6152 5.383-7.3584 7.5183-4.2035 2.6722-8.8472 4.5733-12.968 7.4001-5.3081 3.2534-9.5475 8.212-15.552 10.339-1.3976 1.0192-4.7679 1.5283-1.4156 0.26389 5.7829-2.02 10.327-6.1654 15.081-9.8395 4.378-2.8707 9.0083-5.2906 13.62-7.7495 3.2614-1.9332 5.8197-5.2399 8.3342-7.7149-5.4919-1.7197-11.365-1.5238-17.042-2.1276-9.5868 0.0558-19.184 0.14652-28.76-0.19432-5.0568 2.975-11.64 4.3964-15.426 9.398-3.4445 3.7863-7.0582 8.024-12.397 8.9433-3.8667 0.72755-7.4484 2.3132-10.573 4.6963-1.2951 0.42342-2.2551 2.529-3.2254 2.6647z" fill="#d2691e"/>
   <path d="m275.21 761.62c4.0588-6.4414 10.73-10.451 16.305-15.418 5.777-4.241 10.131-10.394 16.89-13.274 7.0466-3.2784 8.3189-12.265 14.5-16.473-0.7105 1.4206-3.9042 3.5847-4.7494 5.7806-2.8411 4.5839-5.7062 9.7862-11.071 11.763-6.5533 3.3442-10.877 9.5769-16.883 13.683-5.0536 4.5377-11.084 8.2121-14.719 14.118l-0.27171-0.1787 4e-5 4.3e-4z" fill="#d2691e"/>
   <path d="m321.66 708.93c0.0731 2.7963 0.77128 6.2021 0.35291 8.6813-0.17567-2.7835-0.76238-6.3826-0.35291-8.6813z" fill="#d2691e"/>
   <path d="m274.47 706.61c-5.1752 2.8766-11.394 4.4142-15.175 9.2806-3.7664 4.1174-8.1085 8.2138-13.809 9.2482-2.4802 0.86478-8.2199 2.52-7.998 4.2702 8.1535 0.39109 16.396 0.25909 24.51 1.5022 6.6329 0.92167 13.249 1.9758 19.893 2.8194 8.9267-2.8362 15.048-10.55 23.426-14.456 4.9368-2.7019 10.42-5.4295 13.486-10.304-2.2508-2.2127-7.0739-1.2081-10.299-1.9351-11.327-0.74019-22.693-0.34137-34.034-0.42478z" fill="#daa520" stroke-width=".35714"/>
   <path d="m240.22 731.06c-3.9911-0.28528-8.1631 0.71601-11.042 3.6466-3.9134 3.165-2.1733 9.3615-3.0639 13.871 0.78849 4.4413-3.597 12.638 2.4289 13.945 5.8589 1.0757 11.863 0.21996 17.789 0.35946 7.063-0.0902 14.134-0.10461 21.187 0.32086 2.2918-2.9434 7.1646-0.98478 7.5764-5.5825 2.2227-4.422 2.7182-9.3671 4.0592-14.045 0.91904-2.8969 3.2398-9.0286-1.4148-9.4432-10.335-0.88066-20.551-3.459-30.986-3.0934-2.1781-7e-3 -4.3562 7e-3 -6.5343 0.0211z" fill="#daa520" stroke-width=".35714"/>
   <path d="m320.4 709.46c-4.2851 4.7523-9.4727 8.6752-15.357 11.22-6.4993 3.3611-11.653 8.8077-18.136 12.151-3.4439 1.0655-6.3198 2.6479-5.4899 6.703-1.0011 4.4409-2.4594 8.7422-3.3094 13.248-0.37349 1.6632-3.5496 7.8966-0.0268 4.4374 7.4906-7.1747 16.003-13.191 23.418-20.45 4.4563-3.4701 10.517-5.2712 13.178-10.68 2.0441-3.9301 6.2904-7.0366 6.7257-11.6-0.12074-1.4644-0.0658-4.3331-1.0013-5.0295z" fill="#daa520" stroke-width=".35714"/>
   <path d="m236.55 729.09c-3.4058 2.0618 4.1058 0.47565 1e-5 1e-5l-1e-5 -1e-5z" fill="#daa520" stroke-width=".03157"/>
   <path d="m318.79 708.19c-0.77518 2.3623 2.2041-0.0549 0 0z" fill="#daa520" stroke-width=".03157"/>
   <path d="m320.62 708.76c-1.132 1.6742 1.8433 0.18614 0 0z" fill="#daa520" stroke-width=".03157"/>
   <path d="m321.18 716.19c-1.3987 2.5255 1.781 0.32828 0 0z" fill="#daa520" stroke-width=".03157"/>
   <path d="m321.18 716.19c-1.3987 2.5255 1.781 0.32828 0 0z" fill="#daa520" stroke-width=".03157"/>
   <path d="m279.94 734.46c-0.35501 1.8495 1.7401-0.19064 0 0z" fill="#daa520" stroke-width=".03157"/>
   <path d="m275.88 758.08c-1.2402 1.3532-0.9669 4.3424 0.54782 1.4431 1.2578-0.70469 0.0987-1.3413-0.54782-1.4431z" fill="#daa520" stroke-width=".03157"/>
  </g>
  <g transform="matrix(.99452 -.01314 .38337 1.0004 -225.72 -.16488)" stroke="#8b4513" stroke-linecap="round" stroke-linejoin="round">
   <path d="m229.63 734.02c-4.3918 1.5329-3.0512 7.0278-3.7408 10.621-0.19002 5.7169-0.66795 11.451-0.82235 17.164 5.6407 2.4804 11.982 1.5892 17.951 1.6752 3.6864-0.42776 7.4406-0.96028 11.165-0.36662 3.8661 0.37645 7.8683-0.65458 11.586 0.66703 3.2947 0.43191 4.2594-3.6254 7.8087-2.2493 1.4535-1.9575 2.7794-6.4856 4.169-9.476 0.95148-3.4964 0.56503-7.3255 2.6848-10.435 0.96175-2.4508-0.0156-5.5921 0.38569-7.5569-1.8836 0.36715-5.4637-0.63683-7.9108-0.83173-5.8045-0.94307-11.669-1.4687-17.467-2.4495-6.0897-0.40735-12.224-0.36568-18.316-0.20315-3.087 0.26691-6.0937 1.8183-8.1995 3.7325 2.6499-3.6985 7.8637-4.3162 12.124-4.1804 7.161 0.0172 14.379-0.18584 21.42 1.3636 6.1727 0.55252 12.251 1.8562 18.421 2.3913 0.81157 2.1834 0.26075 5.4358-0.13788 7.8384-2.0586 3.1276-1.7538 6.9338-2.6879 10.437-1.4054 3.1788-2.5875 6.9188-4.2047 9.6989-3.4159-1.242-4.4584 1.9628-7.4131 2.2686-3.9859-1.1028-8.1544-0.46832-12.275-0.68929-4.1929-0.69863-8.3806 0.10452-12.534 0.59585-5.5873-0.1439-11.493 0.33819-16.718-1.9943-0.5019-3.7475 0.43761-7.6472 0.38053-11.467 0.34832-4.8404 0.10545-9.8274 1.4282-14.526 0.32941-0.89016 2.2352-2.7679 2.905-2.0269z" fill="#d2691e"/>
   <path d="m232.93 731.74c2.1342-2.7904 5.368-4.5737 8.4358-6.1509 4.9282-1.5742 10.648-2.2977 14.009-6.7194 3.4491-3.3611 6.3407-7.568 11.054-9.2861 2.6624-1.3137 5.453-2.3626 8.014-3.8685 9.9968 0.33671 19.999 0.19034 30.001 0.19998 5.3724 0.76234 11.027 0.33277 16.168 2.2267-1.8691 2.8169-4.6152 5.383-7.3584 7.5183-4.2035 2.6722-8.8472 4.5733-12.968 7.4001-5.3081 3.2534-9.5475 8.212-15.552 10.339-1.3976 1.0192-4.7679 1.5283-1.4156 0.26389 5.7829-2.02 10.327-6.1654 15.081-9.8395 4.378-2.8707 9.0083-5.2906 13.62-7.7495 3.2614-1.9332 5.8197-5.2399 8.3342-7.7149-5.4919-1.7197-11.365-1.5238-17.042-2.1276-9.5868 0.0558-19.184 0.14652-28.76-0.19432-5.0568 2.975-11.64 4.3964-15.426 9.398-3.4445 3.7863-7.0582 8.024-12.397 8.9433-3.8667 0.72755-7.4484 2.3132-10.573 4.6963-1.2951 0.42342-2.2551 2.529-3.2254 2.6647z" fill="#d2691e"/>
   <path d="m275.21 761.62c4.0588-6.4414 10.73-10.451 16.305-15.418 5.777-4.241 10.131-10.394 16.89-13.274 7.0466-3.2784 8.3189-12.265 14.5-16.473-0.7105 1.4206-3.9042 3.5847-4.7494 5.7806-2.8411 4.5839-5.7062 9.7862-11.071 11.763-6.5533 3.3442-10.877 9.5769-16.883 13.683-5.0536 4.5377-11.084 8.2121-14.719 14.118l-0.27171-0.1787 4e-5 4.3e-4z" fill="#d2691e"/>
   <path d="m321.66 708.93c0.0731 2.7963 0.77128 6.2021 0.35291 8.6813-0.17567-2.7835-0.76238-6.3826-0.35291-8.6813z" fill="#d2691e"/>
   <path d="m274.47 706.61c-5.1752 2.8766-11.394 4.4142-15.175 9.2806-3.7664 4.1174-8.1085 8.2138-13.809 9.2482-2.4802 0.86478-8.2199 2.52-7.998 4.2702 8.1535 0.39109 16.396 0.25909 24.51 1.5022 6.6329 0.92167 13.249 1.9758 19.893 2.8194 8.9267-2.8362 15.048-10.55 23.426-14.456 4.9368-2.7019 10.42-5.4295 13.486-10.304-2.2508-2.2127-7.0739-1.2081-10.299-1.9351-11.327-0.74019-22.693-0.34137-34.034-0.42478z" fill="#daa520" stroke-width=".35714"/>
   <path d="m240.22 731.06c-3.9911-0.28528-8.1631 0.71601-11.042 3.6466-3.9134 3.165-2.1733 9.3615-3.0639 13.871 0.78849 4.4413-3.597 12.638 2.4289 13.945 5.8589 1.0757 11.863 0.21996 17.789 0.35946 7.063-0.0902 14.134-0.10461 21.187 0.32086 2.2918-2.9434 7.1646-0.98478 7.5764-5.5825 2.2227-4.422 2.7182-9.3671 4.0592-14.045 0.91904-2.8969 3.2398-9.0286-1.4148-9.4432-10.335-0.88066-20.551-3.459-30.986-3.0934-2.1781-7e-3 -4.3562 7e-3 -6.5343 0.0211z" fill="#daa520" stroke-width=".35714"/>
   <path d="m320.4 709.46c-4.2851 4.7523-9.4727 8.6752-15.357 11.22-6.4993 3.3611-11.653 8.8077-18.136 12.151-3.4439 1.0655-6.3198 2.6479-5.4899 6.703-1.0011 4.4409-2.4594 8.7422-3.3094 13.248-0.37349 1.6632-3.5496 7.8966-0.0268 4.4374 7.4906-7.1747 16.003-13.191 23.418-20.45 4.4563-3.4701 10.517-5.2712 13.178-10.68 2.0441-3.9301 6.2904-7.0366 6.7257-11.6-0.12074-1.4644-0.0658-4.3331-1.0013-5.0295z" fill="#daa520" stroke-width=".35714"/>
   <path d="m236.55 729.09c-3.4058 2.0618 4.1058 0.47565 1e-5 1e-5l-1e-5 -1e-5z" fill="#daa520" stroke-width=".03157"/>
   <path d="m318.79 708.19c-0.77518 2.3623 2.2041-0.0549 0 0z" fill="#daa520" stroke-width=".03157"/>
   <path d="m320.62 708.76c-1.132 1.6742 1.8433 0.18614 0 0z" fill="#daa520" stroke-width=".03157"/>
   <path d="m321.18 716.19c-1.3987 2.5255 1.781 0.32828 0 0z" fill="#daa520" stroke-width=".03157"/>
   <path d="m321.18 716.19c-1.3987 2.5255 1.781 0.32828 0 0z" fill="#daa520" stroke-width=".03157"/>
   <path d="m279.94 734.46c-0.35501 1.8495 1.7401-0.19064 0 0z" fill="#daa520" stroke-width=".03157"/>
   <path d="m275.88 758.08c-1.2402 1.3532-0.9669 4.3424 0.54782 1.4431 1.2578-0.70469 0.0987-1.3413-0.54782-1.4431z" fill="#daa520" stroke-width=".03157"/>
  </g>
  <g transform="matrix(.988 -.04 .85128 .97768 -507.1 25.795)" stroke="#8b4513" stroke-linecap="round" stroke-linejoin="round">
   <path d="m229.63 734.02c-4.3918 1.5329-3.0512 7.0278-3.7408 10.621-0.19002 5.7169-0.66795 11.451-0.82235 17.164 5.6407 2.4804 11.982 1.5892 17.951 1.6752 3.6864-0.42776 7.4406-0.96028 11.165-0.36662 3.8661 0.37645 7.8683-0.65458 11.586 0.66703 3.2947 0.43191 4.2594-3.6254 7.8087-2.2493 1.4535-1.9575 2.7794-6.4856 4.169-9.476 0.95148-3.4964 0.56503-7.3255 2.6848-10.435 0.96175-2.4508-0.0156-5.5921 0.38569-7.5569-1.8836 0.36715-5.4637-0.63683-7.9108-0.83173-5.8045-0.94307-11.669-1.4687-17.467-2.4495-6.0897-0.40735-12.224-0.36568-18.316-0.20315-3.087 0.26691-6.0937 1.8183-8.1995 3.7325 2.6499-3.6985 7.8637-4.3162 12.124-4.1804 7.161 0.0172 14.379-0.18584 21.42 1.3636 6.1727 0.55252 12.251 1.8562 18.421 2.3913 0.81157 2.1834 0.26075 5.4358-0.13788 7.8384-2.0586 3.1276-1.7538 6.9338-2.6879 10.437-1.4054 3.1788-2.5875 6.9188-4.2047 9.6989-3.4159-1.242-4.4584 1.9628-7.4131 2.2686-3.9859-1.1028-8.1544-0.46832-12.275-0.68929-4.1929-0.69863-8.3806 0.10452-12.534 0.59585-5.5873-0.1439-11.493 0.33819-16.718-1.9943-0.5019-3.7475 0.43761-7.6472 0.38053-11.467 0.34832-4.8404 0.10545-9.8274 1.4282-14.526 0.32941-0.89016 2.2352-2.7679 2.905-2.0269z" fill="#d2691e"/>
   <path d="m232.93 731.74c2.1342-2.7904 5.368-4.5737 8.4358-6.1509 4.9282-1.5742 10.648-2.2977 14.009-6.7194 3.4491-3.3611 6.3407-7.568 11.054-9.2861 2.6624-1.3137 5.453-2.3626 8.014-3.8685 9.9968 0.33671 19.999 0.19034 30.001 0.19998 5.3724 0.76234 11.027 0.33277 16.168 2.2267-1.8691 2.8169-4.6152 5.383-7.3584 7.5183-4.2035 2.6722-8.8472 4.5733-12.968 7.4001-5.3081 3.2534-9.5475 8.212-15.552 10.339-1.3976 1.0192-4.7679 1.5283-1.4156 0.26389 5.7829-2.02 10.327-6.1654 15.081-9.8395 4.378-2.8707 9.0083-5.2906 13.62-7.7495 3.2614-1.9332 5.8197-5.2399 8.3342-7.7149-5.4919-1.7197-11.365-1.5238-17.042-2.1276-9.5868 0.0558-19.184 0.14652-28.76-0.19432-5.0568 2.975-11.64 4.3964-15.426 9.398-3.4445 3.7863-7.0582 8.024-12.397 8.9433-3.8667 0.72755-7.4484 2.3132-10.573 4.6963-1.2951 0.42342-2.2551 2.529-3.2254 2.6647z" fill="#d2691e"/>
   <path d="m275.21 761.62c4.0588-6.4414 10.73-10.451 16.305-15.418 5.777-4.241 10.131-10.394 16.89-13.274 7.0466-3.2784 8.3189-12.265 14.5-16.473-0.7105 1.4206-3.9042 3.5847-4.7494 5.7806-2.8411 4.5839-5.7062 9.7862-11.071 11.763-6.5533 3.3442-10.877 9.5769-16.883 13.683-5.0536 4.5377-11.084 8.2121-14.719 14.118l-0.27171-0.1787 4e-5 4.3e-4z" fill="#d2691e"/>
   <path d="m321.66 708.93c0.0731 2.7963 0.77128 6.2021 0.35291 8.6813-0.17567-2.7835-0.76238-6.3826-0.35291-8.6813z" fill="#d2691e"/>
   <path d="m274.47 706.61c-5.1752 2.8766-11.394 4.4142-15.175 9.2806-3.7664 4.1174-8.1085 8.2138-13.809 9.2482-2.4802 0.86478-8.2199 2.52-7.998 4.2702 8.1535 0.39109 16.396 0.25909 24.51 1.5022 6.6329 0.92167 13.249 1.9758 19.893 2.8194 8.9267-2.8362 15.048-10.55 23.426-14.456 4.9368-2.7019 10.42-5.4295 13.486-10.304-2.2508-2.2127-7.0739-1.2081-10.299-1.9351-11.327-0.74019-22.693-0.34137-34.034-0.42478z" fill="#daa520" stroke-width=".35714"/>
   <path d="m240.22 731.06c-3.9911-0.28528-8.1631 0.71601-11.042 3.6466-3.9134 3.165-2.1733 9.3615-3.0639 13.871 0.78849 4.4413-3.597 12.638 2.4289 13.945 5.8589 1.0757 11.863 0.21996 17.789 0.35946 7.063-0.0902 14.134-0.10461 21.187 0.32086 2.2918-2.9434 7.1646-0.98478 7.5764-5.5825 2.2227-4.422 2.7182-9.3671 4.0592-14.045 0.91904-2.8969 3.2398-9.0286-1.4148-9.4432-10.335-0.88066-20.551-3.459-30.986-3.0934-2.1781-7e-3 -4.3562 7e-3 -6.5343 0.0211z" fill="#daa520" stroke-width=".35714"/>
   <path d="m320.4 709.46c-4.2851 4.7523-9.4727 8.6752-15.357 11.22-6.4993 3.3611-11.653 8.8077-18.136 12.151-3.4439 1.0655-6.3198 2.6479-5.4899 6.703-1.0011 4.4409-2.4594 8.7422-3.3094 13.248-0.37349 1.6632-3.5496 7.8966-0.0268 4.4374 7.4906-7.1747 16.003-13.191 23.418-20.45 4.4563-3.4701 10.517-5.2712 13.178-10.68 2.0441-3.9301 6.2904-7.0366 6.7257-11.6-0.12074-1.4644-0.0658-4.3331-1.0013-5.0295z" fill="#daa520" stroke-width=".35714"/>
   <path d="m236.55 729.09c-3.4058 2.0618 4.1058 0.47565 1e-5 1e-5l-1e-5 -1e-5z" fill="#daa520" stroke-width=".03157"/>
   <path d="m318.79 708.19c-0.77518 2.3623 2.2041-0.0549 0 0z" fill="#daa520" stroke-width=".03157"/>
   <path d="m320.62 708.76c-1.132 1.6742 1.8433 0.18614 0 0z" fill="#daa520" stroke-width=".03157"/>
   <path d="m321.18 716.19c-1.3987 2.5255 1.781 0.32828 0 0z" fill="#daa520" stroke-width=".03157"/>
   <path d="m321.18 716.19c-1.3987 2.5255 1.781 0.32828 0 0z" fill="#daa520" stroke-width=".03157"/>
   <path d="m279.94 734.46c-0.35501 1.8495 1.7401-0.19064 0 0z" fill="#daa520" stroke-width=".03157"/>
   <path d="m275.88 758.08c-1.2402 1.3532-0.9669 4.3424 0.54782 1.4431 1.2578-0.70469 0.0987-1.3413-0.54782-1.4431z" fill="#daa520" stroke-width=".03157"/>
  </g>
  <g transform="matrix(-.98325 .03315 -.3225 1.0195 1059.5 -26.644)" stroke="#8b4513" stroke-linecap="round" stroke-linejoin="round">
   <path d="m229.63 734.02c-4.3918 1.5329-3.0512 7.0278-3.7408 10.621-0.19002 5.7169-0.66795 11.451-0.82235 17.164 5.6407 2.4804 11.982 1.5892 17.951 1.6752 3.6864-0.42776 7.4406-0.96028 11.165-0.36662 3.8661 0.37645 7.8683-0.65458 11.586 0.66703 3.2947 0.43191 4.2594-3.6254 7.8087-2.2493 1.4535-1.9575 2.7794-6.4856 4.169-9.476 0.95148-3.4964 0.56503-7.3255 2.6848-10.435 0.96175-2.4508-0.0156-5.5921 0.38569-7.5569-1.8836 0.36715-5.4637-0.63683-7.9108-0.83173-5.8045-0.94307-11.669-1.4687-17.467-2.4495-6.0897-0.40735-12.224-0.36568-18.316-0.20315-3.087 0.26691-6.0937 1.8183-8.1995 3.7325 2.6499-3.6985 7.8637-4.3162 12.124-4.1804 7.161 0.0172 14.379-0.18584 21.42 1.3636 6.1727 0.55252 12.251 1.8562 18.421 2.3913 0.81157 2.1834 0.26075 5.4358-0.13788 7.8384-2.0586 3.1276-1.7538 6.9338-2.6879 10.437-1.4054 3.1788-2.5875 6.9188-4.2047 9.6989-3.4159-1.242-4.4584 1.9628-7.4131 2.2686-3.9859-1.1028-8.1544-0.46832-12.275-0.68929-4.1929-0.69863-8.3806 0.10452-12.534 0.59585-5.5873-0.1439-11.493 0.33819-16.718-1.9943-0.5019-3.7475 0.43761-7.6472 0.38053-11.467 0.34832-4.8404 0.10545-9.8274 1.4282-14.526 0.32941-0.89016 2.2352-2.7679 2.905-2.0269z" fill="#d2691e"/>
   <path d="m232.93 731.74c2.1342-2.7904 5.368-4.5737 8.4358-6.1509 4.9282-1.5742 10.648-2.2977 14.009-6.7194 3.4491-3.3611 6.3407-7.568 11.054-9.2861 2.6624-1.3137 5.453-2.3626 8.014-3.8685 9.9968 0.33671 19.999 0.19034 30.001 0.19998 5.3724 0.76234 11.027 0.33277 16.168 2.2267-1.8691 2.8169-4.6152 5.383-7.3584 7.5183-4.2035 2.6722-8.8472 4.5733-12.968 7.4001-5.3081 3.2534-9.5475 8.212-15.552 10.339-1.3976 1.0192-4.7679 1.5283-1.4156 0.26389 5.7829-2.02 10.327-6.1654 15.081-9.8395 4.378-2.8707 9.0083-5.2906 13.62-7.7495 3.2614-1.9332 5.8197-5.2399 8.3342-7.7149-5.4919-1.7197-11.365-1.5238-17.042-2.1276-9.5868 0.0558-19.184 0.14652-28.76-0.19432-5.0568 2.975-11.64 4.3964-15.426 9.398-3.4445 3.7863-7.0582 8.024-12.397 8.9433-3.8667 0.72755-7.4484 2.3132-10.573 4.6963-1.2951 0.42342-2.2551 2.529-3.2254 2.6647z" fill="#d2691e"/>
   <path d="m275.21 761.62c4.0588-6.4414 10.73-10.451 16.305-15.418 5.777-4.241 10.131-10.394 16.89-13.274 7.0466-3.2784 8.3189-12.265 14.5-16.473-0.7105 1.4206-3.9042 3.5847-4.7494 5.7806-2.8411 4.5839-5.7062 9.7862-11.071 11.763-6.5533 3.3442-10.877 9.5769-16.883 13.683-5.0536 4.5377-11.084 8.2121-14.719 14.118l-0.27171-0.1787 4e-5 4.3e-4z" fill="#d2691e"/>
   <path d="m321.66 708.93c0.0731 2.7963 0.77128 6.2021 0.35291 8.6813-0.17567-2.7835-0.76238-6.3826-0.35291-8.6813z" fill="#d2691e"/>
   <path d="m274.47 706.61c-5.1752 2.8766-11.394 4.4142-15.175 9.2806-3.7664 4.1174-8.1085 8.2138-13.809 9.2482-2.4802 0.86478-8.2199 2.52-7.998 4.2702 8.1535 0.39109 16.396 0.25909 24.51 1.5022 6.6329 0.92167 13.249 1.9758 19.893 2.8194 8.9267-2.8362 15.048-10.55 23.426-14.456 4.9368-2.7019 10.42-5.4295 13.486-10.304-2.2508-2.2127-7.0739-1.2081-10.299-1.9351-11.327-0.74019-22.693-0.34137-34.034-0.42478z" fill="#daa520" stroke-width=".35714"/>
   <path d="m240.22 731.06c-3.9911-0.28528-8.1631 0.71601-11.042 3.6466-3.9134 3.165-2.1733 9.3615-3.0639 13.871 0.78849 4.4413-3.597 12.638 2.4289 13.945 5.8589 1.0757 11.863 0.21996 17.789 0.35946 7.063-0.0902 14.134-0.10461 21.187 0.32086 2.2918-2.9434 7.1646-0.98478 7.5764-5.5825 2.2227-4.422 2.7182-9.3671 4.0592-14.045 0.91904-2.8969 3.2398-9.0286-1.4148-9.4432-10.335-0.88066-20.551-3.459-30.986-3.0934-2.1781-7e-3 -4.3562 7e-3 -6.5343 0.0211z" fill="#daa520" stroke-width=".35714"/>
   <path d="m320.4 709.46c-4.2851 4.7523-9.4727 8.6752-15.357 11.22-6.4993 3.3611-11.653 8.8077-18.136 12.151-3.4439 1.0655-6.3198 2.6479-5.4899 6.703-1.0011 4.4409-2.4594 8.7422-3.3094 13.248-0.37349 1.6632-3.5496 7.8966-0.0268 4.4374 7.4906-7.1747 16.003-13.191 23.418-20.45 4.4563-3.4701 10.517-5.2712 13.178-10.68 2.0441-3.9301 6.2904-7.0366 6.7257-11.6-0.12074-1.4644-0.0658-4.3331-1.0013-5.0295z" fill="#daa520" stroke-width=".35714"/>
   <path d="m236.55 729.09c-3.4058 2.0618 4.1058 0.47565 1e-5 1e-5l-1e-5 -1e-5z" fill="#daa520" stroke-width=".03157"/>
   <path d="m318.79 708.19c-0.77518 2.3623 2.2041-0.0549 0 0z" fill="#daa520" stroke-width=".03157"/>
   <path d="m320.62 708.76c-1.132 1.6742 1.8433 0.18614 0 0z" fill="#daa520" stroke-width=".03157"/>
   <path d="m321.18 716.19c-1.3987 2.5255 1.781 0.32828 0 0z" fill="#daa520" stroke-width=".03157"/>
   <path d="m321.18 716.19c-1.3987 2.5255 1.781 0.32828 0 0z" fill="#daa520" stroke-width=".03157"/>
   <path d="m279.94 734.46c-0.35501 1.8495 1.7401-0.19064 0 0z" fill="#daa520" stroke-width=".03157"/>
   <path d="m275.88 758.08c-1.2402 1.3532-0.9669 4.3424 0.54782 1.4431 1.2578-0.70469 0.0987-1.3413-0.54782-1.4431z" fill="#daa520" stroke-width=".03157"/>
  </g>
  <g transform="matrix(-.99936 -.04764 -.66169 .9691 1258 34.127)" stroke="#8b4513" stroke-linecap="round" stroke-linejoin="round">
   <path d="m229.63 734.02c-4.3918 1.5329-3.0512 7.0278-3.7408 10.621-0.19002 5.7169-0.66795 11.451-0.82235 17.164 5.6407 2.4804 11.982 1.5892 17.951 1.6752 3.6864-0.42776 7.4406-0.96028 11.165-0.36662 3.8661 0.37645 7.8683-0.65458 11.586 0.66703 3.2947 0.43191 4.2594-3.6254 7.8087-2.2493 1.4535-1.9575 2.7794-6.4856 4.169-9.476 0.95148-3.4964 0.56503-7.3255 2.6848-10.435 0.96175-2.4508-0.0156-5.5921 0.38569-7.5569-1.8836 0.36715-5.4637-0.63683-7.9108-0.83173-5.8045-0.94307-11.669-1.4687-17.467-2.4495-6.0897-0.40735-12.224-0.36568-18.316-0.20315-3.087 0.26691-6.0937 1.8183-8.1995 3.7325 2.6499-3.6985 7.8637-4.3162 12.124-4.1804 7.161 0.0172 14.379-0.18584 21.42 1.3636 6.1727 0.55252 12.251 1.8562 18.421 2.3913 0.81157 2.1834 0.26075 5.4358-0.13788 7.8384-2.0586 3.1276-1.7538 6.9338-2.6879 10.437-1.4054 3.1788-2.5875 6.9188-4.2047 9.6989-3.4159-1.242-4.4584 1.9628-7.4131 2.2686-3.9859-1.1028-8.1544-0.46832-12.275-0.68929-4.1929-0.69863-8.3806 0.10452-12.534 0.59585-5.5873-0.1439-11.493 0.33819-16.718-1.9943-0.5019-3.7475 0.43761-7.6472 0.38053-11.467 0.34832-4.8404 0.10545-9.8274 1.4282-14.526 0.32941-0.89016 2.2352-2.7679 2.905-2.0269z" fill="#d2691e"/>
   <path d="m232.93 731.74c2.1342-2.7904 5.368-4.5737 8.4358-6.1509 4.9282-1.5742 10.648-2.2977 14.009-6.7194 3.4491-3.3611 6.3407-7.568 11.054-9.2861 2.6624-1.3137 5.453-2.3626 8.014-3.8685 9.9968 0.33671 19.999 0.19034 30.001 0.19998 5.3724 0.76234 11.027 0.33277 16.168 2.2267-1.8691 2.8169-4.6152 5.383-7.3584 7.5183-4.2035 2.6722-8.8472 4.5733-12.968 7.4001-5.3081 3.2534-9.5475 8.212-15.552 10.339-1.3976 1.0192-4.7679 1.5283-1.4156 0.26389 5.7829-2.02 10.327-6.1654 15.081-9.8395 4.378-2.8707 9.0083-5.2906 13.62-7.7495 3.2614-1.9332 5.8197-5.2399 8.3342-7.7149-5.4919-1.7197-11.365-1.5238-17.042-2.1276-9.5868 0.0558-19.184 0.14652-28.76-0.19432-5.0568 2.975-11.64 4.3964-15.426 9.398-3.4445 3.7863-7.0582 8.024-12.397 8.9433-3.8667 0.72755-7.4484 2.3132-10.573 4.6963-1.2951 0.42342-2.2551 2.529-3.2254 2.6647z" fill="#d2691e"/>
   <path d="m275.21 761.62c4.0588-6.4414 10.73-10.451 16.305-15.418 5.777-4.241 10.131-10.394 16.89-13.274 7.0466-3.2784 8.3189-12.265 14.5-16.473-0.7105 1.4206-3.9042 3.5847-4.7494 5.7806-2.8411 4.5839-5.7062 9.7862-11.071 11.763-6.5533 3.3442-10.877 9.5769-16.883 13.683-5.0536 4.5377-11.084 8.2121-14.719 14.118l-0.27171-0.1787 4e-5 4.3e-4z" fill="#d2691e"/>
   <path d="m321.66 708.93c0.0731 2.7963 0.77128 6.2021 0.35291 8.6813-0.17567-2.7835-0.76238-6.3826-0.35291-8.6813z" fill="#d2691e"/>
   <path d="m274.47 706.61c-5.1752 2.8766-11.394 4.4142-15.175 9.2806-3.7664 4.1174-8.1085 8.2138-13.809 9.2482-2.4802 0.86478-8.2199 2.52-7.998 4.2702 8.1535 0.39109 16.396 0.25909 24.51 1.5022 6.6329 0.92167 13.249 1.9758 19.893 2.8194 8.9267-2.8362 15.048-10.55 23.426-14.456 4.9368-2.7019 10.42-5.4295 13.486-10.304-2.2508-2.2127-7.0739-1.2081-10.299-1.9351-11.327-0.74019-22.693-0.34137-34.034-0.42478z" fill="#daa520" stroke-width=".35714"/>
   <path d="m240.22 731.06c-3.9911-0.28528-8.1631 0.71601-11.042 3.6466-3.9134 3.165-2.1733 9.3615-3.0639 13.871 0.78849 4.4413-3.597 12.638 2.4289 13.945 5.8589 1.0757 11.863 0.21996 17.789 0.35946 7.063-0.0902 14.134-0.10461 21.187 0.32086 2.2918-2.9434 7.1646-0.98478 7.5764-5.5825 2.2227-4.422 2.7182-9.3671 4.0592-14.045 0.91904-2.8969 3.2398-9.0286-1.4148-9.4432-10.335-0.88066-20.551-3.459-30.986-3.0934-2.1781-7e-3 -4.3562 7e-3 -6.5343 0.0211z" fill="#daa520" stroke-width=".35714"/>
   <path d="m320.4 709.46c-4.2851 4.7523-9.4727 8.6752-15.357 11.22-6.4993 3.3611-11.653 8.8077-18.136 12.151-3.4439 1.0655-6.3198 2.6479-5.4899 6.703-1.0011 4.4409-2.4594 8.7422-3.3094 13.248-0.37349 1.6632-3.5496 7.8966-0.0268 4.4374 7.4906-7.1747 16.003-13.191 23.418-20.45 4.4563-3.4701 10.517-5.2712 13.178-10.68 2.0441-3.9301 6.2904-7.0366 6.7257-11.6-0.12074-1.4644-0.0658-4.3331-1.0013-5.0295z" fill="#daa520" stroke-width=".35714"/>
   <path d="m236.55 729.09c-3.4058 2.0618 4.1058 0.47565 1e-5 1e-5l-1e-5 -1e-5z" fill="#daa520" stroke-width=".03157"/>
   <path d="m318.79 708.19c-0.77518 2.3623 2.2041-0.0549 0 0z" fill="#daa520" stroke-width=".03157"/>
   <path d="m320.62 708.76c-1.132 1.6742 1.8433 0.18614 0 0z" fill="#daa520" stroke-width=".03157"/>
   <path d="m321.18 716.19c-1.3987 2.5255 1.781 0.32828 0 0z" fill="#daa520" stroke-width=".03157"/>
   <path d="m321.18 716.19c-1.3987 2.5255 1.781 0.32828 0 0z" fill="#daa520" stroke-width=".03157"/>
   <path d="m279.94 734.46c-0.35501 1.8495 1.7401-0.19064 0 0z" fill="#daa520" stroke-width=".03157"/>
   <path d="m275.88 758.08c-1.2402 1.3532-0.9669 4.3424 0.54782 1.4431 1.2578-0.70469 0.0987-1.3413-0.54782-1.4431z" fill="#daa520" stroke-width=".03157"/>
  </g>
  <g transform="matrix(-.98795 -.04764 -.89394 .9691 1367.8 34.575)" stroke="#8b4513" stroke-linecap="round" stroke-linejoin="round">
   <path d="m229.63 734.02c-4.3918 1.5329-3.0512 7.0278-3.7408 10.621-0.19002 5.7169-0.66795 11.451-0.82235 17.164 5.6407 2.4804 11.982 1.5892 17.951 1.6752 3.6864-0.42776 7.4406-0.96028 11.165-0.36662 3.8661 0.37645 7.8683-0.65458 11.586 0.66703 3.2947 0.43191 4.2594-3.6254 7.8087-2.2493 1.4535-1.9575 2.7794-6.4856 4.169-9.476 0.95148-3.4964 0.56503-7.3255 2.6848-10.435 0.96175-2.4508-0.0156-5.5921 0.38569-7.5569-1.8836 0.36715-5.4637-0.63683-7.9108-0.83173-5.8045-0.94307-11.669-1.4687-17.467-2.4495-6.0897-0.40735-12.224-0.36568-18.316-0.20315-3.087 0.26691-6.0937 1.8183-8.1995 3.7325 2.6499-3.6985 7.8637-4.3162 12.124-4.1804 7.161 0.0172 14.379-0.18584 21.42 1.3636 6.1727 0.55252 12.251 1.8562 18.421 2.3913 0.81157 2.1834 0.26075 5.4358-0.13788 7.8384-2.0586 3.1276-1.7538 6.9338-2.6879 10.437-1.4054 3.1788-2.5875 6.9188-4.2047 9.6989-3.4159-1.242-4.4584 1.9628-7.4131 2.2686-3.9859-1.1028-8.1544-0.46832-12.275-0.68929-4.1929-0.69863-8.3806 0.10452-12.534 0.59585-5.5873-0.1439-11.493 0.33819-16.718-1.9943-0.5019-3.7475 0.43761-7.6472 0.38053-11.467 0.34832-4.8404 0.10545-9.8274 1.4282-14.526 0.32941-0.89016 2.2352-2.7679 2.905-2.0269z" fill="#d2691e"/>
   <path d="m232.93 731.74c2.1342-2.7904 5.368-4.5737 8.4358-6.1509 4.9282-1.5742 10.648-2.2977 14.009-6.7194 3.4491-3.3611 6.3407-7.568 11.054-9.2861 2.6624-1.3137 5.453-2.3626 8.014-3.8685 9.9968 0.33671 19.999 0.19034 30.001 0.19998 5.3724 0.76234 11.027 0.33277 16.168 2.2267-1.8691 2.8169-4.6152 5.383-7.3584 7.5183-4.2035 2.6722-8.8472 4.5733-12.968 7.4001-5.3081 3.2534-9.5475 8.212-15.552 10.339-1.3976 1.0192-4.7679 1.5283-1.4156 0.26389 5.7829-2.02 10.327-6.1654 15.081-9.8395 4.378-2.8707 9.0083-5.2906 13.62-7.7495 3.2614-1.9332 5.8197-5.2399 8.3342-7.7149-5.4919-1.7197-11.365-1.5238-17.042-2.1276-9.5868 0.0558-19.184 0.14652-28.76-0.19432-5.0568 2.975-11.64 4.3964-15.426 9.398-3.4445 3.7863-7.0582 8.024-12.397 8.9433-3.8667 0.72755-7.4484 2.3132-10.573 4.6963-1.2951 0.42342-2.2551 2.529-3.2254 2.6647z" fill="#d2691e"/>
   <path d="m275.21 761.62c4.0588-6.4414 10.73-10.451 16.305-15.418 5.777-4.241 10.131-10.394 16.89-13.274 7.0466-3.2784 8.3189-12.265 14.5-16.473-0.7105 1.4206-3.9042 3.5847-4.7494 5.7806-2.8411 4.5839-5.7062 9.7862-11.071 11.763-6.5533 3.3442-10.877 9.5769-16.883 13.683-5.0536 4.5377-11.084 8.2121-14.719 14.118l-0.27171-0.1787 4e-5 4.3e-4z" fill="#d2691e"/>
   <path d="m321.66 708.93c0.0731 2.7963 0.77128 6.2021 0.35291 8.6813-0.17567-2.7835-0.76238-6.3826-0.35291-8.6813z" fill="#d2691e"/>
   <path d="m274.47 706.61c-5.1752 2.8766-11.394 4.4142-15.175 9.2806-3.7664 4.1174-8.1085 8.2138-13.809 9.2482-2.4802 0.86478-8.2199 2.52-7.998 4.2702 8.1535 0.39109 16.396 0.25909 24.51 1.5022 6.6329 0.92167 13.249 1.9758 19.893 2.8194 8.9267-2.8362 15.048-10.55 23.426-14.456 4.9368-2.7019 10.42-5.4295 13.486-10.304-2.2508-2.2127-7.0739-1.2081-10.299-1.9351-11.327-0.74019-22.693-0.34137-34.034-0.42478z" fill="#daa520" stroke-width=".35714"/>
   <path d="m240.22 731.06c-3.9911-0.28528-8.1631 0.71601-11.042 3.6466-3.9134 3.165-2.1733 9.3615-3.0639 13.871 0.78849 4.4413-3.597 12.638 2.4289 13.945 5.8589 1.0757 11.863 0.21996 17.789 0.35946 7.063-0.0902 14.134-0.10461 21.187 0.32086 2.2918-2.9434 7.1646-0.98478 7.5764-5.5825 2.2227-4.422 2.7182-9.3671 4.0592-14.045 0.91904-2.8969 3.2398-9.0286-1.4148-9.4432-10.335-0.88066-20.551-3.459-30.986-3.0934-2.1781-7e-3 -4.3562 7e-3 -6.5343 0.0211z" fill="#daa520" stroke-width=".35714"/>
   <path d="m320.4 709.46c-4.2851 4.7523-9.4727 8.6752-15.357 11.22-6.4993 3.3611-11.653 8.8077-18.136 12.151-3.4439 1.0655-6.3198 2.6479-5.4899 6.703-1.0011 4.4409-2.4594 8.7422-3.3094 13.248-0.37349 1.6632-3.5496 7.8966-0.0268 4.4374 7.4906-7.1747 16.003-13.191 23.418-20.45 4.4563-3.4701 10.517-5.2712 13.178-10.68 2.0441-3.9301 6.2904-7.0366 6.7257-11.6-0.12074-1.4644-0.0658-4.3331-1.0013-5.0295z" fill="#daa520" stroke-width=".35714"/>
   <path d="m236.55 729.09c-3.4058 2.0618 4.1058 0.47565 1e-5 1e-5l-1e-5 -1e-5z" fill="#daa520" stroke-width=".03157"/>
   <path d="m318.79 708.19c-0.77518 2.3623 2.2041-0.0549 0 0z" fill="#daa520" stroke-width=".03157"/>
   <path d="m320.62 708.76c-1.132 1.6742 1.8433 0.18614 0 0z" fill="#daa520" stroke-width=".03157"/>
   <path d="m321.18 716.19c-1.3987 2.5255 1.781 0.32828 0 0z" fill="#daa520" stroke-width=".03157"/>
   <path d="m321.18 716.19c-1.3987 2.5255 1.781 0.32828 0 0z" fill="#daa520" stroke-width=".03157"/>
   <path d="m279.94 734.46c-0.35501 1.8495 1.7401-0.19064 0 0z" fill="#daa520" stroke-width=".03157"/>
   <path d="m275.88 758.08c-1.2402 1.3532-0.9669 4.3424 0.54782 1.4431 1.2578-0.70469 0.0987-1.3413-0.54782-1.4431z" fill="#daa520" stroke-width=".03157"/>
  </g>
  <path d="m253.52011,718.31175c.86454-.59087 1.70424-1.21745 2.55709-1.82502 .96712-.68668 1.94624-1.35621 2.91994-2.03347 .50404-.35726.99809-.72849 1.51015-1.0743 .26144-.18692.54279-.34083.82943-.48472 .23897-.10615.4591-.24481.67102-.39674 .18235-.11761.30699-.28272.42772-.45728 .0968-.24222.3015-.38026.50742-.52513l.25349-.0638c.0605-.0937.50237.19173.44181.28545l.0843.19805c.0457.3493.01.6307-.22103.91721-.21297.27121-.49573.45597-.76765.6652-.26758.18955-.54538.36249-.84766.49209-.23699.11402-.46255.24834-.68036.39582-.50607.34752-.9962.71798-1.50721,1.05851-.97083.67272-1.94608,1.33909-2.91076,2.02063-.86402.6155-1.72224,1.23947-2.60486,1.82822-.21229.14061-.87515-.86012-.66286-1.00074z" fill="#8b4513"/>
  <path d="m288.92353,710.34879c-.44405.41284-.74064.95581-1.15451,1.39446-.22113.23437-.47293.43778-.7094.65666-.0726.11349-.60756-.22871-.53497-.3422 .10274-.3114.18033-.63227.30823-.93421 .25177-.59441.66152-1.10946.9641-1.67624 .19124-.23898 1.31779.66255 1.12655.90153z" fill="#8b4513"/>
  <path d="m279.32 716.86c-0.39845 1.3979-1.1488 2.6496-1.9266 3.8638-0.8773 1.236-1.7247 2.515-2.813 3.5756-0.14837 0.1903-1.0454-0.50912-0.89708-0.69942 0.73887-1.2783 1.7271-2.3904 2.5101-3.6438 0.69552-1.0892 1.3834-2.2028 1.7601-3.4496 0.0749-0.28988 1.4414 0.0634 1.3665 0.35324z" fill="#8b4513"/>
  <path d="m319.23155,722.41749c-.52877.57042-1.03094,1.16398-1.50145,1.78319-.35929.47668-.6747.98417-1.01957,1.47075-.22657.2629-.3823.57273-.56388.86541-.0927.11891-.12167.25911-.16502.39843-.0466.17527-.0889.35183-.12959.52931-.02.16052-.0636.26893-.14934.40596-.0222.223-1.07335.11856-1.0512-.10443-.0584-.20051-.0712-.35608-.0229-.56225 .0476-.23533.11387-.46527.21781-.68209 .077-.19333.18853-.3686.27911-.55559 .16055-.31813.36663-.61263.49681-.94632 .28776-.57308.62416-1.12253.9855-1.65189 .49153-.67684 1.02549-1.3206 1.61182-1.91809 .20526-.21466 1.21718.75295 1.01192.96761z" fill="#8b4513"/>
  <path d="m297.53618,724.64211c-.17027.30919-.38662.53247-.65613.75412-.0994.19152-1.0022-.27698-.90282-.4685 .0448-.39695.12485-.72899.35914-1.06327 .16496-.25452 1.36478.52313 1.19981.77765z" fill="#8b4513"/>
  <path d="m297.14314,724.56499c-.28701.35974-.33332.94967-.66414,1.27404-.10726.10517-.25751.15475-.38627.23213-.0698.16917-.8673-.16007-.79745-.32924-.0322-.15639-.10373-.30965-.0967-.46918 .0219-.49858.47253-.95393.63134-1.40784 .14851-.27859 1.46177.42151 1.31325.70009z" fill="#8b4513"/>
  <path d="m346.7872,715.81942c-.64183.70403-1.26473,1.42461-1.87765,2.15383-.59421.72785-1.17249,1.46828-1.76434,2.19801-.22352.28488-.52792.49918-.68489.83304-.0241.0526-.0355.0593-.0283.11511 .0545.29077.0274.57915-.0235.8679-.11019.46052-.31597.89094-.50825,1.32159-.16437.33708-.28373.69247-.4056,1.04626-.15394.45287-.33247.89721-.51958,1.33729-.179.35037-.28455.8049-.60066,1.05645-.0699.18962-.96374-.13972-.89387-.32934-.0575-.42069.18527-.83169.3305-1.21756 .17339-.41546.34808-.83046.49266-1.25714 .13478-.39116.27941-.77878.45497-1.15383 .16117-.34977.33473-.69434.4683-1.0562 .0549-.1873.0619-.37409.0563-.56882-.0004-.24178.008-.48654.11961-.70722 .20365-.38089.47377-.72439.69264-1.09629 .56593-.77337 1.15012-1.53292 1.76563-2.2678 .62465-.74757 1.2633-1.48355 1.92254-2.20092 .19636-.21287 1.19985.71277 1.00349.92564z" fill="#8b4513"/>
  <path d="m333.18539,717.28498c-.38981.96805-.86413,1.89898-1.32884,2.83246-.40501.85439-.84621,1.69099-1.26434,2.53865-.14022.26227-.15942.52792-.15061.81437 .044.42049-.0778.79715-.21869,1.19024-.26489.67686-.51947,1.34365-.98892,1.90251-.0839.20179-1.03517-.19372-.95127-.39551 .0787-.78207.36845-1.28079.68451-1.98209 .0943-.23232.21252-.42892.1506-.67998-.0114-.46917.0989-.92562.26754-1.36204 .33359-.9153.72101-1.80736 1.17281-2.67136 .44857-.90429.9047-1.80557 1.30466-2.73285 .11574-.28055 1.43829.26504 1.32255.5456z" fill="#8b4513"/>
  <path d="m373.31665,719.07594c-.38336.85781-.74983,1.72322-1.17753,2.56008l-.36627.46127c-.0567.16816-.84943-.0992-.7927-.26739-.001-.20447-.003-.40895-.004-.61343 .21997-.95461.55814-1.87173.97574-2.7582 .13103-.28946 1.49555.32821 1.36452.61767z" fill="#8b4513"/>
  <path d="m386.83436,726.02774c-.082.96887-.19571,1.9347-.30746,2.90048-.0418.59881-.16201.88954-.5225,1.35511-.0181.13406-.65004.0487-.63193-.0853-.22702-.52557-.27393-.84694-.18108-1.42316 .10843-.95107.22389-1.90162.30395-2.85563 .023-.28405 1.36205-.17549 1.33902.10855z" fill="#8b4513"/>
  <path d="m362.01723,728.44214c.12157-.83615.29429-1.66358.48889-2.48543 .1809-.79195.40617-1.57303.74366-2.31289 .23468-.52369.71151-.85069 1.06375-1.27611 .155-.15457.26767-.34261.39223-.52088 .025-.04.2137.0776.18874.11765-.1013.18405-.21286.36232-.24527.57446-.12339.50189-.0275,1.04346-.16932,1.54828-.19028.72833-.41843,1.44683-.57794,2.18321-.16626.78366-.32037,1.57024-.43616,2.36315-.0406.30729-1.48919.11585-1.44858-.19144z" fill="#8b4513"/>
  <path d="m418.76668,727.98586c.66399.90792 1.28351,1.84738 1.88047,2.80039 .62968,1.00459 1.14823,2.07033 1.58805,3.16971 .32177.79483.50932,1.63057.68202,2.46735 .1117.56028.18621,1.12691.24167,1.69522 .0389.37936.037.75907.12841,1.13084 .0873.30261.19025.59985.25719.90788 .10407.38773.0715.67257-.14239,1.0092 .0181.16221-.74657.24746-.76466.0852-.23035-.26029-.34602-.47925-.35758-.83037-.0577-.29332-.14836-.5755-.23492-.86142-.10901-.43036-.26103-.85354-.29381-1.2993-.0542-.51868-.12137-1.03626-.22338-1.54799-.15822-.75252-.3898-1.48678-.66847-2.20342-.41047-1.01521-.89197-1.99824-1.49052-2.91766-.5809-.91679-1.17971-1.82257-1.81045-2.70599-.19085-.25633 1.01752-1.15603 1.20837-.89969z" fill="#8b4513"/>
  <path d="m410.53477,720.9457c.10843.46799.3924.94004.41989,1.42517 .0136.23912-.0513.47625-.0769.71438 .0477.1329-.57883.3576-.62649.2247-.17049-.16571-.36966-.30631-.51147-.49714-.28904-.38897-.37698-.93021-.60206-1.35431-.10878-.29636 1.28829-.80917 1.39707-.5128z" fill="#8b4513"/>
  <path d="m416.29714,745.00291c.33735.64934.65427,1.30879.96585,1.97078 .20086.44069.40345.88077.59836,1.32415 .15164.31457.20994.65689.26233.99865 .0254.23634.14461.43678.25362.64228 .2275.41093.25335.52874.0706.97606 .0427.086-.36269.28746-.40542.20146-.38873-.0692-.55298-.17606-.76027-.51032-.22581-.33496-.41141-.69239-.471-1.09748-.0397-.23268-.0755-.46801-.16562-.68792-.18196-.43402-.38368-.85922-.58135-1.28622-.306-.65845-.62141-1.31248-.92648-1.97137-.11881-.24594 1.04055-.80601 1.15936-.56007z" fill="#8b4513"/>
  <path d="m406.64789,734.28199c-.26026.95836-.53538,1.9121-.78295,2.87393-.19331.64403-.0773.33709-.34237.92288-.0499.24913-1.22432.0139-1.17441-.23527-.008-.69044-.0337-.34283.0823-1.04245 .23151-.97343.50817-1.93462.79085-2.89431 .0796-.30263 1.50621.0726 1.42661.37522z" fill="#8b4513"/>
  <path d="m340.66858,747.18111c.30116-.709.63677-1.4025.97622-2.09374 .24326-.49099.50276-.97343.76601-1.45387 .13819-.23912.2778-.47843.43728-.70416 .14774-.20149.32403-.3784.50575-.54875 .0869-.0673.16229-.16587.27056-.19887 .17061-.13213.36067-.11606.5504-.0713 .15364.0332.2938.0957.43645.16155 .0573-.0439.26413.22618.20684.27006-.0147.28134-.0669.48631-.33644.62112-.22431.0755-.16752.16852.0318.0923-.0407.069-.0996.12074-.15855.17637-.11296.11004-.22316.22396-.32142.34743-.12484.16893-.21214.35613-.30092.54578l-.71674,1.43574c-.32636.66444-.64766,1.33174-.93916,2.01236-.12558.2987-1.53366-.29327-1.40808-.59197z" fill="#8b4513"/>
  <path d="m339.7874,731.79643c.46765-.5153.94601-1.02058 1.4375-1.51316 .34463-.34243.71339-.65917 1.08831-.96766 .28162-.21326.5923-.38612.90193-.55509l1.2585-.64914c.35744-.15262.16126-.13881.58747.0544 .12325-.065.42972.51597.30647.58098-.10947.46918.0243.32118-.30721.51366-.40655.20743-.79621.43975-1.18108.68489-.24534.14123-.49947.26687-.73499.42468-.3486.25958-.65292.57251-.97108.8673-.47842.47143-.93922.96024-1.39123,1.45702-.19047.21099-1.18506-.6869-.99459-.89788z" fill="#8b4513"/>
  <path d="m280.6581,740.93319c-.39648.67057-.81419,1.32808-1.24646,1.97604-.31613.47555-.65397.93593-.99539,1.39347-.17443.21358-.30397.45654-.43.70027-.1638.33013-.33105.65674-.55525.94976-.12836.24318-1.27474-.36193-1.14638-.60511 .11032-.33513.27993-.64218.42287-.96439 .14934-.32492.32468-.63509.52743-.93007 .3157-.4549.6491-.89742.9555-1.35885 .41857-.62708.82353-1.26307 1.20422-1.91401 .15971-.26802 1.42317.48487 1.26346.75289z" fill="#8b4513"/>
  <path d="m466.56819,719.20208c.55401.72526 1.05816,1.48607 1.54766,2.25573 .39345.61106.75069,1.24408 1.12447,1.86705 .20017.35863.46698.67058.72379.98856 .331.40484.58379.86272.82298,1.32535 .22857.50742.56216.95717.68665,1.50112 .14233.18795-.74368.85886-.886.67091-.12856-.0906-.27468-.16026-.38569-.27164-.33269-.33378-.45113-.85124-.69358-1.24316-.19184-.37575-.39252-.74914-.66031-1.0776-.2992-.36736-.60512-.73083-.85904-1.13212-.37601-.60983-.72639-1.23522-1.11295-1.83866-.46946-.73553-.94919-1.46515-1.47578-2.16151-.18753-.24772.98027-1.13176 1.1678-.88403z" fill="#8b4513"/>
  <path d="m446.7255,719.67269c.58644.56149 1.18145,1.11392 1.76219,1.68134 .53353.51267 1.01131,1.07714 1.45341,1.66931 .23454.32492.44821.66415.65102,1.00956 .14925.26379.3121.51949.47378.77575l.55811.86936c.18332.29114.34838.59297.51419.89423 .0736.23902.0716.10955-.0449.38587 .1066.17471-.71702.67723-.82362.50251-.32672-.0703-.20717.0115-.38716-.19729-.1516-.27545-.30092-.55238-.46922-.81818-.18141-.28809-.36989-.57158-.55759-.85559-.17796-.2701-.35249-.54257-.5118-.82421-.17733-.30239-.3613-.60102-.56773-.88471-.38743-.53534-.82037-1.03417-1.29531-1.49427-.5801-.56465-1.17112-1.11773-1.75702-1.67633-.22006-.21248.78158-1.24983 1.00163-1.03735z" fill="#8b4513"/>
  <path d="m459.50425,726.05224c.13749.55567.76282,1.04764.94808,1.53967 .053.14088.0488.29708.0732.44561 .11001.11526-.43331.63384-.54332.51858-.16901-.0541-.35531-.0703-.50704-.16235-.54676-.3317-.88567-1.26339-1.19033-1.80097-.11467-.25867 1.10472-.79921 1.21938-.54054z" fill="#8b4513"/>
  <path d="m434.23486,719.5702c.43308.42749.88069.83986 1.32502,1.25553 .23989.2276.48098.45432.70671.69612 .17452.14392.24152.34904.32905.54626 .12264.25787.20211.52412.25884.80338 .0365.28666.10872.56432.19343.8397l-.0451.18166c.0952.21569-.92165.66427-1.01681.44857l-.19437-.15673c-.14346-.34246-.22503-.70057-.27663-1.06806-.0195-.12824-.021-.25395-.11922-.34751-.0606-.0813-.13791-.14505-.19339-.22952-.21234-.21422-.43875-.41407-.65854-.62049-.46203-.42646-.92606-.85113-1.36999-1.29663-.22322-.22507.83777-1.27735 1.06099-1.05228z" fill="#8b4513"/>
  <path d="m481.60974,746.3591c.24924.30395.46946.62132.67654.95492 .18713.24641-.97442,1.12857-1.16155.88217-.26959-.29217-.52295-.59247-.75023-.91945-.19466-.26204 1.04058-1.17967 1.23524-.91764z" fill="#8b4513"/>
  <path d="m540.52651,747.97843c.35558.56863.7475,1.11302 1.13781,1.65797 .41042.57196.78521,1.16803 1.15451,1.76697 .17634.29542.38898.57327.47673.90982 .16075.25807-1.0558,1.01588-1.21656.75781-.26497-.22902-.42114-.54496-.60791-.83668-.35183-.57068-.7067-1.13992-1.09806-1.68472-.40186-.57551-.81027-1.14713-1.17949-1.74453-.17536-.28276 1.15762-1.1094 1.33297-.82664z" fill="#8b4513"/>
  <path d="m566.27384,710.46182c.43043.4522.85849.90663 1.27608,1.37075 .3643.40997.69615.84693 1.05032,1.26544 .32312.36985.69883.68845 1.06344,1.01591 .32411.29411.64377.59301.97682.87705 .27669.23491.57624.44049.8766.64348 .30715.20743.61945.40705.93499.60145 .36226.21871.7274.43258 1.09319.64532 .36852.2172.7486.4136 1.12737.61205 .44469.2269.86837.49096 1.28357.76733 .4205.30543.86104.57768 1.31288.83356 .2968.19257.15564.0817.42108.33575 .24996.14368-.42734,1.322-.6773,1.17832-.31784-.075-.15697-.0229-.48044-.16307-.50006-.26376-.97429-.56814-1.43383-.89748-.3708-.24735-.74859-.48424-1.14456-.68977s-.79679-.41568-1.18374-.64427c-.37709-.21935-.75334-.44021-1.12646-.66626-.33401-.2059-.66552-.41585-.9898-.63685-.34793-.23548-.69223-.4773-1.01178-.75079-.34574-.29566-.67884-.60537-1.01138-.91573-.4082-.37959-.8207-.75663-1.17878-1.18548-.34245-.41361-.66973-.83953-1.0156-1.25036-.39796-.46704-.80569-.92552-1.21187-1.38539-.20385-.22257.84535-1.18353 1.0492-.96096z" fill="#8b4513"/>
  <path d="m562.70318,721.19229c.52002.47445 1.05745.92731 1.62645,1.34178 .50102.3488 1.031.65229 1.53787.99216 .43811.30488.8047.69522 1.19735,1.05346 .17041.21847 1.00823.70885 1.03305.95268 .0206.20219-.069.40057-.10348.60085 .0374.0266-.088.20285-.12539.17626-.18004.0967-.3401.24821-.54011.29024-.2749.0577-1.08348-.70532-1.31258-.87233-.33747-.30868-.65547-.64087-1.02132-.91666-.51927-.35821-1.07635-.65881-1.58305-1.03602-.6052-.45367-1.18459-.93972-1.73771-1.45588-.23898-.21826.78995-1.34481 1.02892-1.12654z" fill="#8b4513"/>
  <path d="m543.86657,714.70915c.93625.51666 1.60994,1.33451 2.22171,2.18945 .58146.91023 1.1875,1.80028 1.88631,2.62462 .51664.57676 1.09277,1.09536 1.64776,1.63416 .44649.4012.77209.89429 1.05706,1.41679 .27824.56951.60842,1.10806.97938,1.62113 .19436.36673.67961.73421.72639,1.17109 .0175.16357-.0459.3258-.0689.48869 .0666.10454-.42614.41873-.49279.31419-.14162-.0232-.29159-.0164-.42484-.0697-.35855-.1433-.70268-.71623-.98647-.96534-.43781-.56217-.82089-1.15921-1.13009-1.80257-.20452-.38021-.42884-.74282-.75694-1.03157-.60088-.57012-1.22621-1.11705-1.76953-1.74471-.72722-.85959-1.36768-1.78111-1.97055-2.73174-.46746-.66482-.96952-1.30977-1.68437-1.72577-.29461-.16246.47123-1.55122.76583-1.38876z" fill="#8b4513"/>
  <path d="m520.89328,722.49943c.59589.42527 1.17092.87849 1.7348,1.34507 .51412.42494.98178.90034 1.43416,1.38926 .36944.40422.72905.81744 1.10912,1.2118 .27873.29124.61148.51844.94821.73608 .36044.22645.73068.43669 1.09658.65407 .14748.0987.79022.50871.79169.67893 .002.20678-.11886.39612-.17829.59418 .0403.0376-.13689.22777-.17723.19017-.17354.0917-.33133.22321-.52062.27512-.10074.0276-.59641-.34292-.71769-.38851-.38251-.22735-.76848-.44905-1.14509-.68618-.43802-.28244-.86215-.58782-1.22451-.96545-.38825-.40126-.75648-.82101-1.13492-1.23144-.40774-.43881-.82539-.869-1.28709-1.25212-.53002-.44571-1.07341-.8749-1.63666-1.27813-.27001-.19251.63753-1.46536.90754-1.27285z" fill="#8b4513"/>
  <path d="m510.31031,715.81295c.6946.56695 1.41657,1.09912 2.1336,1.63706 .5643.41703 1.11476.85173 1.60376,1.35591 .33189.35319.57762.77238.84134,1.1758 .26294.41469.57024.79791.9028,1.15828 .24093.24487.12224.11926.35588.37701 .24078.19313-.66967,1.32818-.91045,1.13504-.42696-.27326-.23115-.12281-.59083-.4469-.39422-.42137-.75502-.87083-1.07921-1.34866-.21551-.32192-.41517-.65706-.66867-.95127-.42094-.44867-.91528-.81626-1.40778-1.18222-.73885-.55214-1.48121-1.1005-2.19427-1.68596-.25967-.21507.75416-1.43916 1.01383-1.22409z" fill="#8b4513"/>
  <path d="m500.13612,718.04531c.56971.3904 1.10461.82753 1.61632,1.29053 .41404.37645.76526.81185 1.10671,1.25299 .1526.21975.34727.39857.55178.56788 .22574.18494.4516.37186.63134.6028 .12494.37765.40353.65648.57718,1.0114 .003.11493.005.22987.008.3448 .0354.0342-.12603.2009-.16138.16666l-.35383-.005c-.32244-.16547-.56631-.45339-.93536-.49294-.2392-.10292-.46503-.23948-.68968-.37011-.34148-.23331-.63852-.51449-.8833-.84964-.28686-.36766-.57527-.73612-.92123-1.05135-.45506-.41587-.93429-.8043-1.44125-1.15566-.27838-.1899.61682-1.50218.8952-1.31228z" fill="#8b4513"/>
  <path d="m505.48521,726.23138c.51555.39162 1.02536.79035 1.52387,1.20346 .41427.34978.81486.71368 1.12989,1.15635 .20708.22864-.87077,1.20484-1.07785.97619-.3603-.30089-.66983-.65684-1.03622-.9519-.48227-.4046-.98136-.78808-1.4819-1.16972-.25761-.19987.6846-1.41426.94221-1.21438z" fill="#8b4513"/>
  <path d="m491.36191,719.42195c.79269.83256 1.37891,1.83323 1.99846,2.79483 .60306.95683 1.28545,1.85791 2.01373,2.72191 .50952.58165 1.01923,1.1628 1.5046,1.76488 .41803.51642.80869,1.05394 1.19938,1.59108 .36595.50451.72031,1.01726 1.08945,1.51946 .33688.46143.68659.91286.95812,1.41614 .1766.19358-.73594,1.02609-.91254.83251-.51478-.36014-.93831-.81525-1.30944-1.32272s-.72667-1.0189-1.09462-1.52508c-.37324-.51622-.74939-1.03063-1.14979-1.52632-.47988-.59277-.98202-1.16615-1.48482-1.73951-.77062-.91557-1.49537-1.86866-2.13919-2.87859-.55362-.85927-1.07757-1.74917-1.75506-2.51882-.23966-.22946.84205-1.35924 1.08172-1.12977z" fill="#8b4513"/>
  <path d="m234.90632,749.64921c.65847.008 1.31592.0539 1.97335.0896 .50119.0249 1.00188.0571 1.50177.10099 .42973.0332.85052.12376 1.26418.24131 .4004.12039.78705.28046 1.17666.43099 .36319.14332.72695.28533 1.0846.44211 .33491.15009.66194.31642.96099.52984 .18355.18528.0967.0702.2341.36363 .16354.0486-.0656.81954-.22917.77093-.38633.14795-.19682.12527-.56424.0974-.34647-.10197-.66052-.26796-.98731-.41934-.34197-.14834-.68815-.28644-1.03547-.42172s-.69069-.27791-1.04391-.39502c-.3248-.0956-.65526-.16705-.99331-.19642-.48425-.0468-.97018-.0714-1.45549-.10446-.63326-.0417-1.26621-.0888-1.90055-.11158-.30088-.003-.28707-1.42126.0138-1.41833z" fill="#8b4513"/>
  <path d="m254.70716,751.63676c.82172-.10145 1.64778-.16063 2.47465-.19801 .51102-.0527.9319.0388 1.39968.2258 .21157.007.17732,1.00463-.0342.99737-.42518.15128-.82386.22806-1.27973.21977-.7989.0592-1.59767.12133-2.39393.21025-.30869.0353-.47511-1.41988-.16642-1.45518z" fill="#8b4513"/>
  <path d="m241.73133,733.97172c.90713.0423 1.80816.15821 2.70914.26607 .87852.11335 1.75856.21397 2.6386.31455 .72797.0713 1.42879.23807 2.09164.54614 .65527.3471 1.077.95507 1.54665,1.50372 .42632.49364 1.04309.71901 1.63779.93928 .53603.20458.29144.0391.69909.54433 .13198.0344-.03.65652-.16198.62216-.67306.22876-.34706.2227-.97551.072-.81328-.27694-1.56721-.64781-2.18474-1.26074-.38771-.38753-.73143-.83008-1.18128-1.14693-.50685-.26661-1.07497-.32257-1.63788-.37964-.88315-.10291-1.76555-.2117-2.64761-.32352-.87151-.10909-1.74308-.22139-2.61842-.29548-.29739-.0179-.21287-1.41983.0845-1.40191z" fill="#8b4513"/>
  <path d="m265.18923,742.22687c1.01583-.0346 2.03241-.0335 3.04847-.0122 .55816-.0271 1.02592.0802 1.53078.29705 .22257.0186.13498,1.06782-.0876,1.04924-.49635.12943-.95654.16865-1.47159.10939-1.00664-.0181-2.01372-.003-3.02006-.039-.29793,0-.29793-1.40445 0-1.40445z" fill="#8b4513"/>
  <path d="m292.01819,740.86661c.71977-.31428 1.45077-.60161 2.19193-.86118 .6627-.24071 1.34857-.39744 2.04264-.51298 .61949-.0945 1.24525-.13576 1.86971-.18165 .56913-.0539 1.12435-.12009 1.68494.0129l.29057.25662c.16952.0135.10605.81261-.0635.79914l-.21011.21686c-.51466.17438-1.05389.17288-1.59169.21437-.57991.0426-1.16094.0807-1.73667.16501-.60642.0977-1.20611.23369-1.78587.43978-.71604.25737-1.42002.54476-2.12427.83249-.29302.12043-.86074-1.2609-.56771-1.38133z" fill="#8b4513"/>
  <path d="m322.54033,735.86348c.77276-.002 1.54558-.007 2.31829.004 .72082.005 1.44026.0467 2.15792.11172 .6657.0641 1.3294.14585 1.99675.19123 .71076.0498 1.42455.049 2.13137.14273 .43406.0242.71186.16545 1.03609.43671 .20207.0757-.1546,1.02821-.35667.95255-.26283.0497-.49257.0375-.75919.002-.72228.0182-1.4445-.0108-2.16468-.068-.67357-.0578-1.34613-.12304-2.01771-.20087-.67689-.0633-1.35517-.11582-2.03568-.10998l-2.30649-.005c-.30922,0-.30922-1.4577 0-1.4577z" fill="#8b4513"/>
  <path d="m330.69326,734.87047-.23188.38059c-.0716.2347-1.17797-.10275-1.10639-.33745l.016-.4322c.0825-.28049 1.40477.10857 1.32224.38906z" fill="#8b4513"/>
  <path d="m330.05148,737.35155c-.31231.3568-.13456.17988-.54266.52113-.13071.19953-1.07129-.41665-.94058-.61618 .16377-.53339.0616-.28935.29311-.73754 .17662-.25247 1.36676.58013 1.19013.83259z" fill="#8b4513"/>
  <path d="m330.91243,736.9339c-.76306.58083-1.35784,1.34029-1.96032,2.07755l-.3524.36938c-.1509.21963-1.18624-.49171-1.03535-.71134l.24095-.49422c.61683-.94273 1.29917-1.86368 2.20921-2.54546 .27664-.19047 1.17455,1.11361.89791,1.30409z" fill="#8b4513"/>
  <path d="m303.87825,753.23924c.85159-.5024 1.73889-.93187 2.65489-1.30202 .86221-.35642 1.74746-.57605 2.68068-.56708 .71774.0384 1.37626.31003 2.01618.61428 .48419.2559.9894.46322 1.51163.6262 .50013.14707 1.01886.21119 1.53396.28087 .46797.0632.93501.1321 1.40133.20639 .38607.0471.769.11238 1.15021.18889 .41191.0741.79754.16701 1.15361.39004 .21751.0247.10091,1.05009-.1166,1.02535-.43136.13381-.84778.11599-1.29112.035l-1.12412-.16691c-.45595-.0686-.91015-.14897-1.36826-.20254-.6012-.0775-1.20259-.16495-1.78412-.34252-.58769-.18615-1.1552-.42148-1.70526-.7005-.45046-.21525-.90718-.43185-1.4117-.4781-.72872-.0325-1.41989.16245-2.08693.44985-.85131.35755-1.68006.76519-2.48212,1.22331-.27164.15533-1.0039-1.12522-.73226-1.28055z" fill="#8b4513"/>
  <path d="m380.86987,749.46792c.92789-.0757 1.85828-.12142 2.78899-.14124 1.03249-.007 2.06376.0552 3.09472.10328 .90951.0318 1.8182.0755 2.72684.12548 .39447.0666 1.22507-.0205 1.5435.25391 .15845.13657.24575.33858.36862.50787 .012-9e-005 .0125.0566.00043.0567-.12896.17118-.22047.37847-.38688.51354-.328.26623-1.18552.13349-1.58266.16646-.91414-.0193-1.82834-.0368-2.74157-.0851-.99689-.0465-1.99378-.10798-2.99211-.10802-.90018.017-1.79919.065-2.69717.12963-.32298.026-.44569-1.49648-.12271-1.52251z" fill="#8b4513"/>
  <path d="m362.32066,741.77715c1.14166-.18175 2.27827-.39214 3.42149-.56407 .93083-.0955.46665-.0919 1.39253-.0123 .25987-.0254.3796,1.19964.11973,1.22504-.81572.25335-.39252.14642-1.27126.31417-1.14667.18975-2.29109.39404-3.44043.56694-.3245.0471-.54656-1.48263-.22206-1.52973z" fill="#8b4513"/>
  <path d="m377.9441,741.80312c.99457-.20627 2.00499-.30596 3.01768-.36333 .79414.007.40486-.0633 1.16607.22175 .19246-.008.23171.89892.0393.90724-.68973.3461-.33201.23568-1.06935.34336-.95317.12419-1.9069.25058-2.85139.43096-.32668.0641-.62894-1.47586-.30227-1.53998z" fill="#8b4513"/>
  <path d="m391.32741,742.39968c.93155-.21825 1.87171-.36816 2.82813-.29998l.4299.67109c.0219.002.0136.10521-.008.10343l-.40318.60365c-.84907.10523-1.6947.23728-2.5376.38385-.31014.0655-.61903-1.39652-.30888-1.46204z" fill="#8b4513"/>
  <path d="m372.83675,756.87268c.96559-.23127 1.93528-.42199 2.92857-.45969 .30885-.0387.49119,1.41723.18234,1.45591-.9313.20795-1.87436.35766-2.80785.55604-.32928.0643-.63235-1.48797-.30306-1.55226z" fill="#8b4513"/>
  <path d="m436.02903,753.05335c.76832-.10265 1.54097-.16887 2.31374-.22703 .72085-.0599 1.44335-.0791 2.16633-.0701 .52304.0112 1.04561.0372 1.56812.0624 .26802.0134.53614.0245.8041.0391 .25982.0127.51152.0794.7623.14321l.8621.19666c.22824.0525.45213.11787.66726.21052 .23644.0965.40489.23697.48715.48058l-.0484.32767c.0928.0502-.14368.48757-.23647.43741l-.27117.20724c-.18255.0427-.34274.0358-.50994-.0564-.13566-.0449-.27451-.0792-.41439-.10855-.30126-.0625-.60392-.11854-.90309-.19085-.15626-.0364-.31262-.08-.47373-.0871l-.80115-.0363c-.50404-.0243-1.00806-.0503-1.51259-.0625-.67782-.009-1.35519.008-2.0311.0633-.74403.0542-1.48723.11872-2.22732.2138-.32735.0428-.52909-1.50035-.20174-1.54315z" fill="#8b4513"/>
  <path d="m456.53517,751.95599c1.0264.0203 1.99894.28048 2.92815.70136 .59771.32985 1.14033.73277 1.60885,1.22701 .22245.16007-.53211,1.20872-.75456,1.04865-.53202-.25179-.98672-.60578-1.49837-.8945-.73623-.35711-1.51671-.55208-2.33816-.5726-.3203-.0115-.26621-1.52139.0541-1.50992z" fill="#8b4513"/>
  <path d="m440.09559,741.10319c1.10827.003 2.29122-.18224 3.38054.10825 .28816.0768.55252.22467.82878.33701 .20731.0273.0784,1.00463-.12896.97727-.27503.0396-.54762.10387-.82508.11877-1.05129.0565-2.12171-.15642-3.17511-.0142-.32394.017-.40412-1.51008-.0802-1.52709z" fill="#8b4513"/>
  <path d="m462.85045,744.22217c.84683-.57326 1.68584-1.15796 2.5318-1.73247 .66165-.32836 1.41863-1.10719 2.1771-1.19957 .13866-.0169.27798.0279.41696.0418 .23567-.0759.59354,1.03504.35788,1.11096-.48389.65586-1.45383.83044-2.04774,1.3846-.85821.57723-1.70645,1.17064-2.58894,1.71063-.27916.17969-1.12621-1.13626-.84706-1.31595z" fill="#8b4513"/>
  <path d="m500.87681,735.62c1.04277.29787 2.05417.69315 3.06947,1.07156 .80666.3115.41573.13171 1.17317.53854 .26442.0874-.14782,1.33395-.41224,1.2465-.89172-.13927-.4551-.0341-1.31-.31487-.97398-.36449-1.94507-.73994-2.94072-1.04238-.31806-.0892.10226-1.58851.42032-1.49935z" fill="#8b4513"/>
  <path d="m511.19397,743.52186c.84408.32033 1.68394.65157 2.52636.97621 .94469.37001 1.90022.71165 2.84278,1.08702 .44321.15769.82816.38725 1.20031.66819 .24275.10858-.2691,1.25287-.51184,1.14429-.43015-.0782-.83887-.19721-1.24393-.36617-.95499-.35304-1.90865-.71013-2.85552-1.08448-.85038-.33925-1.70144-.67789-2.53611-1.05461-.29072-.1226.28723-1.49306.57795-1.37045z" fill="#8b4513"/>
  <path d="m520.31179,755.10141c.94022.25806 1.85576.57064 2.69575,1.0694l.17907.77216c.0207.0108-.0301.10821-.0507.0975l-.68426.32266c-.8613-.28853-1.70328-.63254-2.57156-.90142-.28855-.0916.14319-1.45184.43174-1.36025z" fill="#8b4513"/>
  <path d="m496.42061,751.32062c1.36883-.014 2.73673-.00044 4.10408.0648 .85358.0283 1.68458.18329 2.51398.37116 .30467.0495.0712,1.48575-.23344,1.43623-.78499-.0738-1.56916-.16003-2.35679-.20148-1.34205-.0634-2.68441-.0721-4.02783-.0648-.34068,0-.34068-1.60598 0-1.60598z" fill="#8b4513"/>
  <path d="m552.7281,752.33841c1.11442-.0977 2.23214-.14686 3.34974-.19019 .91949-.0553 1.82375-.0675 2.73015.0967 .26493-.006.29164,1.24324.0267,1.2489-.88882.20194-1.78433.23215-2.69532.24265-1.09535.0424-2.19067.0915-3.2833.18184-.33514.0271-.46311-1.55274-.12797-1.57988z" fill="#8b4513"/>
  <path d="m560.61703,735.34136c1.09244-.0671 2.18065-.0951 3.26587.0582l.5794.28834c.1797.0181.0944.86523-.0853.84713l-.52525.17706c-1.04873.11114-2.09954.1648-3.15359.19564-.33228.0172-.41338-1.54919-.0811-1.56639z" fill="#8b4513"/>
  <path d="m571.31869,746.35449c.99818.43345 2.01682.81109 3.05698,1.12991 1.30641.34269 2.63397.58494 3.93344.95538 .8907.32406.47455.10486 1.2478.65881 .18846.0665-.12503.95491-.31349.88841-.85713-.0206-.43282.0293-1.27286-.15001-1.35405-.26786-2.72326-.47494-4.05093-.86098-1.0941-.33373-2.17083-.72032-3.21355-1.19279-.30308-.12995.30953-1.55869.61261-1.42873z" fill="#8b4513"/>
  <path d="m577.95002,736.48985c.68506-.21773 1.36692-.44505 2.04194-.69221 .58928-.22406 1.17501-.45738 1.76222-.68682 .58208-.22575 1.16895-.43898 1.75742-.64743 .4416-.15915.89167-.29141 1.34877-.3974 .3785-.0867.76591-.11744 1.15077-.16145 .39157-.0494.78407-.0897 1.17772-.11794 .41067-.0324.82244-.0457 1.23413-.0565l1.54798-.0166c.53424-.009 1.06816.009 1.60166.0352 .48463.0196.96946.0334 1.45435.0441 .39158-.002.78158.0341 1.1725.0492 .35113.004.64063.0779.92254.28628 .19648.004.17783.93017-.0186.92622-.28063.20389-.57099.2691-.91795.2678-.39756.008-.7949.0336-1.19267.015-.49494-.011-.98986-.0241-1.48443-.0468-.5089-.0177-1.01775-.0403-1.52714-.0268-.50691.003-1.01381.01-1.52065.0188-.38399.008-.76804.0198-1.15118.0479s-.75374.0695-1.1298.11252c-.32636.0342-.6546.0601-.97656.12599-.39967.0891-.79044.21222-1.17593.34998-.57428.20335-1.14697.41146-1.71595.62927-.59873.23004-1.19508.46637-1.79585.69106-.69722.25108-1.40363.4733-2.11266.68855-.30502.096-.75759-1.34184-.45258-1.43785z" fill="#8b4513"/>
 </g>
 <g transform="translate(-136.03 -230.42)">
  <path d="m641.37 372.13s14.051 18.334 0.36814 28.163 108.66 219.56 38.042 266.56-224.32 45.503-235.73 45.669h-47.676c-11.412-0.16566-165.11 1.3253-235.73-45.669s51.724-256.73 38.042-266.56 0.36814-28.163 0.36814-28.163" fill="none" stroke="#000" stroke-linecap="round" stroke-linejoin="round" stroke-width="5"/>
  <path transform="translate(43.57 2.1144)" d="m597.79 372.5c0 18.284-99.045 33.106-221.22 33.106s-221.22-14.822-221.22-33.106 99.045-33.106 221.22-33.106 221.22 14.822 221.22 33.106z" fill="url(#i)" stroke="#000" stroke-linecap="round" stroke-linejoin="round" stroke-width="5"/>
  <path d="m419.95 371.06c-89.078 0-163.01 8.5811-177.12 19.844 40.159 8.3538 105.64 13.812 179.66 13.812 71.511 0 135.06-5.0912 175.5-12.969-11.418-11.681-86.805-20.688-178.03-20.688z" fill="url(#h)"/>
  <path d="m637.36 403.54c-18.292 3.4716-36.468 7.6622-54.875 10.574-47.95 7.984-96.501 12.622-145.12 13.838-42.375 0.52307-84.841-0.395-126.98-5.2443-35.995-3.9502-71.925-9.7538-106.97-18.741-2.838-0.3994-1.998 3.8129-2.8095 5.5558-4.3591 16.947-11.594 33.079-17.738 49.475-16.452 42.773-33.793 85.775-40.709 131.33-2.5165 19.316-3.5915 40.084 4.956 58.131 6.4284 13.586 20.444 21.044 33.367 27.345 31.935 14.887 66.818 21.9 101.48 27.163 41.918 6.1652 84.363 7.948 126.7 7.7361 40.243 0.20326 80.567-0.0327 120.64-4.198 40.604-4.2421 81.471-10.837 119.57-25.895 12.563-5.3833 25.431-11.003 35.766-20.156 12.27-12.098 15.467-30.233 15.247-46.83 0.0466-21.292-4.5856-42.276-10.064-62.732-12.343-44.248-30.916-86.434-46.522-129.52-2.1148-5.5428-3.5194-11.265-4.5756-17.07-0.20254-0.56847-0.78279-0.87334-1.3732-0.75762z" fill="url(#k)" stroke="#000" stroke-linecap="round" stroke-linejoin="round" stroke-width="2.5254"/>
  <path transform="matrix(1 0 0 .69589 -13.176 116.23)" d="m345.23 391.55a16.628 4.825 0 1 1 -3.3e-4 -0.0304" fill="#ffd700" fill-opacity=".48936" opacity=".511"/>
  <path transform="translate(1.4726 6.6267)" d="m539.86 383.55a17.487 3.0027 0 1 1 -3.4e-4 -0.0189" fill="#ffd700" fill-opacity=".51064" opacity=".511"/>
  <path transform="translate(7.6083 2.2089)" d="m470.95 374.8a23.323 3.4652 0 1 1 -4.7e-4 -0.0218" fill="#ffd700" fill-opacity=".5" opacity=".511"/>
  <path transform="translate(-95.345 12.881)" d="m539.86 383.55a17.487 3.0027 0 1 1 -3.4e-4 -0.0189" fill="#008000" fill-opacity=".53723" opacity=".511"/>
  <path transform="translate(-155.85 -5.8358)" d="m539.86 383.55a17.487 3.0027 0 1 1 -3.4e-4 -0.0189" fill="#008000" fill-opacity=".57447" opacity=".511"/>
  <g transform="matrix(.43989 0 0 .47505 361.88 179.79)">
   <path transform="translate(-1.627 .27334)" d="m436.22 268.54a29.73 24.132 0 1 1 -5.9e-4 -0.15202" fill="url(#a)" opacity=".49712" stroke="url(#b)" stroke-linecap="round" stroke-linejoin="round" stroke-width="1.5"/>
   <path d="m387.72 253.21 14.681-4.7887s-16.084 15.338-13.65 21.022l-10.98 1.7319s2.2542-13.861 9.9495-17.965z" fill="#fffafa" opacity=".91827"/>
   <path d="m423.76 253.11s4.6047 9.4807 4.7291 14.592c0.14651 6.0224-4.7291 17.443-4.7291 17.443s3.2329-4.0088 6.0202-9.5235c2.6118-5.1677 4.225-11.373-6.0202-22.512z" fill="#fffafa"/>
  </g>
  <g transform="translate(-148.63 -13.516)">
   <path transform="translate(-1.627 .27334)" d="m436.22 268.54a29.73 24.132 0 1 1 -5.9e-4 -0.15202" fill="url(#a)" opacity=".49712" stroke="url(#b)" stroke-linecap="round" stroke-linejoin="round" stroke-width="1.5"/>
   <path d="m387.72 253.21 14.681-4.7887s-16.084 15.338-13.65 21.022l-10.98 1.7319s2.2542-13.861 9.9495-17.965z" fill="#fffafa" opacity=".91827"/>
   <path d="m423.76 253.11s4.6047 9.4807 4.7291 14.592c0.14651 6.0224-4.7291 17.443-4.7291 17.443s3.2329-4.0088 6.0202-9.5235c2.6118-5.1677 4.225-11.373-6.0202-22.512z" fill="#fffafa"/>
  </g>
  <path d="m199.98 400.97s188.51 57.752 441.26-0.35143" fill="none" stroke="#000" stroke-width="5"/>
  <path d="m640.87 374.37c0 18.284-99.045 33.106-221.22 33.106s-221.22-14.822-221.22-33.106 99.045-33.106 221.22-33.106 221.22 14.822 221.22 33.106z" fill="none" stroke="#000" stroke-linecap="round" stroke-linejoin="round" stroke-width="5"/>
  <g transform="translate(177.98 66.938)">
   <path transform="translate(-1.627 .27334)" d="m436.22 268.54a29.73 24.132 0 1 1 -5.9e-4 -0.15202" fill="url(#a)" opacity=".49712" stroke="url(#b)" stroke-linecap="round" stroke-linejoin="round" stroke-width="1.5"/>
   <path d="m387.72 253.21 14.681-4.7887s-16.084 15.338-13.65 21.022l-10.98 1.7319s2.2542-13.861 9.9495-17.965z" fill="#fffafa" opacity=".91827"/>
   <path d="m423.76 253.11s4.6047 9.4807 4.7291 14.592c0.14651 6.0224-4.7291 17.443-4.7291 17.443s3.2329-4.0088 6.0202-9.5235c2.6118-5.1677 4.225-11.373-6.0202-22.512z" fill="#fffafa"/>
  </g>
  <path d="m642.18 378.96c-8.7568 8.6387-21.195 11.348-32.673 14.532-36.206 8.4971-73.487 11.435-110.56 13.805-52.49 2.7766-105.14 2.7632-157.63 3e-4 -37.239-2.3351-74.655-5.4767-111.02-13.958-10.132-2.8086-20.911-5.1614-29.389-11.711-1.0829-0.9495-3.4428-3.64-4.4036-1.1996-2.7934 5.817-2.8457 14.144 3.062 18.056 8.8407 3.5642 18.42 5.0723 27.637 7.3867 51.934 11.036 104.93 16.812 157.98 18.498 43.513 0.90333 87.097-0.34016 130.4-4.8668 41.132-4.2644 82.086-10.788 122.36-20.182 4.9786-0.56412 8.2912-5.8738 7.5919-10.654 0.0145-3.3773-0.46701-7.0298-2.5254-9.7701l-0.50359 0.0387-0.31716 0.0244z" fill="url(#j)" opacity=".91827"/>
  <g transform="matrix(.43989 0 0 .47505 122.5 169.46)">
   <path transform="translate(-1.627 .27334)" d="m436.22 268.54a29.73 24.132 0 1 1 -5.9e-4 -0.15202" fill="url(#a)" opacity=".49712" stroke="url(#b)" stroke-linecap="round" stroke-linejoin="round" stroke-width="1.5"/>
   <path d="m387.72 253.21 14.681-4.7887s-16.084 15.338-13.65 21.022l-10.98 1.7319s2.2542-13.861 9.9495-17.965z" fill="#fffafa" opacity=".91827"/>
   <path d="m423.76 253.11s4.6047 9.4807 4.7291 14.592c0.14651 6.0224-4.7291 17.443-4.7291 17.443s3.2329-4.0088 6.0202-9.5235c2.6118-5.1677 4.225-11.373-6.0202-22.512z" fill="#fffafa"/>
  </g>
  <g transform="matrix(.43989 0 0 .47505 102.24 200.25)">
   <path transform="translate(-1.627 .27334)" d="m436.22 268.54a29.73 24.132 0 1 1 -5.9e-4 -0.15202" fill="url(#a)" opacity=".49712" stroke="url(#b)" stroke-linecap="round" stroke-linejoin="round" stroke-width="1.5"/>
   <path d="m387.72 253.21 14.681-4.7887s-16.084 15.338-13.65 21.022l-10.98 1.7319s2.2542-13.861 9.9495-17.965z" fill="#fffafa" opacity=".91827"/>
   <path d="m423.76 253.11s4.6047 9.4807 4.7291 14.592c0.14651 6.0224-4.7291 17.443-4.7291 17.443s3.2329-4.0088 6.0202-9.5235c2.6118-5.1677 4.225-11.373-6.0202-22.512z" fill="#fffafa"/>
  </g>
  <g transform="matrix(.60875 0 0 .65742 339.31 92.587)">
   <path transform="translate(-1.627 .27334)" d="m436.22 268.54a29.73 24.132 0 1 1 -5.9e-4 -0.15202" fill="url(#a)" opacity=".49712" stroke="url(#b)" stroke-linecap="round" stroke-linejoin="round" stroke-width="1.5"/>
   <path d="m387.72 253.21 14.681-4.7887s-16.084 15.338-13.65 21.022l-10.98 1.7319s2.2542-13.861 9.9495-17.965z" fill="#fffafa" opacity=".91827"/>
   <path d="m423.76 253.11s4.6047 9.4807 4.7291 14.592c0.14651 6.0224-4.7291 17.443-4.7291 17.443s3.2329-4.0088 6.0202-9.5235c2.6118-5.1677 4.225-11.373-6.0202-22.512z" fill="#fffafa"/>
  </g>
  <g transform="matrix(.43989 0 0 .47505 212.44 203.18)">
   <path transform="translate(-1.627 .27334)" d="m436.22 268.54a29.73 24.132 0 1 1 -5.9e-4 -0.15202" fill="url(#a)" opacity=".49712" stroke="url(#b)" stroke-linecap="round" stroke-linejoin="round" stroke-width="1.5"/>
   <path d="m387.72 253.21 14.681-4.7887s-16.084 15.338-13.65 21.022l-10.98 1.7319s2.2542-13.861 9.9495-17.965z" fill="#fffafa" opacity=".91827"/>
   <path d="m423.76 253.11s4.6047 9.4807 4.7291 14.592c0.14651 6.0224-4.7291 17.443-4.7291 17.443s3.2329-4.0088 6.0202-9.5235c2.6118-5.1677 4.225-11.373-6.0202-22.512z" fill="#fffafa"/>
  </g>
  <g transform="matrix(1.2897 0 0 -1.2897 -231.84 738.33)" clip-path="url(#c)">
   <path transform="matrix(.43989 0 0 -.47505 225.89 400.05)" d="m436.22 268.54a29.73 24.132 0 1 1 -5.9e-4 -0.15202" fill="url(#a)" opacity=".49712" stroke="url(#b)" stroke-linecap="round" stroke-linejoin="round" stroke-width="1.5"/>
   <path d="m397.16 279.89 6.458 2.2749s-7.0753-7.2865-6.0045-9.9866l-4.8301-0.82273s0.99157 6.5848 4.3766 8.5345z" fill="#fffafa" opacity=".5531"/>
   <path d="m413.01 279.94s2.0256-4.5038 2.0803-6.9321c0.0644-2.861-2.0803-8.2863-2.0803-8.2863s1.4221 1.9044 2.6482 4.5242c1.1489 2.4549 1.8585 5.4029-2.6482 10.694z" fill="#fffafa" opacity=".5531"/>
  </g>
  <g transform="matrix(1.038 0 0 -.89579 -64.73 643.65)" clip-path="url(#c)">
   <path transform="matrix(.43989 0 0 -.47505 225.89 400.05)" d="m436.22 268.54a29.73 24.132 0 1 1 -5.9e-4 -0.15202" fill="url(#a)" opacity=".49712" stroke="url(#b)" stroke-linecap="round" stroke-linejoin="round" stroke-width="1.5"/>
   <path d="m397.16 279.89 6.458 2.2749s-7.0753-7.2865-6.0045-9.9866l-4.8301-0.82273s0.99157 6.5848 4.3766 8.5345z" fill="#fffafa" opacity=".5531"/>
   <path d="m413.01 279.94s2.0256-4.5038 2.0803-6.9321c0.0644-2.861-2.0803-8.2863-2.0803-8.2863s1.4221 1.9044 2.6482 4.5242c1.1489 2.4549 1.8585 5.4029-2.6482 10.694z" fill="#fffafa" opacity=".5531"/>
  </g>
  <g transform="matrix(.90665 0 0 -.81034 29.077 610.5)" clip-path="url(#c)">
   <path transform="matrix(.43989 0 0 -.47505 225.89 400.05)" d="m436.22 268.54a29.73 24.132 0 1 1 -5.9e-4 -0.15202" fill="url(#a)" opacity=".49712" stroke="url(#b)" stroke-linecap="round" stroke-linejoin="round" stroke-width="1.5"/>
   <path d="m397.16 279.89 6.458 2.2749s-7.0753-7.2865-6.0045-9.9866l-4.8301-0.82273s0.99157 6.5848 4.3766 8.5345z" fill="#fffafa" opacity=".5531"/>
   <path d="m413.01 279.94s2.0256-4.5038 2.0803-6.9321c0.0644-2.861-2.0803-8.2863-2.0803-8.2863s1.4221 1.9044 2.6482 4.5242c1.1489 2.4549 1.8585 5.4029-2.6482 10.694z" fill="#fffafa" opacity=".5531"/>
  </g>
  <g transform="matrix(.88524 0 0 -.7027 133.68 577.26)" clip-path="url(#c)">
   <path transform="matrix(.43989 0 0 -.47505 225.89 400.05)" d="m436.22 268.54a29.73 24.132 0 1 1 -5.9e-4 -0.15202" fill="url(#a)" opacity=".49712" stroke="url(#b)" stroke-linecap="round" stroke-linejoin="round" stroke-width="1.5"/>
   <path d="m397.16 279.89 6.458 2.2749s-7.0753-7.2865-6.0045-9.9866l-4.8301-0.82273s0.99157 6.5848 4.3766 8.5345z" fill="#fffafa" opacity=".5531"/>
   <path d="m413.01 279.94s2.0256-4.5038 2.0803-6.9321c0.0644-2.861-2.0803-8.2863-2.0803-8.2863s1.4221 1.9044 2.6482 4.5242c1.1489 2.4549 1.8585 5.4029-2.6482 10.694z" fill="#fffafa" opacity=".5531"/>
  </g>
  <g transform="matrix(.88524 0 0 -.7027 113.39 583.33)" clip-path="url(#c)">
   <path transform="matrix(.43989 0 0 -.47505 225.89 400.05)" d="m436.22 268.54a29.73 24.132 0 1 1 -5.9e-4 -0.15202" fill="url(#a)" opacity=".49712" stroke="url(#b)" stroke-linecap="round" stroke-linejoin="round" stroke-width="1.5"/>
   <path d="m397.16 279.89 6.458 2.2749s-7.0753-7.2865-6.0045-9.9866l-4.8301-0.82273s0.99157 6.5848 4.3766 8.5345z" fill="#fffafa" opacity=".5531"/>
   <path d="m413.01 279.94s2.0256-4.5038 2.0803-6.9321c0.0644-2.861-2.0803-8.2863-2.0803-8.2863s1.4221 1.9044 2.6482 4.5242c1.1489 2.4549 1.8585 5.4029-2.6482 10.694z" fill="#fffafa" opacity=".5531"/>
  </g>
  <g transform="matrix(.88524 0 0 -.7027 135.08 589.33)" clip-path="url(#c)">
   <path transform="matrix(.43989 0 0 -.47505 225.89 400.05)" d="m436.22 268.54a29.73 24.132 0 1 1 -5.9e-4 -0.15202" fill="url(#a)" opacity=".49712" stroke="url(#l)" stroke-linecap="round" stroke-linejoin="round" stroke-width="1.5"/>
   <path d="m397.16 279.89 6.458 2.2749s-7.0753-7.2865-6.0045-9.9866l-4.8301-0.82273s0.99157 6.5848 4.3766 8.5345z" fill="#fffafa" opacity=".5531"/>
   <path d="m413.01 279.94s2.0256-4.5038 2.0803-6.9321c0.0644-2.861-2.0803-8.2863-2.0803-8.2863s1.4221 1.9044 2.6482 4.5242c1.1489 2.4549 1.8585 5.4029-2.6482 10.694z" fill="#fffafa" opacity=".5531"/>
  </g>
  <path d="m603.21 432.45c0.53124 0.97249 1.0452 1.9515 1.5208 2.9524 0.22235 0.38565-1.5956 1.4338-1.818 1.0482-0.64358-0.94235-1.228-1.9148-1.7299-2.9412-0.22472-0.43002 1.8024-1.4894 2.0271-1.0594z"/>
  <path d="m609.68 450.11c0.89541 0.91206 1.6524 1.9401 2.3521 3.0059 0.69385 1.1014 1.3346 2.2352 1.9571 3.3781 0.54295 0.99637 1.031 2.0206 1.5118 3.0479 0.44829 0.95305 0.89703 1.9055 1.3038 2.8771 0.39736 0.96593 0.72838 1.9569 1.0422 2.9525 0.3002 0.97227 0.59773 1.9454 0.89995 2.917 0.34321 1.0641 0.66874 2.1335 0.96739 3.211 0.3331 1.193 0.62479 2.3968 0.90897 3.6022 0.33835 1.4723 0.67974 2.9439 1.0186 4.4161 0.35112 1.5178 0.70716 3.0346 1.0613 4.5517 0.34923 1.5087 0.73322 3.0089 1.1199 4.5083 0.4212 1.6066 0.81618 3.2196 1.1721 4.842 0.39538 1.7898 0.65805 3.6045 0.9339 5.4154 0.20614 1.2573 0.45206 2.5058 0.63384 3.7669 0.0978 0.42919-1.9254 0.89021-2.0232 0.46102-0.39577-1.2706-0.70868-2.5582-0.88009-3.8807-0.27085-1.7621-0.5221-3.5288-0.90582-5.2711-0.34976-1.5957-0.73817-3.1822-1.1519-4.7625-0.38856-1.5165-0.77973-3.0326-1.1297-4.5586l-1.0605-4.5592c-0.33823-1.4696-0.67876-2.9387-1.012-4.4094-0.27277-1.1765-0.55415-2.3511-0.86942-3.5171-0.29204-1.0548-0.61395-2.1005-0.94504-3.1436-0.30139-0.96901-0.59518-1.9404-0.89511-2.9098-0.29298-0.93046-0.60225-1.8564-0.96828-2.7611-0.39376-0.94301-0.83313-1.8654-1.2669-2.7905-0.46202-0.98716-0.92625-1.9739-1.4444-2.9333-0.58799-1.0908-1.1892-2.1754-1.8474-3.2258-0.62121-0.95021-1.2846-1.8731-2.0804-2.6874-0.32732-0.33878 1.2697-1.8818 1.597-1.543z"/>
  <path d="m647.21027,562.75035c.47541,1.43954.92249,2.88826 1.38035,4.33345 .55035,1.73109 1.11985,3.45594 1.70197,5.17658 .56472,1.63341 1.07709,3.28369 1.54263,4.94789 .39151,1.46053.73121,2.9342 1.09896,4.40079 .29588,1.17765.59545,2.35439.88857,3.53272 .28401,1.11439.48603,2.2467.6842,3.37873 .18901,1.14541.3786,2.29071.57262,3.43529 .21299,1.22524.36243,2.4596.48891,3.69632 .10553,1.09922.17035,2.20172.25031,3.30296 .0577.87604.13378,1.75041.24041,2.62185 .11334.91978.2333,1.8387.36518,2.75601 .15597,1.04848.2779,2.10131.38454,3.1558 .14165,1.451.19381,2.90834.23919,4.36486 .0709,2.26345.0183,4.5275-.0656,6.78966-.1325,1.87768.003.93896-.41651,2.81486-.007.25534-1.21041.22348-1.20366-.0319-.322-1.85055-.2149-.92683-.32652-2.77053-.11226-2.24345-.1916-4.48796-.23569-6.73385-.0415-1.40388-.0943-2.80842-.22883-4.20704-.10339-1.02408-.22021-2.04679-.37347-3.06477-.13174-.93356-.25779-1.86787-.37146-2.80383-.10796-.90719-.19078-1.81662-.24823-2.72849-.0784-1.08007-.13955-2.16156-.24357-3.23962-.11889-1.1886-.25795-2.37548-.46465-3.55251-.18872-1.14228-.38022-2.28409-.5674-3.42663-.18158-1.07926-.37747-2.15678-.64313-3.21908-.29277-1.177-.59053-2.35274-.88277-3.52987-.36286-1.44726-.69835-2.90133-1.08123-4.34349-.45469-1.62713-.95637-3.24015-1.50381-4.8386-.58176-1.73531-1.15735-3.47271-1.70308-5.21976-.45254-1.43527-.89251-2.87451-1.35475-4.30669-.14661-.4405 1.92989-1.13164 2.07651-.69115z"/>
  <path d="m643.07 516.37c0.70008 1.175 1.3468 2.3797 1.9618 3.601 0.78002 1.5871 1.4442 3.2269 2.0774 4.8769 0.60622 1.5652 1.0781 3.1749 1.459 4.8082 0.32199 1.4309 0.509 2.8856 0.65543 4.3433 0.0923 0.76035 0.0967 1.5216 0.0817 2.2856 0.0242 0.4479-2.0872 0.56197-2.1114 0.11407-0.0949-0.72369-0.17071-1.4477-0.21925-2.1763-0.13367-1.3621-0.3094-2.7212-0.60612-4.0586-0.35047-1.5336-0.79076-3.044-1.3573-4.5129-0.60497-1.5841-1.2433-3.1565-1.9796-4.6848-0.57712-1.1746-1.184-2.3344-1.8534-3.4596-0.24115-0.40131 1.6506-1.5381 1.8918-1.1368z"/>
  <path d="m608.28782,602.62743c.81076,1.21291 1.53676,2.4791 2.24037,3.75622 .813,1.48624 1.50792,3.03175 2.16712,4.59091 .62864,1.4886 1.11443,3.03053 1.55008,4.58478 .38708,1.41009.69199,2.84056 1.00196,4.26899 .29329,1.31472.50979,2.64399.70092,3.97679 .17375,1.23835.29964,2.48261.44132,3.72485 .1463,1.19436.29409,2.3883.41052,3.58602 .13703,1.52762.19365,3.06078.2407,4.59332 .0516,1.80917.0686,3.61907.0827,5.42885 .004,1.43782.0333,2.87961-.0721,4.31511-.0285.38889-.0126.78801-.11563,1.16408-.11181.40793-.34706.77148-.52059,1.15722-.0161.24442-1.16829.16848-1.15218-.0759-.12225-.39237-.30096-.77144-.36675-1.17711-.0604-.37255-.009-.75481-.008-1.13223 .003-1.41072.0308-2.82158.005-4.23237-.0162-1.79321-.0339-3.58653-.083-5.3792-.0455-1.48412-.0973-2.96894-.23029-4.44832-.11254-1.18487-.261-2.36547-.40516-3.54684-.13907-1.21958-.26185-2.44134-.43621-3.65659-.18844-1.28146-.39499-2.56056-.67733-3.82528-.29797-1.38508-.59599-2.77114-.96837-4.13856-.41014-1.46609-.86735-2.91923-1.45005-4.32734-.61961-1.49217-1.28473-2.96645-2.05988-4.38537-.66616-1.22305-1.35707-2.43329-2.12141-3.5983-.25958-.38744 1.56681-1.61114 1.8264-1.2237z"/>
  <path d="m576.19 470.54c1.2485 1.3055 2.2339 2.8199 3.1887 4.3443 1.3353 2.1887 2.5293 4.4587 3.687 6.7449 1.2112 2.4041 2.3006 4.8658 3.3456 7.3457 0.96478 2.3307 1.8935 4.6761 2.8143 7.0244 0.83341 2.1075 1.6285 4.2296 2.3824 6.3668 0.68706 2.0158 1.3655 4.0346 2.0163 6.0624 0.71594 2.1588 1.2233 4.374 1.6611 6.603 0.40238 2.2054 0.80805 4.4104 1.161 6.6244 0.41269 2.6504 0.5834 5.3286 0.65138 8.0075 0.0248 0.46124-2.1495 0.57809-2.1743 0.11685-0.2142-2.5901-0.37435-5.188-0.77117-7.7588-0.34828-2.1871-0.74805-4.3654-1.1479-6.5436-0.41728-2.1412-0.90336-4.2695-1.5892-6.343-0.6393-2.0079-1.2988-4.0094-1.9843-6.0021-0.74234-2.1126-1.5302-4.2085-2.3518-6.2917-0.9139-2.3308-1.8334-4.6595-2.7918-6.9724-1.0216-2.4315-2.0858-4.8459-3.2724-7.2022-1.1246-2.2266-2.2839-4.4376-3.5727-6.5745-0.87202-1.405-1.7708-2.8053-2.8908-4.0296-0.32294-0.34761 1.3157-1.87 1.6386-1.5224z"/>
  <path d="m593.92815,396.99648c.23998,1.4212.37054,2.85666.46287,4.29398 .0197,1.11593.0769.56235-.17535,1.66034 .0107.35995-1.68609.41048-1.69681.0505-.31835-.99303-.20687-.48152-.3292-1.53567-.13172-1.37913-.25823-2.76001-.48566-4.12753-.0725-.47182 2.15168-.81346 2.22415-.34165z"/>
  <path d="m598.06565,396.24031c.2948.94967.96864,2.35864.86552,3.35324-.0291.28032-.16983.53744-.25474.80616 .0278.3023-1.39724.43335-1.42504.13105-.12756-.19501-.28902-.37167-.38269-.58504-.3441-.78387-.35882-2.0282-.81289-2.83293-.18508-.42635 1.82476-1.29883 2.00984-.87248z"/>
  <path d="m601.42297,393.60723c.47609,1.17739.91473,2.36968 1.34262,3.56531 .39771,1.0362.66801,2.05305.54003,3.16119 .0341.38186-1.766.54277-1.80014.16091-.33215-.84173-.50752-1.73253-.81699-2.58321-.41191-1.16519-.84136-2.32441-1.2946-3.47419-.17608-.43043 1.853-1.26045 2.02908-.83001z"/>
  <path d="m610.31 392.17c0.58183 1.2218 0.88309 2.5141 0.93216 3.859 0.0798 0.38301-1.7257 0.7592-1.8055 0.37618-0.44342-1.0749-0.70403-2.2051-1.149-3.2799-0.20265-0.42902 1.8198-1.3843 2.0224-0.95529z"/>
  <path d="m212.35028,391.79823c-.56804,1.46963-.91071,3.01216-1.18105,4.56035-.11288,1.02518-.0465.52679-.19593,1.49561 .0155.39041-1.82491.4634-1.84039.073-.23442-1.24359-.18371-.60946-.14276-1.90312 .23408-1.73121.6259-3.44031 1.26398-5.07096 .17928-.44466 2.27542.40047 2.09615.84513z"/>
  <path d="m220.50449,396.07301c-.49982,1.1291-.76759,2.33037-.9037,3.55202l-.09.61121c.009.42097-1.97511.4651-1.98447.0441l-.12202-.82984c.0835-1.50347.43856-2.9642 1.04923-4.34461 .20515-.43507 2.25608.53202 2.05093.96709z"/>
  <path d="m261.70638,403.31213c-.56059,1.65239-.83563,3.3802-1.0857,5.10126-.16328,1.27739-.0454.65797-.34518,1.85983-.003.3436-1.62238.33124-1.61976-.0124-.27828-1.38357-.21524-.67554-.17602-2.12522 .21688-1.87934.5428-3.75231 1.14547-5.55078 .15428-.44149 2.23547.2858 2.08119.72728z"/>
  <path d="m268.22154,404.61347c-.16841.99917-.32055,2.0005-.43224,3.00764-.0959.54907.0269.2897-.44572.73655 .0216.25372-1.17448.35544-1.19606.10172-.57695-.58003-.4213-.24075-.51905-.99227 .0437-1.09905.22889-2.18696.44472-3.26443 .0871-.45574 2.23549-.0449 2.14835.41079z"/>
  <path d="m323.58715,417.02287c-.40133,1.2372-.51185,2.53031-.5617,3.82153l-.17969.66145c.0428.32906-1.50841.53093-1.55123.20186l-.37044-.80434c-.12638-1.5708.0671-3.11999.55562-4.62238 .15738-.44706 2.26482.29483 2.10744.74188z"/>
  <path d="m332.02093,410.24029c-.41983,1.66303-.60845,3.37357-.8685,5.06641l-.50597.88506c-.002.19626-.9276.18478-.92517-.0115l-.48275-.98506c-.0523-1.88693.17261-3.75868.67283-5.58244 .13311-.44751 2.24268.18 2.10956.62751z"/>
  <path d="m339.0967,417.63647c-.23644,1.38403-.3613,2.78292-.44028,4.18369-.13165.45839.077.95901-.0343,1.41881-.0561.23167-.20576.43004-.30864.64507 .0315.26717-1.22798.41567-1.25948.14849-.15458-.22353-.36573-.41711-.46376-.67059-.10721-.27723-.12271-1.3632-.13285-1.63317 .0422-1.4958.19586-2.98575.44582-4.46157 .0783-.46531 2.27181-.096 2.19348.36927z"/>
  <path d="m545.5 527.74c0.43149 1.267 1.0109 2.4763 1.587 3.6821 0.85393 1.7287 1.6159 3.4993 2.3588 5.2778 0.80385 1.9424 1.599 3.8885 2.3858 5.8379 0.70303 1.6994 1.3566 3.4176 1.9324 5.1641 0.5062 1.5565 0.8894 3.1482 1.2595 4.7412 0.32071 1.4049 0.6199 2.8145 0.91603 4.2247 0.28958 1.3443 0.5024 2.7029 0.69907 4.0633 0.20532 1.3855 0.35141 2.7786 0.48833 4.1722 0.14404 1.5304 0.30797 3.0587 0.48066 4.586 0.18931 1.6246 0.34865 3.2525 0.51633 4.8794 0.14026 1.2872 0.33044 2.5614 0.10642 3.8438 0.0274 0.36824-1.7085 0.49745-1.7359 0.1292-0.41188-1.2086-0.45025-2.4805-0.59048-3.7442-0.16692-1.6196-0.32739-3.24-0.51396-4.8575-0.17383-1.5376-0.33978-3.076-0.48392-4.6167-0.13582-1.3596-0.27589-2.719-0.47597-4.071-0.19242-1.3146-0.39477-2.6285-0.67629-3.9276-0.2903-1.3952-0.58798-2.7889-0.90215-4.1789-0.35243-1.5286-0.71975-3.0552-1.202-4.5491-0.55698-1.7008-1.1941-3.3721-1.8768-5.0265-0.78596-1.9402-1.5745-3.8794-2.3734-5.8143-0.73119-1.745-1.4733-3.4858-2.3044-5.1862-0.61628-1.3007-1.2311-2.6075-1.6675-3.9822-0.13738-0.43962 1.935-1.0872 2.0724-0.64761z"/>
  <path d="m545.51 481.91c1.1182 1.286 1.8543 2.8188 2.5217 4.3708 0.96929 2.4902 1.697 5.0668 2.2936 7.6691l0.13798 1.3134c0.0867 0.35462-1.585 0.76357-1.6717 0.40895l-0.47412-1.1888c-0.74494-2.4526-1.4116-4.9342-2.3303-7.3296-0.57133-1.3488-1.2006-2.6808-2.1371-3.8214-0.30175-0.35213 1.3582-1.7746 1.6599-1.4224z"/>
  <path d="m547.92 447.17c1.4633 1.9177 2.248 4.2374 3.0704 6.477 0.57926 1.5421 1.0583 3.1083 1.4786 4.6994 0.13508 0.36942-1.6064 1.0062-1.7415 0.63678-0.70403-1.4852-1.3486-2.9884-1.882-4.5453-0.73885-1.9949-1.4317-4.0569-2.6602-5.8152-0.30815-0.36798 1.4265-1.8206 1.7347-1.4526z"/>
  <path d="m195.02 458.42c4.5191 1.3676 17.21 3.1165 31.412 1.6791 4.059-0.41083-39.134 61.188-47.117 145.2-22.061 5.4887-29.293-1.1746-31.412-2.0696-0.80265-22.843 31.032-117.96 47.117-144.81z" fill="#fff" opacity=".5" stroke="#fff"/>
 </g>
 <g transform="matrix(1.1321 0 0 1.1321 -164.59 -309.97)" clip-path="url(#f)">
  <path d="m257.91 719.42 269.15 0.5662 13.645-56.073-20.76 15.424 4.3169-64.332-22.583 40.63 0.45555-42.504-14.73 21.926 6.2693-60.115-20.977 13.569 12.56-42.484-28.201 28.31 11.584-52.774-17.832 25.694-9.1762-29.267-4.881 43.695-12.126-30.907-6.5947 16.498-7.2672-42.367-19.784 32.449-20.088-40.18-7.0719 58.553-23.862-28.251 10.304 52.734-24.318-17.943-1.9524 43.578-16.725-37.818 6.1391 30.067s-14.448-12.515-16.53-14.253 13.341 26.397 13.341 26.397l-36.423-15.854 35.165 44.144-25.056-15.932 14.057 32.8-17.984-16.029 5.6619 27.958-21.91-40.473 15.749 53.437-21.628-25.811 8.764 41.645-13.059-14.311z" fill="#ff4500"/>
  <path d="m268.63 718.74-6.855-17.181 13.667 7.9268-0.39047-20.637 13.927 11.734-8.1349-31.883 11.584 28.954-4.6423-44.261 11.302 11.773-2.7767-26.455 20.695 24.639-18.526-48.791 21.216 16.83-12.3-32.195 21.194 33.113-11.129-33.796 21.454 33.699-8.9809-44.515 28.093 19.622-7.354-53.574 10.955 12.456 7.918 8.7468 4.4037-42.035 17.181 48.869 15.597-59.724s1.8873 71.79 2.5815 68.861 12.387-24.522 12.387-24.522l5.7704 39.4 15.641-63.199 3.6444 17.162 12.669-14.584-5.4667 42.094 19.112-19.856-11.215 32.625 21.454-14.487-4.0349 79.97 17.962-37.877-8.4169 53.711s27.55-44.124 27.615-41.742-7.1153 62.536-5.727 60.505 21.259-25.049 21.259-25.049l-13.124 45.569z" fill="#ffa500" opacity=".34135"/>
  <path d="m275.76 720.46-4.7942-7.5949 12.474 6.6772-3.0587-15.541 17.181 14.253-5.51-47.072 10.673 8.2977 1.345-21.457 17.897 28.935-1.2799-23.448 7.9397 3.8462-13.732-29.364 17.745 19.583-0.0434-20.891 14.773 16.439-6.5079-45.999 18.938 19.29 0.0434-12.613s-4.946-4.6662 0 0 15.576 13.003 15.576 13.003l-15.055-43.734 20.131 31.863-1.4968-49.318 12.408 47.892 11.606-54.882 0.0434 62.906 12.517-28.583 13.884 32.566 17.051-57.967s-4.9677 65.952-3.3841 63.199 12.972-29.872 12.972-29.872-0.17354 46.057 0.60741 43.461 22.973-51.036 22.973-51.036l-5.1196 84.539 10.847-13.179 0.99788 31.258 18.851-33.132-3.7963 45.042 15.445-6.3063-10.803 18.606z" fill="#ffa500" opacity=".54808"/>
  <path d="m310.45 719.19-9.0677-26.143s12.951 12.613 13.038 10.211-4.664-22.863-4.664-22.863l18.634 20.617-0.43386-25.401 18.678 12.222-11.28-31.375 22.17 27.627-5.6836-52.988s19.285 51.739 19.676 48.908-1.909-43.343-1.909-43.343l14.274 11.617-3.254-30.497 14.404 32.195s-1.6921-35.592 0.17354-32.82 12.083 37.935 13.645 33.347 5.4233-46.038 5.5751-43.519 9.7836 50.743 9.7836 50.743l9.5884-31.317 7.8746 15.092 10.413-22.511s0.13016 30.497-0.41217 37.974 19.979-22.023 19.979-22.023l-4.5338 44.085 5.8571-3.8072-1.5185 13.472 9.6968-14.858-1.7788 33.269 18.83-21.691-5.163 31.238 17.246-9.0396-10.391 13.667z" fill="#ffa500" opacity=".71154"/>
  <path d="m322.77 721.32-5.445-21.828s15.402 16.224 15.836 13.94 1.3233-21.555 1.3233-21.555l18.005 17.357 2.755-21.847 3.9048 27.021 8.7206-32.781 2.6466 27.217 12.604-15.229-0.39048 23.585 6.855-12.027-1.3667 16.693z" fill="#ffd700"/>
  <path d="m417.62 720.24-15.012-47.561 16.704 22.96-5.163-38.931s6.4212 23.409 7.7878 20.539 11.237-25.713 11.237-25.713l4.1 36.159 9.7402-26.807s-1.3667 33.562 0.71587 30.438 17.224-39.029 17.224-39.029l-1.1714 33.523 7.2238-6.1306-2.4513 23.858 8.5688-17.728 0.15185 28.798 12.69-10.816-4.3603 17.982z" fill="#ffd700"/>
 </g>
 <g transform="matrix(1.1321 0 0 1.1321 -164.34 -310.34)" clip-path="url(#f)" fill="url(#g)">
  <path d="m257.91 719.42 269.15 0.5662 13.645-56.073-20.76 15.424 4.3169-64.332-22.583 40.63 0.45555-42.504-14.73 21.926 6.2693-60.115-20.977 13.569 12.56-42.484-28.201 28.31 11.584-52.774-17.832 25.694-9.1762-29.267-4.881 43.695-12.126-30.907-6.5947 16.498-7.2672-42.367-19.784 32.449-20.088-40.18-7.0719 58.553-23.862-28.251 10.304 52.734-24.318-17.943-1.9524 43.578-16.725-37.818 6.1391 30.067s-14.448-12.515-16.53-14.253 13.341 26.397 13.341 26.397l-36.423-15.854 35.165 44.144-25.056-15.932 14.057 32.8-17.984-16.029 5.6619 27.958-21.91-40.473 15.749 53.437-21.628-25.811 8.764 41.645-13.059-14.311z"/>
  <path d="m268.63 718.74-6.855-17.181 13.667 7.9268-0.39047-20.637 13.927 11.734-8.1349-31.883 11.584 28.954-4.6423-44.261 11.302 11.773-2.7767-26.455 20.695 24.639-18.526-48.791 21.216 16.83-12.3-32.195 21.194 33.113-11.129-33.796 21.454 33.699-8.9809-44.515 28.093 19.622-7.354-53.574 10.955 12.456 7.918 8.7468 4.4037-42.035 17.181 48.869 15.597-59.724s1.8873 71.79 2.5815 68.861 12.387-24.522 12.387-24.522l5.7704 39.4 15.641-63.199 3.6444 17.162 12.669-14.584-5.4667 42.094 19.112-19.856-11.215 32.625 21.454-14.487-4.0349 79.97 17.962-37.877-8.4169 53.711s27.55-44.124 27.615-41.742-7.1153 62.536-5.727 60.505 21.259-25.049 21.259-25.049l-13.124 45.569z" opacity=".34135"/>
  <path d="m275.76 720.46-4.7942-7.5949 12.474 6.6772-3.0587-15.541 17.181 14.253-5.51-47.072 10.673 8.2977 1.345-21.457 17.897 28.935-1.2799-23.448 7.9397 3.8462-13.732-29.364 17.745 19.583-0.0434-20.891 14.773 16.439-6.5079-45.999 18.938 19.29 0.0434-12.613s-4.946-4.6662 0 0 15.576 13.003 15.576 13.003l-15.055-43.734 20.131 31.863-1.4968-49.318 12.408 47.892 11.606-54.882 0.0434 62.906 12.517-28.583 13.884 32.566 17.051-57.967s-4.9677 65.952-3.3841 63.199 12.972-29.872 12.972-29.872-0.17354 46.057 0.60741 43.461 22.973-51.036 22.973-51.036l-5.1196 84.539 10.847-13.179 0.99788 31.258 18.851-33.132-3.7963 45.042 15.445-6.3063-10.803 18.606z" opacity=".54808"/>
  <path d="m310.45 719.19-9.0677-26.143s12.951 12.613 13.038 10.211-4.664-22.863-4.664-22.863l18.634 20.617-0.43386-25.401 18.678 12.222-11.28-31.375 22.17 27.627-5.6836-52.988s19.285 51.739 19.676 48.908-1.909-43.343-1.909-43.343l14.274 11.617-3.254-30.497 14.404 32.195s-1.6921-35.592 0.17354-32.82 12.083 37.935 13.645 33.347 5.4233-46.038 5.5751-43.519 9.7836 50.743 9.7836 50.743l9.5884-31.317 7.8746 15.092 10.413-22.511s0.13016 30.497-0.41217 37.974 19.979-22.023 19.979-22.023l-4.5338 44.085 5.8571-3.8072-1.5185 13.472 9.6968-14.858-1.7788 33.269 18.83-21.691-5.163 31.238 17.246-9.0396-10.391 13.667z" opacity=".71154"/>
  <path d="m322.77 721.32-5.445-21.828s15.402 16.224 15.836 13.94 1.3233-21.555 1.3233-21.555l18.005 17.357 2.755-21.847 3.9048 27.021 8.7206-32.781 2.6466 27.217 12.604-15.229-0.39048 23.585 6.855-12.027-1.3667 16.693z"/>
  <path d="m417.62 720.24-15.012-47.561 16.704 22.96-5.163-38.931s6.4212 23.409 7.7878 20.539 11.237-25.713 11.237-25.713l4.1 36.159 9.7402-26.807s-1.3667 33.562 0.71587 30.438 17.224-39.029 17.224-39.029l-1.1714 33.523 7.2238-6.1306-2.4513 23.858 8.5688-17.728 0.15185 28.798 12.69-10.816-4.3603 17.982z"/>
 </g>
</svg>
