<?xml version='1.0' encoding='utf-8'?>
<svg xmlns="http://www.w3.org/2000/svg" enable-background="new 0 0 2000 2000" version="1.1" viewBox="0 0 2e3 2e3"> <style type="text/css"> .st0{fill:#507352;} .st1{fill:#E9BF83;} .st2{fill:#864E41;} .st3{fill:#647D36;} .st4{fill:#69312A;} .st5{fill:#F2CF9B;} .st6{fill:#F9AA07;} .st7{fill:#284D33;} .st8{fill:#B4782E;} .st9{fill:#DAA658;} .st10{fill:#96B84F;} .st11{fill:#729375;} .st12{fill:#D8A253;} .st13{fill:#F9E9D5;} .st14{fill:#B43936;} .st15{fill:#E8BB7F;} .st16{fill:#BC8230;} .st17{fill:#DFAC62;} .st18{fill:#F1D0A0;} .st19{fill:#E24A4C;} .st20{fill:#CF9542;} .st21{fill:#FBC253;} .st22{fill:#F1CC9A;} .st23{fill:#885041;} .st24{fill:#F4D8AE;} .st25{fill:#9CBC50;} .st26{fill:#6A8B6B;} .st27{fill:#F99F9B;} .st28{fill:#C9DD7F;} .st29{fill:#FDFDFD;} </style> <path class="st0" d="m801.5 886.14c-2.56-17.75-4.79-35.55-7.73-53.23-12.58-75.72-25.37-151.41-38.08-227.11-1.14-6.77-2.21-13.55-1.72-21.1 20.25 32.81 40.5 65.63 60.75 98.44 0.72-0.24 1.45-0.47 2.17-0.71-15.59-78.7-31.17-157.41-46.76-236.11 41.73 76.35 76.36 155.7 107.79 236.91 1.24-25.02 2.48-50.05 3.72-75.07 0.5-0.14 1-0.29 1.5-0.43 3.79 12.43 7.58 24.86 11.36 37.29 0.23 0.9 0.46 1.79 0.69 2.69l-0.45 0.03c-0.01 1.47-0.26 2.98-0.01 4.4 9.23 52.63 18.57 105.25 27.71 157.9 1.33 7.64 1.71 15.44 2.53 23.16-6.76-7.76-13.52-15.52-20.7-23.75-3.26 3.97-5.21 6.33-6.07 7.38 9 9.73 17.35 18.76 25.7 27.78-0.15 0.16-0.46 0.42-0.43 0.46 0.22 0.31 0.49 0.59 0.75 0.87l-0.02-0.09-3 26.85 0.02-0.09h-7.03c1.26 0.96 1.8 1.36 2.33 1.77-8.4 5.21-16.8 10.42-25.2 15.64-1.45 0.76-3.06 1.32-4.33 2.31-11.88 9.3-21.97 20.16-29.22 33.51-4.97-6-9.57-12.48-18.14-13.71-7.92-1.14-15.94-3.68-23.38 1.71-3.03 0.9-6.06 1.79-9.08 2.69-0.03-2.82-0.07-5.64-0.1-8.46 0.78-8.01 0.44-15.69-5.57-21.93z"/> <path class="st1" d="m722.59 1416.6c-5.83-10.7-12.05-21.22-17.41-32.15-12.24-24.99-24.07-50.19-36.02-75.32-0.51-1.07-0.51-2.37-0.74-3.57 1.97-1.91 3.67-4.93 5.98-5.5 5.28-1.31 10.85-1.42 16.3-2.02l25.05-1.41c0.51-0.02 1.01-0.04 1.52-0.06 7.34-0.05 14.69-0.1 22.03-0.15l1.65-1.17c16.16 0.35 32.31 0.7 48.47 1.05 4.84-0.35 9.71-1.2 14.53-0.97 14.13 0.68 28.23 1.97 42.36 2.7 21.96 1.13 43.93 1.98 65.9 2.95 18.77 1.49 37.52 3.39 56.32 4.35 20.1 1.03 40.25 1.17 60.37 1.7 0.51 14.46 1.09 28.91 1.53 43.37 0.6 19.87 1.07 39.74 1.71 59.61 0.08 2.65 0.82 5.28 1.25 7.92 0.87-0.04 1.74-0.08 2.62-0.11 1.69-37.41 3.37-74.82 5.06-112.23 8.54-0.53 17.19-0.38 25.59-1.77 9.31-1.55 19.18-2.96 27.37-7.21 11.52-5.98 21.71-14.51 32.47-21.95 1.02-0.13 2.04-0.26 3.06-0.4 12.79 0.54 19.11-3.25 20.37-12.71 3.22-24.24 6.25-48.51 9.35-72.77 1.71-0.57 4-2.16 5.04-1.56 7.31 4.18 14.36 8.81 21.5 13.29-0.06 20.22-0.12 40.45-0.18 60.67-0.5 4.43-1.01 8.86-1.51 13.28-0.46 1.98-0.91 3.95-1.37 5.93-2.92 14.77-5.45 29.63-8.87 44.28-2.98 12.74-9.3 24.05-17.94 33.86-5.07 5.75-10.78 10.93-16.2 16.37 0.3-3.42 0.48-6.85 0.92-10.25 1.24-9.76 2.86-19.48 3.79-29.27 0.72-7.65-3.57-13.03-10.69-13.13-19.94-0.29-39.88-0.29-59.82-0.01-6.37 0.09-10.85 3.75-11.13 10.51-0.5 12.04-0.54 24.09-0.77 36.14-0.3 7.07-0.7 14.14-0.89 21.21-0.31 11.34 5.34 17.12 16.82 17.27 9.78 0.13 19.55 0.16 29.33 0.23-6.74 2.89-13.23 6.84-20.27 8.48-36.48 8.49-73.8 9.45-110.96 10.32-43.06 1.01-86.16 0.02-129.24 0.36-40.05 0.32-79.93-0.48-118.97-10.99-1.58-0.44-3.52 0.52-5.28 0.83zm-1.04-78.53c5.95 19.12 11.65 38.32 17.97 57.32 2.26 6.81 7.15 11.87 15.08 11.97 11.04 0.13 22.09 0.07 33.12-0.26 7.27-0.22 12.19-6 10.49-12.89-4.51-18.29-9.54-36.45-14.36-54.66-1.23-11.46-4.98-16.8-12.69-16.91-13.49-0.2-26.99-0.28-40.47 0.17-11.16 0.36-13.54 4.75-9.14 15.26zm103.54 2.9c0.04 1.72-0.3 3.54 0.17 5.13 5.03 16.85 9.97 33.73 15.41 50.45 2.07 6.36 7.3 10 14.01 10.25 11.01 0.4 22.05 0.36 33.07 0.29 10.83-0.06 15.82-6.23 13.67-16.66-3.81-18.49-7.66-36.96-11.49-55.44-3.59-11.46-4.64-12.22-17.11-12.22-12-0.01-24-0.01-36 0.01-13.85 0.03-17.23 5.29-11.73 18.19zm188.43-4.48c-0.4-8.97-3.34-13.36-10.16-13.43-20.39-0.21-40.79-0.15-61.18 0.06-6.17 0.06-9.45 3.93-9.38 9.99 0.04 3.63 1.01 7.24 1.57 10.86 2.04 17.06 3.66 34.19 6.31 51.15 1.08 6.89 6.5 11.04 13.8 11.1 15.76 0.13 31.52 0.09 47.27-0.17 7.13-0.12 12.4-4.89 12.43-12.02 0.1-19.18-0.4-38.36-0.66-57.54zm-195.1 63.36c1.02-3.07 1.96-4.43 1.81-5.66-2.19-18.06-7.02-35.4-15.2-51.67-1.2-2.39-4.14-3.91-6.27-5.83-1.08 2.71-3.29 5.53-3.05 8.11 1.9 19.95 10.32 37.3 22.71 55.05z"/> <path class="st2" d="m641.92 1507.9c-9.76-0.41-19.6-1.75-29.28-1.03-21.64 1.6-34.48-16.67-34.58-31.31-0.12-19.59 12.57-32.23 33.71-32.69 48.39-1.06 96.78-2.01 145.16-3 5.99 0.09 11.99 0.18 17.98 0.26 20.79 5.46 41.47 11.38 62.4 16.26 24.99 5.83 50.03 11.69 75.33 15.84 27.95 4.58 56.16 7.75 84.36 10.57 26.28 2.63 52.68 5.15 79.06 5.63 36.11 0.65 72.26-0.44 108.39-1.23 26.48-0.58 52.95-1.98 79.43-2.83 34.35-1.1 68.7-2.02 103.06-3.03 16.44-0.49 32.88-0.83 49.31-1.62 7.3-0.35 14.55-2.24 21.83-2.35 15.01-0.24 30.31-4.22 44.94 2.41 12.97 5.88 25.84 11.95 33.65 24.85h-44.15c-0.57 9.96-1.02 17.91-1.47 25.87v-22.58c-277.34-0.02-553.24-0.02-829.13-0.02z"/> <path class="st3" d="m1134.1 875.23c-0.19-9.94 2.33-12.71 14.82-16.28 4.84-20.24 17.02-27.01 40.48-21.85 5.27-9.68 13.64-13.81 25.54-10.79 2.86-15.39 11.48-25.9 26.31-30.88 14.49-4.87 28.13-2.68 41 5.38 6.12-26.34 28.44-40.2 64.29-20.7 6.31-4.67 11.51-9.97 17.83-12.8 7.17-3.21 14.47-0.52 19.79 4.15 5.35-2.12 10.16-5.39 15.07-5.57 4.87-0.18 9.85 2.75 16.64 4.91 12.12-7.15 27.43-11.6 43.68-7.57 7.36 1.83 14.26 6.17 20.88 10.18 6.37 3.85 11.81 9.25 18.19 13.09 23.37 14.05 32.61 38.15 24.13 64.02-0.3 0.93-0.44 1.91-0.82 3.6 10.23 5.77 17.2 14.14 16.73 27.27 13.44-2.62 24.76-0.54 32.49 10.95 5.07 7.54 4.87 13.87-0.11 23.58 18.96 19.61 19.35 29.65 2.88 46.44 3.87 4.45 8.01 8.68 11.53 13.38 8.05 10.74 9.97 22.72 3.74 34.67-4.13 7.93-4.64 14.31-0.07 22.36 5.1 8.98 5.5 19.25 2.44 29.38-5.58 18.5-21.87 27.28-40.39 21.76-1.85-0.55-3.71-1.09-3.97-0.21-5.31 7.98-10.61 15.97-15.92 23.95-0.89-0.98-2.29-1.81-2.61-2.94-4.33-15.63-13.45-23.09-29.94-24.28-2.16-9.93-4.28-19.86-6.52-29.77-0.62-2.73-1.58-5.38-2.38-8.07 1.42-1.34 3.07-2.5 4.23-4.03 9.38-12.48 9.1-28.83-1.07-43.91-2.61-3.87-2.51-6.83-1.23-11.36 1.71-6.05 0.93-12.8 1.22-19.25 3.36-2.57 6.61-5.29 10.09-7.67 10.79-7.35 12.29-20.12 3.2-29.73-3.61-3.81-7.42-5.39-11.76-0.47-1.99 2.26-4.9 3.72-7.39 5.54 1.89-3.11 3.53-6.4 5.7-9.29 7.82-10.43 8.07-20.94 0.66-31.75-0.89-1.29-1.7-3.05-1.62-4.53 1.23-21.76-6.31-31.93-27.79-37.99-2.09-0.59-4.75-3.41-5.03-5.48-2.13-15.73-14.87-31.47-34.28-29.53-2.33 0.23-5.8-1.29-7.22-3.16-10.73-14.1-33.29-19.24-49.15-11.26-2.82 1.42-6.8 1.61-9.99 1.02-16.91-3.16-32.51-1.51-44.56 12.11-3.6 4.07-5.57 9.57-8.28 14.41-27.75-12.42-50.14-2.98-63.42 15.18-14.29-8.07-26.55-4.19-37.17 7.42-3.52 0.97-7.05 1.95-10.57 2.92-22.73 0.99-41.44 12.42-60.3 23.45z"/> <path class="st4" d="m1516.7 1504.6c-7.81-12.89-20.68-18.97-33.65-24.85-14.63-6.63-29.93-2.65-44.94-2.41-7.29 0.11-14.53 2-21.83 2.35-16.42 0.78-32.87 1.13-49.31 1.62-34.35 1.02-68.71 1.93-103.06 3.03-26.48 0.85-52.94 2.25-79.43 2.83-36.12 0.79-72.28 1.88-108.39 1.23-26.38-0.48-52.77-3-79.06-5.63-28.19-2.82-56.41-5.99-84.36-10.57-25.3-4.15-50.34-10.01-75.33-15.84-20.93-4.88-41.61-10.8-62.4-16.26l36.78-0.42c2.21 0.1 4.42 0.28 6.63 0.28 157.75 0.02 315.49 0.01 473.24 0.04 5.02 0 10.05 0.25 15.07 0.38 1.59 0.04 3.19 0.08 4.78 0.12 1.17 0.26 2.34 0.76 3.51 0.76 69.21-0.01 138.43-0.07 207.64-0.12 15.23 3.58 24.68 15.23 24.69 30.4 0 15.74-10.07 28.13-26.04 32.01-0.52 0.16-1.04 0.33-1.55 0.49-1.01 0.19-2 0.37-2.99 0.56z"/> <path class="st2" d="m1469.4 1534.5c-5.27 12.71-15.28 17.89-28.51 17.9-38.4 0.05-76.8 0.07-115.2 0.13-216.38 0.36-432.75 0.74-649.13 1.11-1.72 0-3.45 0.02-5.17 0-19.47-0.31-30.7-12.87-29.09-32.54 39.09 0.5 78.18 1.14 117.27 1.48 69.62 0.6 139.24 0.95 208.86 1.55 39.83 0.34 79.66 0.97 119.49 1.43 46.23 0.53 92.46 0.93 138.69 1.56 17.43 0.23 34.85 0.95 52.28 1.4 39.77 1.01 79.55 2.01 119.32 2.99 21.61 0.53 43.22 0.97 64.83 1.56 2.12 0.05 4.24 0.93 6.36 1.43z"/> <path class="st3" d="m477.21 944.03c-8.28-5.86-16.95-11.26-24.73-17.73-6.64-5.51-11.29-13.02-7.82-22.03 3.32-8.62 11.39-10.72 19.82-11.34 8.3-1.47 13.1 3.73 18.85 8.61 18.3 15.51 37.12 30.42 56.03 45.19 28.93 22.61 60.65 40.7 93.91 56.02 31.99 14.74 65.64 24.62 100.27 30.7 19.22 3.38 38.75 4.98 58.14 7.38-0.87 4.99-1.73 9.97-2.59 14.96-0.76 1.59-2.12 3.15-2.18 4.77-0.24 6.34-0.08 12.69-0.06 19.04-0.12 0.23-0.18 0.48-0.18 0.74-0.48 0.11-0.96 0.32-1.44 0.32-62.25-0.03-124.5-0.04-186.74-0.24-3.23-0.01-6.45-1.73-9.68-2.65-12.63-9.26-24.94-19.02-37.96-27.69-36.04-24-75.66-40.73-115.88-56.22-6.37-2.45-12.49-5.82-18.27-9.47-8.37-5.29-11.59-12.53-9.71-19.71 1.69-6.46 9.79-11.74 19.11-12.47 0.57 0.78 0.99 1.78 1.74 2.3 40.63 27.8 82.8 52.74 129.43 69.31 21.94 7.8 43.91 15.51 65.97 22.94 14.55 4.9 29.28 9.23 43.93 13.82-0.1-2.09-0.69-3.15-1.59-3.8-20.25-14.68-39.93-30.26-60.96-43.73-29.29-18.77-59.32-36.46-89.62-53.55-11.75-6.64-25.14-10.4-37.79-15.47z"/> <path class="st5" d="m1020.1 705.4c0.98-0.02 1.95-0.03 2.93-0.05 10.39 0.16 20.79 0.32 31.18 0.48 0.42 4.37 0.97 8.74 1.23 13.12 2 34.51 5.6 69.03 5.6 103.55-0.01 94.2-1.53 188.4-2.51 282.6-0.16 15.8-10.42 26.42-26.47 27.81-4.02-0.15-8.03-0.31-12.05-0.46-2.41-17.39-5.87-34.71-6.98-52.18-1.52-23.99-1.29-48.1-1.76-72.16-0.11-5.66 0.03-11.32-0.05-16.98-0.45-33.66-1.15-67.31-1.31-100.96-0.08-17.01 0.99-34.03 1.23-51.05 0.25-17.71-0.06-35.43 0.24-53.14 0.17-10.04 0.9-20.07 1.65-30.09 1.21-16.32 2.65-32.62 3.99-48.93l0.07-0.06c0.99-0.5 2-1 3.01-1.5zm16.39 383.01c-8.09 0.16-14.65 6.18-14.65 13.45 0 7.77 6.85 14.14 14.96 13.9 7.85-0.23 14.22-6.49 14.21-13.96-0.01-7.49-6.58-13.55-14.52-13.39z"/> <path class="st6" d="m1134.1 875.23c18.86-11.03 37.57-22.46 60.33-23.45-0.71 0.64-1.54 1.18-2.1 1.92-3.2 4.34-8.79 8.78-8.72 13.1 0.06 3.45 6.62 8.85 11.04 9.74 9.33 1.9 19.15 1.86 28.77 1.8 10.88-0.08 15.54-4.36 18.44-14.94 0.31-1.13 1.79-1.95 2.73-2.91 8.32 0.66 15.98-4.22 25.16-0.39 8.31 3.47 13.39 6.88 13.38 16.91-10.07-7.95-23.43-8.86-32.85-1.61-9.12 7.02-17.66 14.67-21.84 25.99-5.99 16.18-7.73 32.23 0.88 48.1 8.22 15.16 21.42 20.2 36.53 12.03 6.99-3.78 12.77-10.59 17.79-17.05 11.53-14.81 16.63-30.82 5.17-48.33 5.44-5.95 10.97-11.8 9.39-20.98-0.14-0.79 1.71-1.92 2.63-2.88 11.34 2.17 20.07 13.63 17.42 22.85-2.7 9.41 1.33 17.18 10.91 18.16 5.25 0.54 7.25 3.23 9 6.82 1.77 3.64 2.82 7.64 4.18 11.48 1.97 5.57 3.95 11.14 5.92 16.7-7.92 4.49-16.8 7.87-23.53 13.74-11.13 9.71-21.86 20.25-30.92 31.88-8.72 11.19-15.11 24.2-22.53 36.41-4.15 5.11-8.3 10.21-13.11 16.11 0.94-42.9-14.23-68.79-45.76-79.43-1.31-0.95-2.5-2.35-3.96-2.79-10.37-3.12-20.8-6.05-31.84-9.23 3.79-11.31 7.76-22.76 11.38-34.32 0.67-2.14 0.7-6.39-0.26-6.83-8.26-3.75-16.82-6.84-25.3-10.13-0.9 0.58-1.8 1.16-2.69 1.74v47.29h-36.31c-5.48 0.82-10.98 1.48-16.43 2.48-11.59 2.14-20.99 7.84-27.8 17.59-0.47 0.15-0.92 0.31-1.38 0.49-0.49 0.42-0.99 0.85-1.48 1.27-0.55 0.44-1.1 0.87-1.65 1.31-0.39-11.11-0.95-22.23-1.07-33.34-0.05-4.63 0.84-9.28 1.3-13.91 10.37-10.95 20.73-21.89 31.1-32.84 9.37-6.86 18.73-13.71 28.08-20.55z"/> <path class="st7" d="m924.97 833.18c-0.82-7.72-1.21-15.52-2.53-23.16-9.14-52.65-18.48-105.26-27.71-157.9-0.25-1.42-0.01-2.93 0.01-4.4 6.81 18.39 13.62 36.78 20.43 55.17 2.91 8.96 5.83 17.91 9.27 28.48 1.39-4.08 2.34-6.49 3.03-8.98 13.06-46.79 19.91-94.54 21.61-143.04 0.52-14.96 0.05-29.95 0.21-44.93 0.03-2.55 0.91-5.09 1.4-7.63 7.39 48.15 13.84 96.46 22.46 144.39 7.27 40.39 17.07 80.32 25.75 120.46 0.19 0.85 0.39 1.71 0.58 2.56 0.5 2.46 1 4.92 1.5 7.39 0.03 9.79 0.2 19.59 0.06 29.38-0.25 17.1-0.7 34.2-1.07 51.3-17.34-11.08-36.74-13.03-56.64-12.8-6.12-12.1-12.24-24.2-18.36-36.29z"/> <path class="st8" d="m1306.6 1440.4c-5.02-0.13-10.05-0.38-15.07-0.38-157.75-0.02-315.49-0.02-473.24-0.04-2.21 0-4.42-0.18-6.63-0.28 0.1-0.36 0.17-0.73 0.2-1.11 95.47-0.09 190.95-0.19 286.42-0.28 6.49-0.01 12.99-0.02 19.48-0.03 3.84 0 7.68-0.01 11.52-0.01 21.21-0.47 42.42-0.94 63.64-1.41 14.31-1.68 28.64-3.15 42.91-5.09 14.52-1.97 29.07-3.89 43.42-6.77 16.29-3.27 32.52-6.79 47.24-15.39 20.69-12.09 33.2-31.14 43.8-51.41 20.77-39.74 36.09-81.63 43.64-125.93 3.4-19.95 4.42-40.31 6.59-60.47 0.55-5.09-1.35-6.82-6.59-6.83-9.79-0.01-19.57-0.98-29.36-1.27-20.37-0.6-40.74-1.28-61.11-1.47-67.13-0.63-134.27-1.07-201.41-1.58 0.02-4.45-1.66-6.7-6.76-5.18 0.85 1.91 1.58 3.54 2.31 5.18-4.92 0.49-9.84 0.98-14.77 1.47-2.95-0.1-5.89-0.21-8.84-0.31-7.95-0.3-15.9-0.59-23.86-0.89-10.08 0.04-20.15 0.08-30.23 0.12-29.21 0.12-58.42 0.25-87.63 0.38 2.58-0.74 5.16-2.1 7.74-2.11 34.19-0.14 68.38-0.08 102.57-0.13 2.17 0 6.08-0.04 6.23-0.72 1.65-7.52 8.45-3.94 12.59-5.96-0.26-2.36-0.49-4.51-0.72-6.67 38.31-0.43 76.63-1.16 114.94-1.24 93.93-0.19 187.87-0.1 281.8 0.03 2.71 0 5.41 1.7 8.12 2.6-19.19 38.98-38.38 77.95-57.56 116.93-24.05 48.89-48.07 97.79-72.12 146.68-6.41 13.03-18.78 18.1-31.18 23-5.95 2.36-12.04 4.39-18.08 6.57z"/> <path class="st9" d="m1485.6 1147.2c-2.71-0.91-5.41-2.6-8.12-2.6-93.93-0.13-187.87-0.22-281.8-0.03-38.31 0.08-76.63 0.81-114.94 1.24l-0.01-0.38c-2.35-5.26-6.31-5.63-10.36-0.97-0.98-0.01-1.96-0.01-2.94-0.02-1.48-2.47-2.97-4.95-4.45-7.42 2.02-0.51 4.05-1.01 6.07-1.52 2.84 0.49 5.73 1.57 8.52 1.36 16.32-1.23 32.59-3.03 48.92-4.14 31.99-2.16 64.07-3.2 95.98-6.19 30.35-2.85 60.72-6.49 90.73-11.8 33.81-5.98 66.15-17.39 97.13-32.37 25.91-0.01 51.81 0.01 77.72-0.08 2.58-0.01 5.15-0.75 7.73-1.15 0.99-0.24 1.99-0.49 2.98-0.73 16.49 1.19 25.61 8.65 29.94 24.28 0.31 1.14 1.71 1.97 2.61 2.95-0.56 2.33-1.29 4.64-1.66 7-2.99 18.81-15.72 29.67-34.76 29.99-3.11 0.06-6.19 1.68-9.29 2.58z"/> <path class="st4" d="m1469.4 1534.5c-2.12-0.5-4.24-1.38-6.37-1.44-21.61-0.6-43.22-1.03-64.83-1.56-39.77-0.98-79.55-1.97-119.32-2.99-17.43-0.44-34.85-1.16-52.28-1.4-46.23-0.62-92.46-1.03-138.69-1.56-39.83-0.46-79.66-1.09-119.49-1.43-69.62-0.59-139.24-0.94-208.86-1.55-39.09-0.34-78.18-0.98-117.27-1.48 0.01-2.93 0.01-5.86 0.02-8.79 0.16-0.15 0.49-0.35 0.46-0.43-0.12-0.37-0.35-0.7-0.53-1.05-0.11-0.99-0.21-1.98-0.32-2.97h829.13v22.58c-0.55 1.36-1.1 2.72-1.65 4.07z"/> <path class="st10" d="m791.7 1040.8c-19.39-2.4-38.93-4-58.15-7.38-34.63-6.09-68.28-15.97-100.27-30.7-33.26-15.32-64.98-33.41-93.91-56.02-18.91-14.78-37.73-29.68-56.03-45.19-5.76-4.88-10.56-10.07-18.85-8.61 8.78 0.22 17.75-0.68 26.29 0.85 51.6 9.2 100.59 26.63 148.1 48.46 0.44 0.2 0.79 0.58 1.18 0.87 6.87 3.11 13.75 6.23 20.63 9.34 5.71 3.4 11.42 6.79 17.13 10.19 13.55 7.34 27.11 14.67 40.66 22.01 4.08 2.5 8.17 5 12.25 7.5 2.84 1.7 5.7 3.37 8.51 5.11 8.95 5.54 17.88 11.11 26.82 16.68 9.87 5.6 19.74 11.21 29.61 16.81-1.32 3.36-2.65 6.72-3.97 10.08z"/> <path class="st11" d="m613.89 697.31c-4.1-45.37-8.2-90.75-12.3-136.12 0.55-0.15 1.1-0.3 1.66-0.45 4.42 9.9 8.84 19.8 13.27 29.71 0.26 2.73 0.01 5.62 0.85 8.15 9.7 29.07 20.51 57.8 29.16 87.17 14.37 48.8 28.23 97.78 40.58 147.11 6.14 24.51 8.45 49.98 12.49 75.02-0.41 0.16-0.83 0.25-1.27 0.26-1.77-1.53-3.93-2.77-5.26-4.62-15.19-21.17-30.12-42.52-45.43-63.6-5.91-8.14-12.63-15.7-18.99-23.52-0.8-2.52-1.36-5.14-2.44-7.53-4.05-8.89-8.27-17.7-12.42-26.53-25.86-59.35-51.72-118.7-77.58-178.06 0.7-0.41 1.4-0.81 2.11-1.22 3.5 4.82 7.01 9.63 10.51 14.45 0.53 0.78 1.05 1.56 1.58 2.34l-0.03-0.18c0.52 1.03 1.05 2.05 1.57 3.08l0.11-0.28c0.87 2.49 1.37 5.2 2.68 7.44 5.58 9.53 11.63 18.79 17.09 28.38 11.77 20.67 23.31 41.47 34.89 62.26 4.45 7.99 8.72 16.08 13.08 24.13 0.46-0.19 0.93-0.37 1.39-0.56-2.45-15.61-4.88-31.22-7.3-46.83z"/> <path class="st12" d="m1193 1436.8c-21.21 0.47-42.42 0.94-63.64 1.41-3.84 0-7.68 0.01-11.53 0.01-6.49 0.01-12.99 0.02-19.48 0.03-1.83-0.44-3.67-1.26-5.5-1.27-92.46-0.06-184.92-0.06-277.38 0.01-1.18 0-2.36 1-3.54 1.54-0.04 0.38-0.1 0.75-0.2 1.11l-36.78 0.42c-5.99-0.09-11.99-0.18-17.98-0.26-8.16-4.77-16.43-9.38-24.44-14.39-3.07-1.92-5.57-4.74-8.33-7.15-0.44-0.55-0.88-1.1-1.33-1.66 0 0-0.25-0.08-0.26-0.08 1.76-0.31 3.7-1.26 5.26-0.84 39.04 10.51 78.92 11.31 118.97 10.99 43.08-0.34 86.18 0.64 129.24-0.36 37.16-0.87 74.49-1.83 110.96-10.32 7.03-1.64 13.52-5.59 20.27-8.48 2.04-0.12 4.08-0.23 6.11-0.35 16.99 1.04 21.27-2.35 23.91-18.78 0.73-4.53 1.61-9.04 2.43-13.56 5.42-5.44 11.14-10.62 16.2-16.37 8.64-9.81 14.97-21.13 17.94-33.86 3.42-14.65 5.95-29.51 8.87-44.28 0.46-1.98 0.91-3.95 1.37-5.93 0.5-4.43 1.01-8.86 1.51-13.28 1.66-1.25 3.33-2.49 4.8-3.6 0.94 2.98 1.73 5.5 2.52 8.02 0.14 0.38 0.2 0.77 0.15 1.17 0.5 0.59 0.99 1.18 1.49 1.77 5.4 7.07 13.34 5.79 20.73 6.31-1.59 15.7-3.18 31.4-4.77 47.09-10.3 0.36-15.35 3.26-17.22 10.57-5.05 19.73-10.05 39.48-14.78 59.29-2.13 8.94 2.81 15.1 11.91 15.32 9.83 0.23 19.67 0.27 29.51 0.18 9.17-0.08 13.98-3.59 17.36-12.1 2.61-6.57 5.29-13.12 7.93-19.67-0.91 7.16-1.96 14.3-2.66 21.48-0.24 2.44 0.39 4.96 0.62 7.44-1.25 2.01-2.03 4.8-3.84 5.9-10.95 6.64-22.2 12.8-33.22 19.33-4.29 2.58-11.05 0.66-13.18 7.2z"/> <path class="st0" d="m699.6 907.89c-4.04-25.04-6.35-50.51-12.49-75.02-12.35-49.34-26.22-98.32-40.58-147.11-8.65-29.37-19.47-58.1-29.16-87.17-0.84-2.53-0.6-5.42-0.85-8.15 22.71 45.66 45.43 91.32 68.14 136.97 0.63 1.27 1.3 2.52 2.67 5.16 1.81-10.44 3.36-19.42 4.92-28.41 17.78 54.52 35.56 109.04 53.8 164.98-0.76-14.37-0.7-27.6-2.33-40.62-2.88-22.98-5.71-46.07-10.54-68.69-6.54-30.61-15.01-60.8-22.46-91.22-0.92-3.77-0.65-7.84-0.93-11.77 21.31 63.54 47.4 125.57 60.9 191.58 1.62 7.89 1.81 16.08 2.66 24.13-3.44 0.95-6.89 1.9-10.33 2.85-12.38 0.23-22.64 9.24-23.71 20.81-2.75 1.95-6.85 6.18-8.02 5.48-6.63-3.95-12.47-1.22-18.56 0.58-4.38 1.88-8.76 3.75-13.13 5.62z"/> <path class="st13" d="m999.97 882.26c0.37-17.1 0.82-34.2 1.07-51.3 0.15-9.79-0.03-19.58-0.06-29.38 1.93-2.96 3.04-5.75-1.5-7.39-0.19-0.85-0.39-1.71-0.58-2.56 1.16-5.83 3.17-11.64 3.33-17.5 0.46-16.93 0.11-33.89 0.2-50.83 0.04-8.15 6.43-15.16 14.6-16.35-1.34 16.31-2.77 32.61-3.99 48.93-0.75 10.02-1.48 20.05-1.65 30.09-0.3 17.71 0.01 35.43-0.24 53.14-0.24 17.02-1.3 34.03-1.23 51.05 0.15 33.66 0.86 67.31 1.31 100.96 0.08 5.66-0.07 11.32 0.05 16.98 0.47 24.06 0.24 48.17 1.76 72.16 1.11 17.47 4.57 34.79 6.98 52.18-5.37-0.96-10.74-1.91-16.11-2.87l0.04 0.07c-0.51-1.04-1.02-2.09-1.53-3.13-0.97-5.17-2.24-10.31-2.83-15.53-0.47-4.13-0.46-8.39-0.01-12.52 0.66-6.06-1.89-7.78-7.57-7.28-13.15 1.15-26.32 2.45-39.51 2.84-41.45 1.22-82.91 2.36-124.37 2.96-55.78 0.81-111.56 1.03-167.34 1.65-27.25 0.3-54.49 1.09-81.74 1.34-6.97 0.06-10.26 4.8-12.56 9.6-0.95 1.98 2.15 6.29 4.01 9.16 4.8 7.42 13.14 6.56 20.37 7.86 10.01 1.8 20.13 2.98 30.2 4.42-2.89 0.08-5.77 0.16-8.66 0.25-7.43 0.35-14.86 0.71-22.29 1.06-4.18 0.06-8.36 0-12.54 0.21-9.67 0.48-18.88-0.22-25.4-9.72-0.21 1.93-0.32 2.89-0.42 3.85-4.2-22.27-2.38-35.98 18.68-44.57 3.24-1.32 7.26-0.57 10.8-1.31 2.63-0.55 5.07-1.98 7.59-3.02 3.23 0.92 6.45 2.64 9.68 2.65 62.25 0.2 124.5 0.21 186.74 0.24 0.48 0 0.96-0.21 1.44-0.32 70.04 0.1 140.08 0.2 210.12 0.27 0.89 0 1.78-0.52 3.39-1.03 0-30.24 0.02-60.45-0.05-90.65 0-1.42-0.72-2.83-1.11-4.25 0.13-22.61 0.27-45.22 0.4-67.83 0.17-11.51 0.35-23.04 0.53-34.58z"/> <path class="st14" d="m712.73 902.28c6.09-1.8 11.93-4.53 18.56-0.58 1.17 0.7 5.27-3.53 8.02-5.49 0.03 2.69-0.91 5.98 0.29 7.97 3.01 4.98 6.05 11.32 10.77 13.58 8.69 4.14 22.12-4.21 25.04-13.83 3.51-11.54-2.32-24.95-12.4-28.53 3.44-0.95 6.89-1.9 10.33-2.85 10.64 1.93 20.59 5.29 28.16 13.58 6.01 6.24 6.35 13.93 5.58 21.89-2.77 8.92-11.99 12.21-18.42 19.97 3.21 0.29 4.98 0.45 6.75 0.61-0.5 1.07-0.94 2.18-1.51 3.21-5.31 9.54-2.67 22.68 4.14 28.78 9.3 8.33 33.34 1.33 36.78-11.92 1.88-7.24 0.87-13.36-0.82-19.93-2.19-8.5-8.86-14.1-17.73-14.94 7.44-5.4 15.46-2.85 23.38-1.71 8.58 1.23 13.18 7.71 18.14 13.71-4.92 12.16-7.64 24.7-7.27 37.94 3 0.32 5.16 0.55 7.33 0.78-0.93 0.99-1.68 2.36-2.82 2.93-27.55 13.83-47.08 35.15-59.35 63.3-9.87-5.6-19.74-11.21-29.61-16.81 0.94-1.32 1.6-3.02 2.85-3.89 9.34-6.53 8.16-16.18 6.99-25.3-0.93-7.28-6.07-12.65-13.12-14.31-9.05-2.14-16.89 1.12-22.62 8.66-3.25 4.27-6.29 8.7-9.43 13.06-4.08-2.5-8.17-5-12.25-7.5 2.05-6.48 4.94-12.84 5.89-19.48 0.96-6.77-1.16-7.37-7.73-5.39-4.45 1.34-9.67 2.44-13.99 1.38-9.08-2.21-17.62-2.4-24.83 1.48-5.71-3.4-11.42-6.79-17.12-10.19 2.75-2.01 5.39-4.15 8.25-5.98 5.4-3.46 6.99-7.89 3.79-13.63-1.9-3.41-3.98-6.73-5.98-10.09 0.26-0.89 0.51-1.79 0.77-2.68l19.14 0.57c0.4 2.28 1.29 4.6 1.1 6.83-0.68 7.89-0.49 16.57 6.45 20.6 4.63 2.69 12.74 2.46 17.98 0.32 9.82-4 14.14-12.9 13.95-23.7-0.19-10.09-3.8-18.04-13.43-22.42zm55.15 23.43c-14.25 0.14-28.31 13.14-28.49 26.33-0.12 8.95 5.23 13.63 13.88 12.3 4.34-0.67 8.7-1.16 13.06-1.61 10.43-1.08 16.18-7.64 15.87-18.2-0.21-6.97-9.26-18.87-14.32-18.82zm40.03 62.06 2.58-1.41c-1.28-3.12-2.38-6.34-3.99-9.28-0.36-0.66-2.99-0.9-3.74-0.29-0.79 0.64-1.22 2.92-0.68 3.77 1.66 2.58 3.85 4.83 5.83 7.21z"/> <path class="st15" d="m1094 1161.8c2.95 0.1 5.89 0.21 8.84 0.31 9.28 2.46 18.68 4.56 27.8 7.52 4.75 1.54 9.02 4.59 13.51 6.96-22.07 0.05-44.14-0.05-66.21 0.29-3.94 0.06-7.85 1.94-11.78 2.98-2.21 0.36-4.41 1.01-6.62 1.04-16.59 0.18-33.19 0.25-49.79 0.35-3.95-1.45-7.88-4.08-11.87-4.17-21.05-0.44-42.11-0.36-63.16-0.11-3.43 0.04-6.85 1.87-10.27 2.88-18.36-0.46-36.72-0.91-55.08-1.37-0.98-0.5-1.97-1-2.95-1.49-0.57-0.79-1.13-1.58-1.7-2.37-0.41 0.72-0.81 1.43-1.22 2.15-19.34 0.09-38.67 0.11-58.01 0.3-4.85 0.05-9.7 0.66-14.55 1.01-0.89 0.68-1.79 1.36-2.68 2.04l0.18 0.1c-15.89-0.1-31.79-0.2-47.68-0.31-2.91-0.99-5.8-2.81-8.72-2.84-20.01-0.23-40.02-0.21-60.03 0.07-2.89 0.04-5.75 1.9-8.63 2.92-18.09 0-36.17-0.01-54.26-0.01-2.95-5.89-5.9-11.78-8.85-17.68 0.54-0.16 1.09-0.32 1.63-0.48 45.31 0.02 90.62 0.05 135.93 0.07 0.51-0.01 1.02-0.01 1.54-0.02 15.71-0.04 31.42-0.08 47.13-0.12 0.57-0.01 1.13-0.02 1.69-0.03 0.94 0.01 1.88 0.02 2.82 0.03h7.47c4.9-0.01 9.8-0.02 14.7-0.04h7.46c11.78-0.01 23.56-0.02 35.34-0.02 0.55-0.01 1.09-0.02 1.64-0.04 20.23-0.28 40.45-0.62 60.68-0.81 5.81-0.05 11.62 0.32 17.42 0.5 5.52 0 11.04 0.01 16.55 0.01 29.21-0.13 58.42-0.25 87.63-0.38 10.08-0.04 20.15-0.08 30.23-0.12 7.97 0.28 15.92 0.58 23.87 0.88z"/> <path class="st16" d="m952.34 1161.4c-5.52 0-11.04-0.01-16.55 0-2.59-0.73-5.17-2.11-7.76-2.11-44.55-0.13-89.1-0.12-133.64-0.03-2.57 0-5.13 0.88-7.7 1.35-0.03 0.4-0.07 0.8-0.12 1.2-15.71 0.04-31.42 0.08-47.13 0.12-0.51 0.01-1.02 0.01-1.54 0.02-45.31-0.02-90.62-0.05-135.93-0.07-0.95-0.39-1.89-0.79-2.84-1.18-2.07-4.39-4.14-8.78-6.21-13.17 3.01-0.57 6.02-1.62 9.03-1.64 79.91-0.52 159.82-1.24 239.74-1.27 73.76-0.02 147.52 0.74 221.28 1.16 2.99 4.8 5.98 4.75 8.96-0.01 2.94-0.11 5.87-0.21 8.81-0.32l0.01 0.38c0.23 2.15 0.47 4.31 0.72 6.67-4.14 2.01-10.94-1.56-12.59 5.96-0.15 0.67-4.06 0.71-6.23 0.72-34.19 0.04-68.38-0.02-102.57 0.13-2.59-0.02-5.16 1.35-7.74 2.09z"/> <path class="st10" d="m477.21 944.03c12.65 5.07 26.04 8.82 37.81 15.46 30.31 17.09 60.33 34.79 89.62 53.55 21.03 13.47 40.71 29.05 60.96 43.73 0.89 0.65 1.49 1.71 1.59 3.8-14.65-4.59-29.39-8.92-43.93-13.82-22.06-7.43-44.03-15.14-65.97-22.94-46.63-16.57-88.8-41.51-129.43-69.31-0.75-0.51-1.17-1.52-1.74-2.3 13.72-0.71 27.43-1.75 41.16-1.99 5.98-0.11 12 1.42 19.32 2.37-3.79-3.45-6.59-6-9.39-8.55z"/> <path class="st12" d="m1069 1135.5c-2.02 0.51-4.05 1.01-6.07 1.52-4.1 0-8.28 0.49-12.29-0.12-6.27-0.95-12.42-2.64-18.62-4.02 16.05-1.4 26.3-12.02 26.47-27.81 0.98-94.2 2.5-188.4 2.51-282.6 0.01-34.52-3.59-69.03-5.6-103.55-0.25-4.38-0.81-8.75-1.23-13.13 0.43-0.06 0.86-0.08 1.29-0.08 2.03 0.56 4.27 0.75 6.07 1.74 6.4 3.52 13.17 6.82 12.05 16.18-0.27 2.26 0.77 4.67 1.21 7.01-0.14 0.56-0.27 1.12-0.41 1.68-0.37 2.12-1.05 4.23-1.06 6.35-0.06 51.34-0.06 102.67 0.01 154.01 0 2.1 0.74 4.2 1.13 6.31 0.14 9.87 0.28 19.73 0.42 29.6-0.46 4.64-1.35 9.28-1.3 13.91 0.12 11.12 0.69 22.23 1.07 33.34 0.02 32.23 0 64.47 0.13 96.7 0.01 2.79 0.98 5.57 1.51 8.36-0.04 6.12-0.13 12.23-0.11 18.35 0.06 12.58 1.55 25.42-7.18 36.25z"/> <path class="st0" d="m950.68 526.79c-0.49 2.54-1.38 5.09-1.4 7.63-0.15 14.98 0.32 29.97-0.21 44.93-1.69 48.49-8.55 96.24-21.61 143.04-0.69 2.48-1.64 4.9-3.03 8.98-3.44-10.57-6.35-19.52-9.27-28.48 0.31-2.3 0.95-4.6 0.9-6.89-1.69-67.41 1.47-134.37 18.33-200.07 3.04-11.86 6.68-23.58 10.05-35.36 0.64 0.04 1.28 0.08 1.92 0.11 1.44 22.04 2.88 44.08 4.32 66.11z"/> <path class="st17" d="m1032.1 1132.9c6.2 1.38 12.36 3.07 18.62 4.02 4.01 0.61 8.19 0.12 12.29 0.12 1.48 2.47 2.97 4.95 4.45 7.42-1.49 0.44-2.98 0.88-4.47 1.31-73.76-0.42-147.52-1.17-221.28-1.15-79.91 0.02-159.82 0.75-239.74 1.27-3.01 0.02-6.02 1.07-9.03 1.64-5.89-0.97-11.8-1.81-17.66-2.94-9.44-1.81-16.77-6.86-21.98-14.97-0.43-0.6-0.87-1.2-1.3-1.81-0.02-0.39-0.1-0.77-0.23-1.14 0.11-0.96 0.21-1.92 0.42-3.85 6.52 9.5 15.73 10.2 25.4 9.72 4.17-0.21 8.36-0.15 12.53-0.21 7.43-0.35 14.86-0.71 22.29-1.07 2.89-0.08 5.77-0.16 8.66-0.25 16.42 0.5 32.84 1.07 49.26 1.48 41.44 1.05 82.88 2.03 124.33 3.03 21.33 0.51 42.67 1.01 64.01 1.48 22.32 0.5 44.64 1.14 66.96 1.38 24.83 0.26 49.66 0.14 74.48 0.15 2.54 0 5.08-0.25 8.05-0.4-1.73-3.49-2.99-6.03-4.25-8.57 5.37 0.96 10.74 1.91 16.11 2.87 4.05 0.16 8.07 0.31 12.08 0.47z"/> <path class="st11" d="m709.78 656.85c0.28 3.93 0 8 0.93 11.77 7.45 30.42 15.92 60.61 22.46 91.22 4.83 22.62 7.66 45.7 10.54 68.69 1.63 13.02 1.57 26.25 2.33 40.62-18.24-55.94-36.02-110.46-53.8-164.98 2.45-24.68 4.89-49.35 7.34-74.03 0.46-0.07 0.93-0.13 1.39-0.2 2.93 8.97 5.87 17.94 8.81 26.91z"/> <path class="st4" d="m1075 928.61c-0.14-9.87-0.28-19.73-0.42-29.6 0.09-8.85 0.27-17.69 0.26-26.54-0.09-46.71-0.22-93.42-0.34-140.12 0.14-0.56 0.27-1.12 0.41-1.68 2.51 5.99 5.5 11.84 7.45 18 15.16 47.85 20.9 97.24 23.74 147.1-10.37 10.94-20.74 21.89-31.1 32.84z"/> <path class="st18" d="m609.17 1180c18.09 0 36.17 0.01 54.25 0.01-4.36 6.53-1.99 12.77 0.79 19 5.16 17.79 10.33 35.58 15.49 53.37-0.51 2.51-2 5.31-1.35 7.47 3.84 12.8 8.18 25.45 12.35 38.14-5.45 0.6-11.02 0.71-16.3 2.02-2.31 0.57-4 3.59-5.98 5.5-7.94-16.72-15.84-33.47-23.84-50.16-6.45-13.43-13.17-26.74-19.52-40.22-5.48-11.62-10.6-23.41-15.89-35.13zm55.17 88.43c0.78-0.16 1.57-0.31 2.35-0.47 0.24-2.1 1.16-4.4 0.62-6.28-3.88-13.52-7.65-27.1-12.3-40.36-2.31-6.58-5.96-12.85-9.94-18.61-1.62-2.34-5.71-2.98-8.68-4.39-0.84 3.72-3.11 7.83-2.21 11.07 1.54 5.55 5.06 10.54 7.76 15.77 7.47 14.41 14.94 28.84 22.4 43.27z"/> <path class="st11" d="m667.53 920.07c-0.26 0.89-0.51 1.79-0.77 2.68-3.72 1.07-7.45 2.14-11.17 3.21-13.41-11.1-27.08-21.89-40.18-33.35-32.11-28.09-59.6-60.45-85.62-94.11-5.4-6.98-10.43-14.24-15.62-21.37 0.33-0.32 0.65-0.65 0.97-0.97 2.92 2.02 5.84 4.05 8.77 6.07l3.09 2.79-0.27 0.1c1.71 2.05 3.17 4.4 5.18 6.1 22.82 19.27 45.72 38.44 68.6 57.63 0.55 0.8 1.02 1.68 1.67 2.4 18.86 20.86 37.67 41.75 56.68 62.47 2.36 2.6 5.75 4.26 8.67 6.35z"/> <path class="st11" d="m504.77 697.86c8.81 6.97 17.61 13.95 26.42 20.92 0.52 0.48 1.04 0.96 1.56 1.43l-0.08-0.11c0.59 1.81 0.67 4.08 1.84 5.37 8.22 9.03 16.56 17.96 25.08 26.71 6.12 6.29 12.56 12.26 18.86 18.37-4.52 4.31-5.42 8.16 0.02 12.92 8.66 7.57 9.21 16.41 2.49 20.52 0.48 4.03 0.94 7.85 1.44 11.94-2.43-0.36-4.08-0.61-5.73-0.86-2.42-2.6-4.83-5.21-7.25-7.81-1.18-2.85-1.98-5.93-3.6-8.5-19.36-30.7-38.86-61.31-58.26-91.99-1.56-2.47-2.6-5.26-3.88-7.9 0.37-0.33 0.73-0.67 1.09-1.01zm69.71 110.73c-0.07 0.21-0.2 0.42-0.19 0.62 0 0.07 0.34 0.13 0.52 0.19 0.07-0.21 0.2-0.42 0.19-0.62 0-0.07-0.34-0.13-0.52-0.19z"/> <path class="st0" d="m613.89 697.31 7.29 46.83c-0.46 0.19-0.93 0.37-1.39 0.56-4.35-8.05-8.63-16.14-13.08-24.13-11.57-20.78-23.12-41.59-34.89-62.26-5.46-9.59-11.51-18.85-17.09-28.38-1.31-2.24-1.81-4.95-2.68-7.44 3.67 4.11 7.54 8.06 10.97 12.35 15.29 19.09 30.44 38.3 45.71 57.41 1.49 1.87 3.42 3.38 5.16 5.06z"/> <path class="st0" d="m578.45 770.55c-6.3-6.11-12.74-12.08-18.86-18.37-8.51-8.75-16.86-17.68-25.08-26.71-1.17-1.28-1.25-3.55-1.84-5.37 24.38 19.29 48.74 38.61 73.19 57.81 2.35 1.85 5.27 2.97 7.93 4.43 4.16 8.84 8.38 17.65 12.42 26.53 1.09 2.39 1.64 5.01 2.44 7.53-2.02-1.77-4.09-3.49-6.06-5.32-12.3-11.52-24.58-23.06-36.87-34.6-0.48-0.05-0.97-0.07-1.46-0.06l0.04 0.02c-0.99-1.02-1.99-2.04-2.98-3.06-0.95-0.93-1.91-1.88-2.87-2.83z"/> <path class="st19" d="m655.59 925.96c3.72-1.07 7.45-2.14 11.17-3.21 2 3.36 4.07 6.68 5.98 10.09 3.2 5.74 1.61 10.17-3.79 13.63-2.85 1.83-5.5 3.98-8.25 5.98-6.88-3.11-13.76-6.23-20.64-9.34 5.18-5.72 10.36-11.44 15.53-17.15z"/> <path class="st0" d="m569.42 807.27c2.42 2.6 4.83 5.21 7.25 7.81 3.45 4.58 7.04 9.08 10.33 13.78 4.61 6.58 9 13.32 13.49 19.99-22.88-19.2-45.78-38.37-68.6-57.63-2.01-1.7-3.46-4.05-5.18-6.1 8.57 4.95 17.01 10.13 25.74 14.77 5.43 2.89 11.3 4.95 16.97 7.38z"/> <path class="st8" d="m1522.6 1441.2c-69.21 0.05-138.43 0.1-207.64 0.12-1.17 0-2.34-0.49-3.51-0.76 11.77-0.13 23.54-0.36 35.31-0.37 55.25-0.08 110.5-0.11 165.76-0.08 3.36-0.01 6.72 0.7 10.08 1.09z"/> <path class="st13" d="m1055.5 705.75c-0.43-0.01-0.86 0.02-1.29 0.08-10.39-0.16-20.79-0.31-31.18-0.47 10.83 0.12 21.65 0.25 32.47 0.39z"/> <path class="st0" d="m526.99 785.02-3.09-2.79 3.09 2.79z"/> <path class="st13" d="m1020.1 705.4c-1.01 0.5-2.02 1-3.03 1.49 1.01-0.5 2.02-0.99 3.03-1.49z"/> <path class="st0" d="m551.94 622.77c-0.52-1.03-1.05-2.05-1.57-3.08 0.52 1.03 1.04 2.05 1.57 3.08z"/> <path class="st7" d="m895.2 647.69c-0.23-0.9-0.46-1.79-0.69-2.69 0.23 0.9 0.46 1.79 0.69 2.69z"/> <path class="st20" d="m599.12 1160.7c0.95 0.39 1.89 0.79 2.84 1.18-0.55 0.16-1.09 0.32-1.64 0.48-0.4-0.55-0.8-1.1-1.2-1.66z"/> <path class="st0" d="m532.75 720.21c-0.52-0.48-1.04-0.96-1.56-1.43 0.52 0.48 1.04 0.95 1.56 1.43z"/> <path class="st0" d="m550.4 619.86c-0.52-0.78-1.05-1.56-1.58-2.34 0.53 0.79 1.05 1.57 1.58 2.34z"/> <path class="st13" d="m551.98 1127.8c0.43 0.6 0.87 1.2 1.3 1.81-0.43-0.61-0.87-1.21-1.3-1.81z"/> <path class="st11" d="m503.03 696.66c-0.36-0.16-0.72-0.32-1.08-0.49 0.33 0.19 0.67 0.38 1 0.56l0.08-0.07z"/> <path class="st11" d="m513.33 775.01c0.6 0.38 1.2 0.77 1.8 1.15-0.32 0.33-0.64 0.65-0.97 0.97-0.29-0.7-0.58-1.39-0.86-2.09l0.03-0.03z"/> <path class="st11" d="m502.95 696.74c0.61 0.37 1.22 0.75 1.82 1.12-0.36 0.34-0.72 0.68-1.09 1.03-0.22-0.74-0.44-1.48-0.65-2.22 0-0.01-0.08 0.07-0.08 0.07z"/> <path class="st11" d="m513.3 775.04c-0.36-0.13-0.71-0.25-1.07-0.38 0.18-0.22 0.35-0.44 0.53-0.67 0.19 0.34 0.38 0.67 0.57 1.01 0 0.01-0.03 0.04-0.03 0.04z"/> <path class="st1" d="m722.85 1416.6c0.44 0.55 0.89 1.1 1.33 1.66-0.45-0.55-0.89-1.1-1.33-1.66z"/> <path class="st2" d="m1519.6 1504c0.52-0.16 1.04-0.33 1.55-0.49-0.51 0.16-1.03 0.33-1.55 0.49z"/> <path class="st11" d="m536.62 601.52c-0.15 0.16-0.29 0.31-0.44 0.47-0.13-0.17-0.37-0.34-0.37-0.5 0.01-0.16 0.26-0.31 0.41-0.47 0.13 0.17 0.26 0.34 0.4 0.5z"/> <path class="st2" d="m642.24 1510.9c0.19 0.35 0.41 0.68 0.53 1.05 0.03 0.08-0.3 0.29-0.46 0.43-0.03-0.49-0.05-0.99-0.07-1.48z"/> <path class="st21" d="m999.97 882.26c-0.18 11.53-0.36 23.06-0.53 34.6-15.09 10.29-31.84 16.05-49.94 17.55-17.79 1.48-34.62-1.9-49.69-11.99-9.88-6.61-12.92-17.96-8.04-28.81 0.43-0.95-0.26-2.41-0.43-3.63l25.2-15.63c1.57-0.59 3.13-1.18 4.7-1.77l-0.02 0.09c5.45-1.06 10.91-2.11 16.36-3.17 1.92-0.01 3.84-0.02 5.76-0.03 19.88-0.24 39.29 1.72 56.63 12.79z"/> <path class="st6" d="m891.33 889.98c0.17 1.22 0.86 2.67 0.43 3.63-4.88 10.85-1.84 22.2 8.04 28.81 15.08 10.09 31.9 13.47 49.69 11.99 18.1-1.5 34.86-7.26 49.94-17.55-0.13 22.61-0.27 45.22-0.4 67.83l-8.52-7.23c-3.87-2.45-7.74-4.89-11.61-7.34-2.99-1.6-5.84-3.54-8.98-4.74-6.87-2.63-13.78-5.28-20.88-7.18-6.23-1.67-12.98-1.56-19.06-3.58-15.66-5.21-30.68-0.55-45.73 2.3-8.96 1.7-17.62 5.01-26.41 7.59-2.17-0.23-4.33-0.46-7.33-0.78-0.36-13.24 2.35-25.78 7.27-37.94 7.24-13.35 17.34-24.22 29.22-33.51 1.27-0.98 2.88-1.54 4.33-2.3z"/> <path class="st19" d="m816.26 913.81c8.87 0.84 15.54 6.45 17.73 14.94 1.69 6.57 2.71 12.68 0.82 19.93-3.44 13.24-27.48 20.25-36.78 11.92-6.81-6.1-9.45-19.24-4.14-28.78 0.57-1.03 1.01-2.14 1.51-3.21 3.92-4.04 7.85-8.07 11.77-12.11 3.04-0.9 6.07-1.8 9.09-2.69z"/> <path class="st1" d="m943.33 869.47c-1.92 0.01-3.84 0.02-5.76 0.03-4.45-7.89-8.91-15.79-13.36-23.68l0.02 0.09c0.23-0.52 0.12-0.97-0.32-1.33-8.35-9.03-16.7-18.06-25.7-27.78 0.86-1.05 2.8-3.41 6.07-7.38 7.18 8.24 13.94 16 20.7 23.75 6.11 12.1 12.23 24.2 18.35 36.3z"/> <path class="st7" d="m924.2 845.82c4.45 7.89 8.91 15.79 13.36 23.68-5.45 1.06-10.91 2.11-16.36 3.17 1.01-8.95 2-17.9 3-26.85z"/> <path class="st4" d="m807.18 916.5c-3.92 4.04-7.85 8.07-11.77 12.11-1.77-0.16-3.54-0.32-6.75-0.61 6.43-7.76 15.65-11.05 18.42-19.97 0.03 2.83 0.07 5.65 0.1 8.47z"/> <path class="st7" d="m921.23 872.58c-1.57 0.59-3.13 1.18-4.7 1.77-0.53-0.41-1.06-0.81-2.33-1.77h7.03z"/> <path class="st7" d="m923.91 844.58c0.44 0.36 0.55 0.8 0.32 1.33-0.26-0.28-0.53-0.56-0.75-0.87-0.03-0.03 0.28-0.3 0.43-0.46z"/> <path class="st20" d="m1144.2 1176.6c-4.49-2.37-8.75-5.41-13.51-6.96-9.12-2.96-18.52-5.06-27.8-7.52 4.92-0.49 9.84-0.98 14.77-1.47h4.45c67.14 0.51 134.27 0.94 201.41 1.58 20.37 0.19 40.75 0.87 61.11 1.47 9.79 0.29 19.58 1.26 29.36 1.27 5.23 0 7.13 1.74 6.59 6.83-2.17 20.17-3.19 40.52-6.59 60.47-7.55 44.3-22.87 86.19-43.64 125.93-10.6 20.27-23.11 39.31-43.8 51.41-14.72 8.6-30.96 12.13-47.24 15.39-14.35 2.88-28.91 4.8-43.42 6.77-14.27 1.94-28.61 3.41-42.91 5.09 2.13-6.54 8.89-4.62 13.22-7.19 11.02-6.53 22.27-12.69 33.22-19.33 1.81-1.1 2.58-3.89 3.84-5.9 3.76-6.01 8.15-11.72 11.13-18.1 6.54-13.98 12.67-28.18 18.41-42.51 15.79-39.45 26.78-79.87 22.02-122.96-0.65-5.87-3.6-11.49-5.49-17.23 0.85-3.06 1.66-6.13 2.56-9.18 3.05-10.28-2.13-17.59-12.82-17.66-18.94-0.13-37.87-0.13-56.81-0.06-8.26 0.03-13.16 4.39-14.7 12.41-1.71 8.87-3.57 17.71-5.37 26.56-5.45-5.08-10.91-10.16-16.36-15.23-7.14-4.48-14.19-9.11-21.5-13.29-1.04-0.6-3.33 0.99-5.04 1.56-1.16-8.99-4.1-11.37-15.09-12.15zm231.76 0.3v-0.09c-8.61 0-17.22-0.06-25.82 0.02-8.45 0.08-14.07 4.22-16.12 12.32-5.77 22.83-11.41 45.7-16.98 68.58-2.43 9.98 2.41 16.5 12.6 16.66 15.25 0.24 30.5 0.21 45.74 0.1 8.1-0.06 13.52-3.92 16.08-11.62 7.67-23.06 15.27-46.14 22.65-69.29 3.14-9.83-1.94-16.48-12.33-16.66-8.6-0.14-17.21-0.02-25.82-0.02zm-50.66 145.06v-0.06c-5.66 0-11.32-0.01-16.98 0-8.07 0.02-13.71 3.95-15.84 11.52-5.44 19.39-10.82 38.8-16.01 58.25-2.31 8.64 2.78 15.33 11.66 15.54 8.85 0.21 17.72 0.23 26.57 0.04 8.14-0.17 14-3.99 17.01-11.77 7.54-19.47 15.13-38.93 22.64-58.42 3.37-8.77-1-14.97-10.6-15.1-6.14-0.07-12.3 0-18.45 0z"/> <path class="st22" d="m869.41 1178.5c18.36 0.46 36.72 0.91 55.08 1.37l-3.09 13.35c1.42 22.78 2.6 45.57 4.42 68.31 0.53 6.66 5.38 12.14 11.91 12.33 21.59 0.64 43.23 0.59 64.82-0.12 6.2-0.2 10.7-5.13 10.66-12.11-0.11-19.4-0.45-38.81-0.7-58.21-0.9-7.39-1.8-14.77-2.69-22.16 16.6-0.1 33.19-0.16 49.79-0.35 2.21-0.02 4.41-0.68 6.62-1.04-1.15 3.56-2.98 7.06-3.3 10.7-0.55 6.25-0.17 12.58-0.18 18.88-0.33 2.64-0.9 5.27-0.96 7.92-0.3 12.55-0.21 25.12-0.74 37.67-0.6 14.1 4.06 19.22 18.22 19.28 15.75 0.06 31.51 0.22 47.26 0.34-10.76 7.44-20.95 15.97-32.47 21.95-8.19 4.25-18.06 5.67-27.37 7.21-8.4 1.39-17.05 1.24-25.59 1.77 0.39-12.99 1.14-25.98 1.08-38.97-0.08-15.7-0.54-31.41-1.43-47.09-0.52-9.13-2.1-18.2-3.44-27.26-0.3-2.02-1.55-3.89-2.37-5.83-0.99 0.06-1.99 0.12-2.99 0.17-5.73 39.93-1.7 80.29-3.01 120.41-20.13-0.53-40.27-0.67-60.37-1.7-18.8-0.96-37.55-2.86-56.32-4.35-0.03-3.18 0.29-6.42-0.14-9.54-2.27-16.56-5.44-33.04-6.86-49.67-0.81-9.49-5.06-16.33-11.65-21.85-5.91-4.96-14.87-6.63-16.12-16.2-0.32-2.89-0.72-5.77-0.93-8.66-0.51-6.34-1.05-12.63-7.14-16.55z"/> <path class="st23" d="m1126.5 1274.6c-15.75-0.12-31.51-0.28-47.26-0.34-14.16-0.06-18.81-5.18-18.22-19.28 0.53-12.54 0.44-25.11 0.74-37.67 0.06-2.65 0.63-5.28 0.96-7.92 1.96-4.56 2.71-9.35 9.57-10.38 14.7-2.21 29.22-5.64 43.82-8.53 4.85-0.96 8.81 0.06 12.6 3.86 11.94 11.98 14.97 27.07 12.59 42.47-1.97 12.77-7.69 24.95-11.75 37.39-1.01 0.14-2.03 0.27-3.05 0.4z"/> <path class="st23" d="m1013.5 1336.5c0.26 19.18 0.76 38.36 0.66 57.54-0.04 7.13-5.3 11.9-12.43 12.02-15.75 0.26-31.51 0.31-47.27 0.17-7.3-0.06-12.72-4.21-13.8-11.1-2.65-16.97-4.27-34.09-6.31-51.15 5.15-3.5 9.9-8.98 15.53-10.11 13.32-2.67 27.03-4.22 40.61-4.37 7.83-0.08 16.72 0.22 23.01 7z"/> <path class="st23" d="m1113.4 1407.2c-2.04 0.12-4.08 0.23-6.11 0.35-9.78-0.07-19.55-0.1-29.33-0.23-11.48-0.15-17.13-5.92-16.82-17.27 0.19-7.07 0.59-14.14 0.89-21.21 0.79-2.04 2.19-4.06 2.27-6.13 0.29-7.12-0.16-14.27 0.3-21.38 0.14-2.14 2.1-5.74 3.62-5.95 13.76-1.94 27.58-4.35 41.41-4.49 13.55-0.15 21.41 7.01 21.2 17.6-0.26 12.93-1.51 25.85-2.71 38.73-0.89 9.44-5.5 16.5-14.72 19.98z"/> <path class="st23" d="m889.93 1335c3.83 18.48 7.68 36.96 11.49 55.44 2.15 10.42-2.84 16.59-13.67 16.66-11.02 0.06-22.06 0.11-33.07-0.29-6.7-0.25-11.94-3.89-14.01-10.25-5.43-16.72-10.38-33.6-15.41-50.45-0.47-1.59-0.14-3.41-0.17-5.13 12.77-6.88 25.77-13.56 40.83-11.7 8.12 1 16.01 3.75 24.01 5.72z"/> <path class="st13" d="m690.7 1298c-4.17-12.7-8.51-25.35-12.35-38.14-0.65-2.16 0.85-4.96 1.36-7.47 1.58 4.12 2.94 8.33 4.78 12.32 2.5 5.41 6.44 9.57 12.79 9.64 16.92 0.18 33.84 0.27 50.75-0.08 8.5-0.18 13.81-6.55 12.16-14.83-3.65-18.23-7.95-36.33-11.98-54.48-0.83-5.55-1.67-11.1-2.5-16.65 0.73 0.09 1.46 0.22 2.19 0.27 16.54 0.91 23.5 6.15 27.57 22.32 2.81 11.19 4.65 22.62 6.66 34 1.73 9.8 3.08 19.68 4.6 29.52l2.7 21.84c-16.16-0.35-32.31-0.7-48.47-1.05l-1.65 1.17c-7.34 0.05-14.69 0.1-22.03 0.15-0.51 0.02-1.01 0.04-1.52 0.06-8.36 0.46-16.71 0.94-25.06 1.41z"/> <path class="st23" d="m783.85 1339.5c4.82 18.21 9.85 36.37 14.36 54.66 1.7 6.89-3.22 12.67-10.49 12.89-11.03 0.33-22.08 0.39-33.12 0.26-7.92-0.09-12.82-5.16-15.08-11.97-6.32-19-12.02-38.2-17.97-57.32 1.19-0.23 2.7-0.07 3.51-0.76 8.43-7.19 17.94-8.1 28.26-5.4 10.15 2.66 20.35 5.1 30.53 7.64z"/> <path class="st24" d="m789.42 1296.3-2.7-21.84c1.93 0.91 5.48 1.76 5.52 2.75 0.24 6.27 5.18 8.57 9.21 8.22 4.24-0.37 8.19-4.13 12-6.26-2.85-3.82-4.47-5.99-6.09-8.17 3.19 1.15 6.37 3.25 9.57 3.3 18.65 0.28 37.31 0.24 55.96-0.05 6.77-0.11 12.97-6.91 12.1-13.24-2.35-17.2-5.13-34.34-7.73-51.5 0.07-1.93 0.13-3.87 0.2-5.8 1.25 9.57 10.21 11.24 16.12 16.2 6.58 5.52 10.84 12.37 11.65 21.85 1.42 16.63 4.58 33.11 6.86 49.67 0.43 3.13 0.11 6.36 0.14 9.54-21.97-0.97-43.94-1.83-65.9-2.95-14.13-0.72-28.23-2.01-42.36-2.7-4.84-0.22-9.7 0.62-14.55 0.98z"/> <path class="st4" d="m1129.6 1274.2c4.06-12.44 9.78-24.63 11.75-37.39 2.38-15.4-0.64-30.48-12.59-42.47-3.8-3.81-7.75-4.82-12.6-3.86-14.6 2.88-29.12 6.32-43.82 8.53-6.86 1.03-7.61 5.82-9.57 10.38 0.01-6.3-0.37-12.63 0.18-18.88 0.32-3.63 2.15-7.13 3.3-10.7 3.92-1.04 7.84-2.92 11.78-2.98 22.07-0.34 44.14-0.24 66.21-0.29 10.99 0.78 13.93 3.16 15.08 12.17-3.1 24.26-6.13 48.53-9.35 72.77-1.26 9.48-7.57 13.26-20.37 12.72z"/> <path class="st13" d="m1028.9 1307c1.32-40.12-2.71-80.48 3.01-120.41 1-0.06 1.99-0.12 2.99-0.17 0.81 1.94 2.07 3.81 2.37 5.83 1.33 9.06 2.92 18.14 3.44 27.26 0.89 15.67 1.35 31.39 1.43 47.09 0.06 12.99-0.69 25.98-1.08 38.97-1.68 37.41-3.37 74.82-5.06 112.23-0.87 0.04-1.74 0.08-2.62 0.11-0.43-2.64-1.16-5.27-1.25-7.92-0.64-19.87-1.1-39.74-1.71-59.61-0.43-14.47-1-28.92-1.52-43.38z"/> <path class="st4" d="m1113.4 1407.2c9.22-3.48 13.84-10.54 14.71-19.98 1.2-12.89 2.45-25.81 2.71-38.73 0.21-10.59-7.65-17.74-21.2-17.6-13.83 0.15-27.66 2.55-41.41 4.49-1.51 0.21-3.48 3.81-3.62 5.95-0.46 7.1-0.01 14.26-0.3 21.38-0.08 2.07-1.48 4.09-2.27 6.13 0.23-12.05 0.27-24.1 0.77-36.14 0.28-6.76 4.76-10.42 11.13-10.51 19.94-0.28 39.88-0.27 59.82 0.01 7.13 0.1 11.42 5.48 10.69 13.13-0.93 9.79-2.55 19.51-3.79 29.27-0.43 3.4-0.62 6.83-0.92 10.25-0.81 4.52-1.7 9.02-2.43 13.56-2.62 16.43-6.91 19.82-23.89 18.79z"/> <path class="st9" d="m1185.8 1200.5c5.45 5.08 10.91 10.16 16.36 15.23-0.38 2.42-0.68 4.85-1.13 7.26-2.68 14.2-5.38 28.4-8.08 42.6-0.79-2.52-1.58-5.04-2.52-8.02-1.47 1.11-3.14 2.35-4.8 3.6 0.05-20.22 0.11-40.45 0.17-60.67z"/> <path class="st4" d="m1013.5 1336.5c-6.29-6.78-15.18-7.08-23.01-6.99-13.58 0.15-27.3 1.7-40.61 4.37-5.63 1.13-10.38 6.61-15.53 10.11-0.55-3.62-1.53-7.24-1.57-10.86-0.07-6.06 3.21-9.92 9.38-9.99 20.39-0.21 40.79-0.28 61.18-0.06 6.82 0.06 9.76 4.44 10.16 13.42z"/> <path class="st13" d="m818.42 1399.8c-12.39-17.75-20.81-35.1-22.7-55.05-0.24-2.59 1.97-5.4 3.05-8.11 2.13 1.92 5.07 3.44 6.27 5.83 8.18 16.27 13.01 33.61 15.2 51.67 0.14 1.23-0.79 2.59-1.82 5.66z"/> <path class="st4" d="m783.85 1339.5c-10.18-2.53-20.38-4.97-30.53-7.63-10.32-2.7-19.83-1.8-28.26 5.4-0.8 0.68-2.32 0.52-3.51 0.76-4.4-10.51-2.02-14.9 9.14-15.27 13.48-0.44 26.98-0.37 40.47-0.17 7.71 0.11 11.46 5.45 12.69 16.91z"/> <path class="st4" d="m889.93 1335c-7.99-1.97-15.89-4.72-24-5.72-15.06-1.86-28.06 4.83-40.83 11.7-5.51-12.9-2.13-18.16 11.72-18.19 12-0.03 24-0.02 36-0.01 12.47 0 13.51 0.76 17.11 12.22z"/> <path class="st9" d="m1184.1 1274.4c-0.46 1.98-0.91 3.95-1.37 5.93 0.45-1.97 0.91-3.95 1.37-5.93z"/> <path class="st24" d="m715.75 1296.6c0.51-0.02 1.01-0.04 1.52-0.06-0.5 0.02-1.01 0.04-1.52 0.06z"/> <path class="st24" d="m739.3 1296.4 1.65-1.17-1.65 1.17z"/> <path class="st25" d="m1283.1 877.02c0.01-10.04-5.06-13.44-13.38-16.91-9.18-3.84-16.84 1.05-25.16 0.39-3.94-2.82-7.53-7.13-11.89-8.14-9.02-2.09-18.44-2.43-27.7-3.49 10.62-11.61 22.89-15.49 37.17-7.42 13.29-18.17 35.67-27.61 63.42-15.18 2.71-4.84 4.69-10.34 8.28-14.41 12.05-13.63 27.66-15.27 44.56-12.11 3.19 0.6 7.17 0.4 9.99-1.02 15.86-7.98 38.42-2.84 49.15 11.26 1.42 1.87 4.89 3.39 7.22 3.16 19.4-1.94 32.15 13.8 34.28 29.53 0.28 2.07 2.94 4.89 5.03 5.48 21.48 6.07 29.01 16.23 27.79 37.99-0.08 1.49 0.73 3.24 1.62 4.53 7.41 10.82 7.16 21.32-0.66 31.75-2.17 2.9-3.82 6.18-5.7 9.29-5.47 5.86-10.95 11.72-16.42 17.57-2.38-15.63-10.73-24.72-27.45-24.02 1.83-9.43 0.73-17.96-7.12-22.3-7.12-3.93-13.16-7.48-17.74-14.86-2.54-4.08-10.27-4.93-16.36-7.54-4.01-22.34-4.25-22.58-27.71-26.6-3.31-14.24-10.1-19.09-24.41-17.9-1.79 0.15-4.13-0.9-5.51-2.17-11.07-10.19-21.08-11-32.74-2.08-11.22 8.58-18.84 28.03-10.86 40.46-0.92 0.97-2.77 2.1-2.63 2.89 1.58 9.18-3.95 15.04-9.39 20.99-4.65-1.6-6.02-4.99-5.65-9.65 0.27-3.15 0.01-6.33-0.03-9.49z"/> <path class="st14" d="m1498.8 1080.4c-0.99 0.24-1.99 0.49-2.98 0.73-28.54-0.03-57.09-0.06-85.64-0.09-22.63-0.12-45.25-0.24-67.88-0.36 16.47-6.93 33.27-13.18 49.31-20.98 16.56-8.06 26.71-21.16 26.09-40.79-0.31-9.79-5.48-17.38-10.52-25.1 9.75 2.69 15.6 9.2 17.68 18.91 1.46 6.84 2.16 13.85 3.48 20.73 0.29 1.52 1.78 2.82 2.72 4.22 0.88-1.21 2.18-2.29 2.57-3.64 1.58-5.46 2.89-10.99 4.8-18.46 5.72 2.67 10.98 5.12 16.24 7.57 4.24 4.94 8.49 9.87 12.73 14.81l1.92-1.53c-2.14-6.52-7.34-11.05-11.76-16.09-3.75-4.56-7.5-9.11-11.25-13.67 0.18-0.43 0.35-0.86 0.53-1.29 4.61 1.47 9.22 2.94 13.82 4.41 9.74 10.93 19.48 21.85 29.22 32.78 0.8 2.69 1.76 5.34 2.38 8.07 2.26 9.91 4.38 19.85 6.54 29.77z"/> <path class="st26" d="m1454.6 1023.2c-5.26-2.45-10.52-4.9-16.24-7.57-1.91 7.47-3.21 13.01-4.8 18.46-0.39 1.35-1.69 2.43-2.57 3.64-0.94-1.4-2.43-2.7-2.72-4.22-1.32-6.88-2.02-13.88-3.48-20.73-2.08-9.71-7.92-16.22-17.67-18.91-9.34-4.68-18.68-9.36-29.44-14.75h20.46c2.44 0.94 4.8 2.27 7.33 2.75 6.52 1.25 13.11 2.12 19.68 3.14 3.64 4.86 6.68 4.94 8.96-1.12 12.2-11.53 24.41-23.05 36.61-34.58 5.47-5.86 10.95-11.72 16.42-17.57 2.49-1.82 5.39-3.28 7.39-5.54 4.34-4.92 8.16-3.34 11.76 0.47 9.08 9.6 7.59 22.38-3.2 29.73-3.49 2.37-6.74 5.1-10.09 7.67-12 8.22-24.05 16.37-35.95 24.72-3.23 2.26-6.02 5.14-9.02 7.74 3.57 2.25 7.13 4.51 10.73 6.72 0.61 0.38 1.39 0.47 2.05 0.78 6.3 2.96 12.58 5.93 18.87 8.9l-0.03 0.03c-6.34-1.04-12.69-2.08-19.03-3.13-4.61-1.47-9.22-2.94-13.82-4.41-0.18 0.43-0.35 0.86-0.53 1.29 3.75 4.56 7.5 9.11 11.25 13.67-0.99 0.94-1.96 1.88-2.92 2.82z"/> <path class="st25" d="m1460.6 1009.8c6.34 1.04 12.69 2.08 19.03 3.13 0.2 0.1 0.41 0.2 0.61 0.3-0.19-0.11-0.39-0.22-0.58-0.33-6.29-2.97-12.58-5.94-18.87-8.9-0.66-0.31-1.44-0.41-2.05-0.78-3.59-2.21-7.16-4.48-10.73-6.72 2.99-2.6 5.79-5.47 9.02-7.74 11.91-8.35 23.96-16.49 35.95-24.72-0.29 6.45 0.49 13.2-1.22 19.24-1.28 4.53-1.38 7.49 1.23 11.36 10.16 15.08 10.44 31.43 1.07 43.91-1.15 1.53-2.8 2.7-4.23 4.03-9.74-10.93-19.49-21.85-29.23-32.78z"/> <path class="st21" d="m1205 848.86c9.26 1.06 18.68 1.4 27.7 3.49 4.36 1.01 7.95 5.33 11.89 8.14-0.94 0.96-2.42 1.77-2.73 2.91-2.9 10.58-7.56 14.87-18.44 14.94-9.61 0.07-19.43 0.1-28.77-1.8-4.42-0.9-10.98-6.29-11.04-9.74-0.07-4.32 5.52-8.76 8.72-13.1 0.55-0.75 1.39-1.29 2.1-1.92 3.52-0.98 7.05-1.95 10.57-2.92z"/> <path class="st19" d="m978.9 970.12c3.87 2.45 7.74 4.89 11.61 7.34 7.55 21.28 1.07 39.23-12.26 56.19-10.81 13.75-24.44 24.04-38.76 33.35-12.54 8.15-25.92 13.31-41.99 12.83-36.85-1.11-73.75-0.27-110.63-0.23-0.01-6.35-0.18-12.7 0.06-19.04 0.06-1.61 1.42-3.18 2.18-4.77 1.15 5.66 2.29 11.33 3.44 17 0.85-0.05 1.7-0.1 2.54-0.15 6.69-42.17 26.47-75.09 65.98-93.92 39.3-18.73 77.96-14.45 116.97 4.92 0.35-5.39 0.6-9.45 0.86-13.52zm-25.26 67.92c6.07 0.26 12.18-4.8 11.63-10.35-0.54-5.45-3.38-9.71-9.47-10.3-6.52-0.62-12.27 4.42-12.44 10.61-0.15 5.5 4.23 9.77 10.28 10.04zm-49.27-13.31c6.12 0.32 10.96-3.6 10.76-9.33-0.18-5.28-2.22-9.52-8.47-9.92-5.9-0.38-11.56 3.51-12.01 8.31-0.46 4.88 4.68 10.67 9.72 10.94zm-42.18 29.57c5.38-0.01 10.26-4.98 10.1-10.3-0.12-4.13-6.12-9.3-10.99-8.81-5.28 0.53-9.15 3.3-9.55 9.11-0.33 4.96 5.1 10.01 10.44 10zm-22.18 10.36c-0.36-5.11-2.95-8.44-8.43-8.89-5.34-0.44-9.36 3.41-9.44 8.71-0.09 5.9 3.77 8.6 8.69 8.73 4.94 0.13 8.79-2.55 9.18-8.55zm53.58-86.39c-3.72-1.8-5.73-3.52-7.67-3.46-1.56 0.05-3.05 2.27-4.57 3.53 1.54 1.51 3.03 4.17 4.64 4.25 1.89 0.09 3.88-2.07 7.6-4.32zm-58.41 32.27c2.41 2.25 3.68 4.36 5.21 4.56 1.09 0.15 3.7-2.46 3.53-3.49-0.27-1.65-2.06-3.49-3.68-4.28-0.73-0.36-2.6 1.58-5.06 3.21zm135.28-5.59c1.62-2.48 2.96-4.01 3.54-5.79 0.14-0.43-2.51-2.6-3.42-2.34-1.7 0.48-3.06 2.14-4.56 3.32 1.22 1.32 2.45 2.65 4.44 4.81z"/> <path class="st27" d="m978.9 970.12c-0.26 4.06-0.52 8.12-0.86 13.51-39-19.36-77.67-23.65-116.97-4.92-39.51 18.83-59.29 51.76-65.98 93.92-0.85 0.05-1.7 0.1-2.54 0.15-1.15-5.67-2.29-11.33-3.44-17 0.86-4.98 1.72-9.97 2.58-14.95 1.33-3.36 2.65-6.73 3.97-10.09 12.27-28.15 31.8-49.46 59.35-63.3 1.14-0.57 1.89-1.94 2.82-2.93 8.79-2.58 17.45-5.9 26.41-7.59 15.06-2.85 30.07-7.51 45.73-2.3 6.08 2.02 12.83 1.92 19.06 3.58 7.09 1.9 14 4.55 20.88 7.18 3.15 1.21 6.01 3.14 8.99 4.74z"/> <path class="st14" d="m786.87 1079.6c36.88-0.05 73.78-0.88 110.63 0.23 16.07 0.48 29.45-4.68 41.99-12.83 14.33-9.31 27.95-19.6 38.76-33.35 13.33-16.96 19.82-34.91 12.26-56.19l8.52 7.23c0.38 1.42 1.1 2.83 1.11 4.25 0.06 30.2 0.05 60.4 0.05 90.65-1.6 0.5-2.49 1.03-3.39 1.03-70.04-0.06-140.08-0.17-210.12-0.27 0.01-0.27 0.07-0.52 0.19-0.75z"/> <path class="st0" d="m1036.5 1088.4c7.95-0.16 14.52 5.9 14.53 13.39 0.01 7.47-6.37 13.74-14.21 13.96-8.11 0.23-14.96-6.13-14.96-13.9-0.02-7.27 6.54-13.29 14.64-13.45z"/> <path class="st19" d="m1398.2 979.08h-20.46c10.75 5.39 20.09 10.07 29.44 14.75 5.04 7.72 10.2 15.31 10.51 25.1 0.62 19.63-9.53 32.73-26.09 40.79-16.04 7.81-32.84 14.05-49.31 20.98-21.18-0.06-42.37-0.13-63.56-0.19-8.4-7.27-11.24-16.72-10.31-27.41 0.67-7.62 1.92-15.2 2.9-22.79 7.42-12.21 13.81-25.22 22.53-36.41 9.06-11.62 19.78-22.17 30.92-31.88 6.72-5.86 15.61-9.24 23.53-13.74 4.41-0.54 8.82-1.08 13.23-1.62 6.24 3.77 13.25 6.7 18.54 11.52 6.78 6.19 12.16 13.87 18.13 20.9z"/> <path class="st28" d="m1361.5 946.68c-4.41 0.54-8.82 1.08-13.23 1.62-1.97-5.57-3.95-11.13-5.92-16.7-1.36-3.84-2.41-7.84-4.18-11.48-1.75-3.6-3.75-6.29-9-6.82-9.58-0.98-13.62-8.76-10.91-18.16 2.65-9.23-6.08-20.69-17.42-22.85-7.98-12.43-0.36-31.88 10.85-40.46 11.65-8.91 21.66-8.11 32.74 2.08 1.38 1.27 3.72 2.32 5.51 2.17 14.3-1.19 21.09 3.67 24.41 17.9 23.46 4.02 23.7 4.26 27.71 26.6 6.09 2.61 13.83 3.46 16.36 7.54 4.58 7.38 10.63 10.92 17.74 14.86 7.85 4.34 8.95 12.87 7.12 22.3 16.72-0.7 25.07 8.38 27.45 24.02-12.2 11.53-24.41 23.05-36.61 34.58-2.91-2.91-5.73-5.9-8.74-8.69-11.06-10.23-22.32-20.18-37.41-24.17-8.82-1.47-17.64-2.9-26.47-4.34z"/> <path class="st19" d="m1079.2 972.8c6.81-9.75 16.21-15.45 27.8-17.59 5.44-1 10.95-1.66 16.43-2.48 0.1 1.49-0.35 3.86 0.38 4.31 2.82 1.73 5.92 3.22 9.1 4.11 8.74 2.45 17.54 4.72 26.39 6.74 12.64 2.89 25.34 5.51 38.02 8.24 15.19 11.5 19.68 22.51 11.64 42.24-8.12 19.95-23.67 33.51-42.9 42.57-14.86 7-30.81 8.77-46.71 4.78-16.15-4.04-29.01-13.98-39.32-26.79-2.51-3.12-3.51-8.15-3.66-12.35-0.45-13.28-0.42-26.59-0.03-39.87 0.15-4.66 1.87-9.28 2.86-13.91z"/> <path class="st14" d="m1079.2 972.8c-1 4.63-2.72 9.25-2.85 13.91-0.39 13.28-0.42 26.59 0.03 39.87 0.14 4.2 1.14 9.23 3.66 12.35 10.32 12.81 23.18 22.74 39.32 26.79 15.9 3.98 31.86 2.22 46.71-4.78 19.22-9.05 34.77-22.62 42.9-42.57 8.03-19.73 3.55-30.74-11.64-42.24 6.39-0.79 14.09 0.58 15.09-9.13 31.52 10.64 46.7 36.53 45.76 79.43 4.8-5.9 8.95-11 13.11-16.11-0.99 7.59-2.24 15.17-2.9 22.79-0.94 10.68 1.91 20.14 10.3 27.41-2.7 0.13-5.4 0.37-8.09 0.37-64.75 0.03-129.5 0.03-194.25 0.04-0.53-2.79-1.5-5.57-1.51-8.36-0.13-32.23-0.11-64.47-0.13-96.7 0.55-0.44 1.1-0.87 1.65-1.31 0.49-0.42 0.99-0.85 1.49-1.27 0.43-0.18 0.89-0.34 1.35-0.49z"/> <path class="st21" d="m1283.1 877.02c0.03 3.16 0.3 6.34 0.04 9.48-0.38 4.66 1 8.05 5.65 9.65 11.45 17.51 6.35 33.52-5.18 48.33-5.02 6.45-10.81 13.26-17.79 17.05-15.11 8.18-28.31 3.13-36.53-12.03-8.61-15.88-6.87-31.92-0.88-48.1 4.19-11.31 12.72-18.97 21.84-25.99 9.42-7.25 22.79-6.34 32.85 1.61z"/> <path class="st3" d="m1212.4 967c-0.99 9.71-8.7 8.33-15.09 9.13-12.68-2.73-25.38-5.35-38.02-8.24-8.85-2.03-17.65-4.3-26.39-6.74-3.19-0.89-6.28-2.38-9.1-4.11-0.73-0.45-0.28-2.82-0.38-4.31h36.31v-47.29c0.9-0.58 1.8-1.16 2.69-1.74 8.47 3.29 17.03 6.38 25.3 10.13 0.96 0.44 0.93 4.69 0.26 6.83-3.62 11.56-7.59 23.01-11.38 34.32 11.04 3.17 21.47 6.1 31.84 9.23 1.47 0.44 2.65 1.84 3.96 2.79z"/> <path class="st19" d="m1077.9 973.29c-0.5 0.42-0.99 0.85-1.49 1.27 0.5-0.42 0.99-0.85 1.49-1.27z"/> <path class="st29" d="m999.48 794.2c4.54 1.64 3.43 4.43 1.5 7.39-0.5-2.47-1-4.93-1.5-7.39z"/> <path class="st17" d="m811.9 1438.6c1.18-0.53 2.36-1.53 3.54-1.54 92.46-0.07 184.92-0.07 277.38-0.01 1.83 0 3.67 0.83 5.5 1.27-95.47 0.09-190.94 0.18-286.42 0.28z"/> <path class="st20" d="m1094 1161.8c-7.95-0.3-15.9-0.59-23.86-0.89 7.96 0.29 15.91 0.59 23.86 0.89z"/> <path class="st16" d="m1122.1 1160.6h-4.45c-0.73-1.64-1.46-3.27-2.31-5.18 5.1-1.53 6.78 0.73 6.76 5.18z"/> <path class="st17" d="m1117.8 1438.3c3.84 0 7.68 0 11.53-0.01-3.85 0.01-7.69 0.01-11.53 0.01z"/> <path class="st22" d="m1076.4 1080.9c64.75-0.01 129.5-0.01 194.25-0.04 2.7 0 5.4-0.24 8.09-0.37 21.19 0.06 42.37 0.12 63.56 0.19 22.62 0.12 45.25 0.24 67.88 0.36 0.09 0.44 0.15 0.88 0.19 1.32-30.98 14.98-63.32 26.39-97.13 32.37-30.01 5.31-60.37 8.95-90.73 11.8-31.9 2.99-63.99 4.03-95.98 6.19-16.32 1.1-32.6 2.91-48.92 4.14-2.79 0.21-5.68-0.88-8.52-1.36 8.73-10.83 7.24-23.67 7.19-36.25-0.02-6.12 0.08-12.24 0.12-18.35z"/> <path class="st17" d="m1410.3 1082.4c-0.04-0.44-0.1-0.88-0.19-1.32 28.55 0.03 57.09 0.06 85.64 0.09-2.58 0.4-5.15 1.14-7.73 1.15-25.91 0.09-51.82 0.07-77.72 0.08z"/> <path class="st17" d="m1080.7 1145.4c-2.94 0.11-5.87 0.21-8.81 0.32-0.52-0.43-1.04-0.86-1.55-1.29 4.05-4.65 8.01-4.28 10.36 0.97z"/> <path class="st8" d="m1070.4 1144.5c0.52 0.43 1.04 0.86 1.55 1.29-2.98 4.76-5.97 4.81-8.96 0.01 1.49-0.44 2.98-0.88 4.47-1.32 0.98 0 1.96 0.01 2.94 0.02z"/> <path class="st19" d="m730.73 992.15c3.14-4.36 6.18-8.78 9.43-13.06 5.72-7.53 13.57-10.79 22.62-8.66 7.05 1.67 12.18 7.03 13.12 14.31 1.17 9.12 2.36 18.77-6.99 25.3-1.25 0.87-1.91 2.57-2.85 3.89-8.94-5.56-17.87-11.13-26.82-16.68-2.81-1.73-5.67-3.4-8.51-5.1z"/> <path class="st19" d="m677.82 962.64c7.21-3.87 15.75-3.69 24.83-1.48 4.32 1.05 9.54-0.04 13.99-1.38 6.57-1.98 8.7-1.38 7.73 5.39-0.95 6.64-3.85 13-5.89 19.48-13.56-7.33-27.11-14.67-40.66-22.01z"/> <path class="st26" d="m600.49 848.85c-4.49-6.67-8.88-13.41-13.49-19.99-3.29-4.7-6.87-9.19-10.33-13.78 1.65 0.25 3.3 0.5 5.73 0.86-0.49-4.09-0.95-7.91-1.44-11.94 6.72-4.11 6.17-12.95-2.49-20.52-5.44-4.76-4.54-8.61-0.02-12.92l2.88 2.85c0.99 1.02 1.99 2.04 2.98 3.05l-0.04-0.02c0.49 0.02 0.97 0.04 1.46 0.06 12.29 11.53 24.57 23.08 36.87 34.6 1.96 1.84 4.03 3.55 6.06 5.32 6.35 7.82 13.07 15.38 18.99 23.52 15.31 21.08 30.24 42.44 45.43 63.6 1.33 1.85 3.48 3.09 5.26 4.62-3.76 4.28-4.99 10.92-11.66 12.48l-19.14-0.57c-2.92-2.09-6.31-3.75-8.69-6.35-19.01-20.72-37.82-41.61-56.68-62.47-0.66-0.71-1.13-1.59-1.68-2.4z"/> <path class="st19" d="m686.66 920.64c6.67-1.56 7.9-8.21 11.66-12.48 0.44-0.01 0.86-0.1 1.27-0.26 4.38-1.87 8.76-3.74 13.13-5.62 9.63 4.39 13.24 12.34 13.41 22.41 0.19 10.8-4.13 19.71-13.95 23.7-5.25 2.13-13.36 2.36-17.98-0.32-6.94-4.03-7.13-12.71-6.45-20.6 0.2-2.23-0.69-4.55-1.09-6.83z"/> <path class="st4" d="m1193 1265.6c2.7-14.2 5.41-28.4 8.08-42.6 0.45-2.41 0.76-4.84 1.13-7.26 1.8-8.85 3.66-17.69 5.37-26.56 1.54-8.02 6.44-12.38 14.7-12.41 18.94-0.07 37.88-0.07 56.81 0.06 10.68 0.07 15.87 7.38 12.82 17.66-0.9 3.05-1.71 6.12-2.56 9.18-4.54 18.27-9.28 36.5-13.56 54.83-2.6 11.13-7.85 15.84-19.31 15.95-13.7 0.14-27.41 0.27-41.11 0.4-7.39-0.53-15.34 0.76-20.73-6.31-0.5-0.59-0.99-1.18-1.49-1.77 0.04-0.41-0.01-0.8-0.15-1.17z"/> <path class="st15" d="m1215.3 1274.8c13.7-0.13 27.41-0.26 41.11-0.4 11.47-0.11 16.72-4.82 19.31-15.95 4.28-18.34 9.01-36.56 13.56-54.83 1.89 5.74 4.84 11.35 5.49 17.23 4.76 43.09-6.23 83.51-22.02 122.96-5.74 14.33-11.87 28.52-18.41 42.51-2.98 6.38-7.38 12.09-11.13 18.1-0.23-2.48-0.86-5-0.62-7.44 0.7-7.18 1.75-14.32 2.66-21.48 3.95-12.12 7.82-24.27 11.85-36.36 3.5-10.47-0.84-16.81-11.95-16.98-11.54-0.17-23.09-0.18-34.63-0.26 1.6-15.71 3.19-31.4 4.78-47.1z"/> <path class="st4" d="m1210.6 1321.9c11.54 0.08 23.09 0.09 34.63 0.26 11.11 0.17 15.44 6.51 11.95 16.98-4.04 12.09-7.91 24.24-11.85 36.36-2.65 6.55-5.33 13.1-7.94 19.67-3.38 8.51-8.19 12.02-17.36 12.1-9.84 0.09-19.68 0.05-29.51-0.18-9.1-0.22-14.04-6.37-11.91-15.32 4.72-19.81 9.72-39.56 14.78-59.29 1.86-7.32 6.9-10.22 17.21-10.58z"/> <path class="st9" d="m1193.1 1266.7c0.5 0.59 0.99 1.18 1.49 1.77-0.5-0.59-0.99-1.18-1.49-1.77z"/> <path class="st19" d="m763.01 875.4c10.09 3.58 15.91 16.99 12.4 28.53-2.92 9.61-16.36 17.97-25.04 13.83-4.72-2.25-7.77-8.6-10.77-13.58-1.2-1.99-0.26-5.28-0.29-7.97 1.07-11.57 11.33-20.58 23.7-20.81z"/> <path class="st18" d="m1003.9 1129.6c1.26 2.54 2.52 5.08 4.25 8.57-2.97 0.15-5.51 0.4-8.05 0.4-24.83-0.01-49.66 0.11-74.48-0.15-22.32-0.23-44.64-0.88-66.96-1.38-21.34-0.47-42.67-0.97-64.01-1.48-41.44-0.99-82.89-1.98-124.33-3.03-16.42-0.41-32.84-0.98-49.26-1.48-10.07-1.44-20.19-2.62-30.2-4.42-7.23-1.3-15.56-0.44-20.37-7.86-1.85-2.87-4.96-7.17-4.01-9.16 2.3-4.8 5.59-9.54 12.56-9.6 27.25-0.25 54.49-1.04 81.74-1.34 55.78-0.62 111.56-0.83 167.34-1.65 41.46-0.61 82.92-1.74 124.37-2.96 13.19-0.39 26.36-1.69 39.51-2.84 5.68-0.5 8.23 1.22 7.57 7.28-0.45 4.13-0.46 8.4 0.01 12.52 0.59 5.22 1.86 10.35 2.83 15.53 0.51 1.04 1.02 2.09 1.53 3.13l-0.04-0.08z"/> <path class="st18" d="m612.4 1131.3c-7.43 0.36-14.86 0.71-22.29 1.07 7.43-0.36 14.86-0.72 22.29-1.07z"/> <path class="st17" d="m1004 1129.6c-0.51-1.04-1.02-2.08-1.53-3.13 0.51 1.04 1.02 2.08 1.53 3.13z"/> <path class="st19" d="m767.88 925.71c5.06-0.05 14.11 11.85 14.32 18.83 0.31 10.56-5.44 17.12-15.87 18.2-4.36 0.45-8.73 0.94-13.06 1.61-8.65 1.33-14-3.35-13.88-12.3 0.17-13.2 14.24-26.2 28.49-26.34z"/> <path class="st2" d="m807.91 987.77c-1.98-2.38-4.18-4.62-5.83-7.22-0.54-0.85-0.11-3.14 0.68-3.77 0.75-0.6 3.38-0.36 3.74 0.29 1.61 2.94 2.71 6.16 3.99 9.28-0.86 0.47-1.72 0.94-2.58 1.42z"/> <path class="st18" d="m807.35 1271c1.62 2.17 3.24 4.35 6.09 8.17-3.81 2.13-7.75 5.89-12 6.26-4.03 0.36-8.97-1.95-9.21-8.22-0.04-0.98-3.59-1.83-5.52-2.75-1.52-9.84-2.87-19.71-4.6-29.52-2.01-11.37-3.85-22.81-6.66-34-4.07-16.17-11.03-21.41-27.57-22.32-0.73-0.04-1.46-0.17-2.19-0.27-1.63-2.81-3.26-5.63-4.9-8.44 15.89 0.1 31.79 0.2 47.68 0.31-0.1 4.82-0.19 9.63-0.29 14.45 4.23 20.9 8.25 41.86 12.86 62.68 1.07 4.79 4.16 9.12 6.31 13.65z"/> <path class="st4" d="m921.4 1193.2 3.09-13.35c3.42-1 6.84-2.84 10.27-2.88 21.05-0.25 42.11-0.33 63.16 0.11 3.98 0.08 7.91 2.71 11.87 4.17 0.9 7.39 1.8 14.77 2.69 22.16-17.68-1.92-35.32-4.32-53.04-5.61-11.87-0.86-23.85-0.16-36.22-0.16-0.37-0.92-1.09-2.68-1.82-4.44z"/> <path class="st4" d="m740.81 1179.9c1.63 2.81 3.26 5.63 4.9 8.44 0.83 5.55 1.67 11.1 2.5 16.65-2.16-0.33-4.34-0.57-6.48-1-25.61-5.18-51.15-11.53-77.51-4.95-2.78-6.23-5.15-12.47-0.79-19 2.88-1.02 5.74-2.88 8.63-2.92 20.01-0.28 40.02-0.3 60.03-0.07 2.91 0.04 5.81 1.86 8.72 2.85z"/> <path class="st4" d="m788.2 1194.6c0.1-4.82 0.19-9.63 0.29-14.45l-0.18-0.1c0.89-0.68 1.79-1.36 2.68-2.04 4.85-0.35 9.7-0.96 14.55-1.01 19.33-0.2 38.67-0.22 58.01-0.3 0.97 0.07 1.94 0.15 2.91 0.22 0.98 0.5 1.97 0.99 2.95 1.49 6.09 3.92 6.63 10.21 7.1 16.56 0.22 2.89 0.62 5.77 0.93 8.66-0.07 1.93-0.13 3.87-0.2 5.8-1.78-6-6.4-8.16-12.02-9.7-14.28-3.92-28.48-8.19-42.65-12.5-8.46-2.57-16.27-1.15-23.94 2.79-3.35 1.76-6.94 3.07-10.43 4.58z"/> <path class="st8" d="m786.68 1160.6c2.57-0.47 5.13-1.35 7.7-1.35 44.55-0.08 89.1-0.1 133.64 0.03 2.59 0.01 5.18 1.38 7.76 2.11-5.81-0.18-11.62-0.56-17.43-0.51-20.23 0.19-40.45 0.53-60.68 0.81-0.55 0.01-1.09 0.02-1.64 0.03l-35.34 0.03h-7.46c-4.9 0.01-9.8 0.02-14.7 0.04h-7.47c-0.94-0.01-1.88-0.02-2.82-0.03-0.51-0.38-1.04-0.77-1.56-1.16z"/> <path class="st20" d="m813.24 1161.8h7.46-7.46z"/> <path class="st20" d="m791.07 1161.8h7.47-7.47z"/> <path class="st22" d="m866.46 1177c-0.97-0.07-1.94-0.15-2.91-0.22 0.41-0.72 0.81-1.43 1.22-2.15 0.56 0.79 1.12 1.58 1.69 2.37z"/> <path class="st18" d="m790.99 1178.1c-0.89 0.68-1.79 1.36-2.68 2.04 0.89-0.68 1.79-1.36 2.68-2.04z"/> <path class="st20" d="m786.68 1160.6c0.52 0.39 1.05 0.79 1.57 1.18-0.56 0.01-1.13 0.02-1.69 0.03 0.05-0.41 0.09-0.81 0.12-1.21z"/> <path class="st20" d="m856.04 1161.7c0.55-0.01 1.09-0.02 1.64-0.03-0.55 0.01-1.09 0.02-1.64 0.03z"/> <path class="st20" d="m737.89 1162c0.51 0 1.02-0.01 1.54-0.02-0.52 0-1.03 0.01-1.54 0.02z"/> <path class="st17" d="m1074.4 732.35c0.12 46.71 0.25 93.42 0.34 140.12 0.02 8.85-0.16 17.69-0.26 26.54-0.39-2.1-1.13-4.2-1.13-6.31-0.07-51.34-0.07-102.67-0.01-154.01 0.01-2.11 0.69-4.23 1.06-6.34z"/> <path class="st23" d="m664.22 1199c26.36-6.58 51.89-0.23 77.51 4.95 2.14 0.43 4.32 0.67 6.48 1 4.03 18.15 8.33 36.25 11.98 54.48 1.66 8.28-3.65 14.65-12.16 14.83-16.91 0.35-33.84 0.26-50.75 0.08-6.35-0.07-10.29-4.23-12.79-9.64-1.84-3.99-3.2-8.21-4.78-12.32-5.16-17.81-10.33-35.59-15.49-53.38z"/> <path class="st13" d="m664.34 1268.5c-7.46-14.43-14.93-28.86-22.39-43.29-2.7-5.22-6.22-10.22-7.76-15.77-0.9-3.23 1.37-7.35 2.21-11.07 2.97 1.41 7.06 2.05 8.68 4.39 3.98 5.77 7.63 12.03 9.94 18.61 4.66 13.26 8.43 26.84 12.3 40.36 0.54 1.88-0.38 4.18-0.62 6.28-0.79 0.18-1.57 0.33-2.36 0.49z"/> <path class="st26" d="m574.48 808.59c0.18 0.06 0.51 0.12 0.52 0.19 0.01 0.21-0.12 0.42-0.19 0.62-0.18-0.06-0.52-0.12-0.52-0.19-0.01-0.21 0.12-0.42 0.19-0.62z"/> <path class="st11" d="m584.31 776.46c-0.99-1.02-1.99-2.04-2.98-3.05 0.99 1.01 1.98 2.03 2.98 3.05z"/> <path class="st11" d="m585.73 776.49c-0.49-0.02-0.97-0.04-1.46-0.06 0.49-0.01 0.97 0.01 1.46 0.06z"/> <path class="st4" d="m1376 1176.9c8.61 0 17.22-0.12 25.82 0.03 10.4 0.18 15.47 6.83 12.33 16.66-7.38 23.15-14.98 46.23-22.65 69.29-2.56 7.7-7.98 11.56-16.08 11.62-15.25 0.11-30.5 0.14-45.74-0.1-10.18-0.16-15.03-6.68-12.6-16.66 5.57-22.88 11.21-45.75 16.98-68.58 2.05-8.1 7.67-12.24 16.12-12.32 8.61-0.08 17.22-0.02 25.82-0.02v0.08z"/> <path class="st4" d="m1325.3 1321.9c6.15 0 12.3-0.07 18.46 0.02 9.6 0.13 13.97 6.33 10.6 15.1-7.5 19.49-15.09 38.95-22.64 58.42-3.01 7.78-8.87 11.59-17.01 11.77-8.85 0.19-17.72 0.17-26.57-0.04-8.88-0.21-13.97-6.9-11.66-15.54 5.19-19.46 10.57-38.87 16.01-58.25 2.12-7.57 7.77-11.49 15.84-11.52 5.66-0.02 11.32 0 16.98 0-0.01 0-0.01 0.02-0.01 0.04z"/> <path class="st23" d="m921.4 1193.2c0.73 1.76 1.45 3.52 1.83 4.43 12.36 0 24.35-0.7 36.22 0.16 17.72 1.29 35.37 3.69 53.04 5.61 0.25 19.4 0.59 38.81 0.7 58.21 0.04 6.98-4.45 11.91-10.66 12.11-21.59 0.71-43.22 0.75-64.82 0.12-6.53-0.19-11.37-5.67-11.91-12.33-1.8-22.74-2.98-45.53-4.4-68.31z"/> <path class="st23" d="m788.2 1194.6c3.49-1.51 7.08-2.83 10.45-4.56 7.66-3.95 15.48-5.37 23.94-2.79 14.17 4.31 28.36 8.58 42.65 12.5 5.62 1.54 10.23 3.7 12.02 9.7 2.61 17.16 5.38 34.3 7.73 51.5 0.87 6.33-5.33 13.13-12.1 13.24-18.65 0.29-37.31 0.33-55.96 0.05-3.21-0.05-6.38-2.15-9.57-3.3-2.15-4.54-5.24-8.87-6.29-13.65-4.62-20.83-8.64-41.78-12.87-62.69z"/> <path class="st23" d="m1454.6 1023.2c0.96-0.94 1.93-1.88 2.89-2.81 4.41 5.04 9.61 9.58 11.76 16.1l-1.92 1.53c-4.25-4.95-8.49-9.89-12.73-14.82z"/> <path class="st14" d="m1361.5 946.68c8.82 1.44 17.65 2.88 26.47 4.31 0.34 1.39 0.21 3.45 1.09 4.06 11.03 7.62 18.17 20.16 31.6 24.82 1.87 0.65 3.02 3.36 4.5 5.11-6.56-1.02-13.16-1.9-19.68-3.14-2.53-0.48-4.89-1.81-7.33-2.75-5.98-7.03-11.36-14.72-18.13-20.88-5.27-4.83-12.28-7.76-18.52-11.53z"/> <path class="st19" d="m1425.2 984.98c-1.48-1.76-2.63-4.47-4.5-5.11-13.43-4.66-20.57-17.2-31.6-24.82-0.88-0.61-0.75-2.67-1.09-4.06 15.09 3.99 26.35 13.95 37.41 24.17 3.01 2.79 5.83 5.79 8.74 8.69-2.28 6.07-5.32 5.98-8.96 1.13z"/> <path class="st26" d="m1479.7 1012.9c0.19 0.11 0.39 0.22 0.58 0.33-0.2-0.1-0.41-0.2-0.61-0.3 0.01 0 0.03-0.03 0.03-0.03z"/> <path class="st14" d="m953.64 1038c-6.05-0.26-10.43-4.54-10.28-10.04 0.17-6.19 5.92-11.23 12.44-10.61 6.09 0.58 8.92 4.85 9.47 10.3 0.55 5.55-5.56 10.61-11.63 10.35z"/> <path class="st14" d="m904.37 1024.7c-5.04-0.27-10.18-6.05-9.72-10.95 0.45-4.8 6.11-8.69 12.01-8.31 6.26 0.4 8.29 4.64 8.47 9.92 0.2 5.74-4.63 9.66-10.76 9.34z"/> <path class="st14" d="m862.19 1054.3c-5.34 0.01-10.77-5.04-10.43-10 0.4-5.81 4.27-8.58 9.55-9.11 4.87-0.49 10.87 4.68 10.99 8.81 0.15 5.32-4.73 10.28-10.11 10.3z"/> <path class="st14" d="m840.01 1064.7c-0.39 5.99-4.23 8.68-9.18 8.55-4.92-0.13-8.78-2.83-8.69-8.73 0.08-5.3 4.1-9.14 9.44-8.71 5.48 0.46 8.07 3.78 8.43 8.89z"/> <path class="st14" d="m893.59 978.27c-3.72 2.25-5.72 4.4-7.6 4.31-1.61-0.08-3.1-2.73-4.64-4.25 1.52-1.26 3.01-3.48 4.57-3.53 1.94-0.05 3.95 1.67 7.67 3.47z"/> <path class="st14" d="m835.18 1010.5c2.46-1.63 4.33-3.57 5.07-3.21 1.62 0.79 3.4 2.63 3.68 4.28 0.17 1.03-2.44 3.64-3.53 3.49-1.54-0.2-2.81-2.31-5.22-4.56z"/> <path class="st14" d="m970.46 1005c-2-2.16-3.22-3.49-4.44-4.81 1.5-1.17 2.86-2.84 4.56-3.32 0.91-0.26 3.56 1.92 3.42 2.34-0.58 1.78-1.92 3.31-3.54 5.79z"/> </svg>