<?xml version='1.0' encoding='utf-8'?>
<svg xmlns="http://www.w3.org/2000/svg" xmlns:xlink="http://www.w3.org/1999/xlink" enable-background="new 0 0 44.35 39.15" version="1.1" viewBox="0 0 44.35 39.15">
<symbol id="av" viewBox="0.037 -9.05 40.474 9.094">
		<path d="m31.65-1.7c0.667-0.1 1.667-0.216 3-0.35 0.934-0.1 1.934-0.567 3-1.4 0.8-0.566 1.5-1.216 2.1-1.95 0.567-0.633 0.817-1.133 0.75-1.5-0.1-0.6-0.883-1.233-2.35-1.9 1.133 0.566 1.1 1.45-0.1 2.65-0.967 0.967-2.15 1.75-3.55 2.35-0.867 0.4-1.867 0.633-3 0.7-0.3 0.033-1.25 0.05-2.85 0.05-0.7 0-2 0.133-3.9 0.4-2.467 0.4-4.217 0.65-5.25 0.75-1.467 0.133-3.167-0.033-5.1-0.5-2.5-0.567-3.917-0.867-4.25-0.9-0.9-0.1-1.667-0.417-2.3-0.95-0.9-0.767-1.934-1.367-3.1-1.8-2.3-0.867-3.217-1.867-2.75-3-0.767 0.6-1.3 1.15-1.6 1.65-0.467 0.4-0.483 0.817-0.05 1.25 0.3 0.3 0.983 0.75 2.05 1.35 0.6 0.333 1.433 0.95 2.5 1.85 1.067 0.733 2.183 1.117 3.35 1.15 1.067 0.066 2.733 0.333 5 0.8 2.4 0.5 3.95 0.783 4.65 0.85 4.033 0.4 7.367 0.183 10-0.65 1.333-0.433 2.583-0.733 3.75-0.9z" clip-rule="evenodd" fill-rule="evenodd"/>
</symbol>
<symbol id="aw" viewBox="-0.082 -5.588 21.166 5.591">
		<linearGradient id="cd" x2="21.1" y1="-2.7925" y2="-2.7925" gradientUnits="userSpaceOnUse">
			<stop stop-color="#DEB41D" offset="0"/>
			<stop stop-color="#D17D1D" offset="1"/>
		</linearGradient>
		<path d="m20.9-4.15c0.3-0.333 0.233-0.65-0.2-0.95-0.5-0.4-1.25-0.483-2.25-0.25-1.3 0.4-2.35 0.7-3.15 0.9-0.8 0.233-2.3 0.083-4.5-0.45-2.333-0.567-3.95-0.783-4.85-0.65-1.034 0.133-2 0.566-2.9 1.3-1.167 0.933-2 1.5-2.5 1.7-1.067 0.433-0.783 0.95 0.85 1.55s3.483 0.867 5.55 0.8c0.2 0 1.417 0.067 3.65 0.2 0.733 0.033 1.6-0.2 2.6-0.7 0.933-0.466 1.716-0.617 2.35-0.45 0.833 0.233 1.5 0.3 2 0.2 1.467-0.267 2.333-0.45 2.6-0.55 0.7-0.267 0.883-0.7 0.55-1.3-0.233-0.467-0.167-0.917 0.2-1.35z" clip-rule="evenodd" fill="url(#cd)" fill-rule="evenodd"/>
</symbol>
<symbol id="ax" viewBox="0 -12.55 12.75 12.55">
		<path d="m12.75-12.55c-3.2 1.233-5.917 2.933-8.15 5.1-2.267 2.233-3.8 4.717-4.6 7.45l0.35-0.05 0.75-0.45c0.533-1.567 1.4-3.2 2.6-4.9 2.367-3.267 5.383-5.65 9.05-7.15z" clip-rule="evenodd" fill="#595959" fill-rule="evenodd"/>
</symbol>
<symbol id="ay" viewBox="0 -13.1 17.2 13.1">
		<path d="m10.15-1.55c3.133 0.467 5.483 0.983 7.05 1.55-0.3-0.933-0.767-1.917-1.4-2.95-1.267-1.967-3.2-3.95-5.8-5.95-2.033-1.6-4.583-2.867-7.65-3.8l-2.35-0.4c4.067 1.567 6.9 3.667 8.5 6.3 0.767 1.2 1.267 2.333 1.5 3.4 0.033 0.233 0.083 0.85 0.15 1.85z" clip-rule="evenodd" fill="#595959" fill-rule="evenodd"/>
</symbol>
<symbol id="az" viewBox="0 -12.7 24.3 12.7">
			<linearGradient id="bb" x1="-22.464" x2="-6.7638" y1="-32.381" y2="-32.381" gradientTransform="matrix(1 -.0032 .0032 1 26.067 25.978)" gradientUnits="userSpaceOnUse">
			<stop stop-color="#fff" offset="0"/>
			<stop offset="1"/>
		</linearGradient>
		<path d="m24.3-1.7l-3.2-10.9-2.35-0.1c-0.033 0-0.95 0.05-2.75 0.15-1.133 0.167-2.383 0.5-3.75 1-1.433 0.533-2.633 1.117-3.6 1.75-3.066 2.033-5.433 4.267-7.1 6.7-0.833 1.233-1.35 2.267-1.55 3.1l2.65-0.55c4.434-0.833 9.867-1.25 16.3-1.25l5.35 0.1z" clip-rule="evenodd" fill="url(#bb)" fill-rule="evenodd"/>
</symbol>
<symbol id="a" viewBox="-0.062 -25.76 47.024 26.01">
		<defs>
			<path id="bm" d="m46.65-7.35c-0.7 1.367-1.583 2.467-2.65 3.3-1.233 1.066-2.667 1.8-4.3 2.2-0.7 0.2-1.4 0.35-2.1 0.45-1.367 0.4-2.817 0.717-4.35 0.95-1.6 0.3-3.133 0.517-4.6 0.65-0.267 0.033-0.517 0.05-0.75 0.05h-5.2c-1.1-0.167-2.233-0.267-3.4-0.3-1.633-0.167-3.216-0.35-4.75-0.55-1.367-0.133-2.767-0.383-4.2-0.75-1.233-0.267-2.483-0.617-3.75-1.05-1.133-0.4-2.183-0.95-3.15-1.65-1.167-0.733-2.133-1.6-2.9-2.6-0.467-0.633-0.667-1.383-0.6-2.25 0.033-0.767 0.216-1.583 0.55-2.45 0.533-1.333 1.217-2.6 2.05-3.8 0.934-1.3 2-2.5 3.2-3.6 1.133-1.067 2.45-1.95 3.95-2.65 0.469-0.232 1.178-0.349 2.125-0.35 0.94-3e-3 1.699-0.22 2.275-0.65 0.577-0.428 1.277-0.744 2.1-0.95 0.828-0.207 1.877-0.157 3.15 0.15 1.27 0.299 2.228 0.258 2.875-0.125 0.643-0.371 1.102-0.596 1.375-0.675 0.275-0.073 0.642-0.098 1.1-0.075 0.463 0.018 0.913 0.176 1.35 0.475 0.434 0.302 1.001 0.327 1.7 0.075 0.694-0.249 2.069 0.026 4.125 0.825 2.053 0.798 3.461 1.198 4.225 1.2 0.772 1e-3 1.764 0.46 2.975 1.375 1.208 0.917 2.324 1.925 3.35 3.025 1.02 1.1 1.928 2.283 2.725 3.55 0.867 1.333 1.45 2.8 1.75 4.4 0.133 0.6 0.05 1.2-0.25 1.8z"/>
		</defs>
		<clipPath id="au">
			<use xlink:href="#bm"/>
		</clipPath>
		<g clip-path="url(#au)">
				<path d="m46.05-10.65l0.2 0.05c-1.3-4.133-4.05-7.533-8.25-10.2-4.3-2.7-9.2-4.05-14.7-4.05-5.533 0-10.45 1.367-14.75 4.1-4.267 2.7-7 6.133-8.2 10.3l0.35-0.05c1.3-1 4.05-1.833 8.25-2.5 4.233-0.633 9.083-0.95 14.55-0.95 5.3 0 10.033 0.317 14.2 0.95 4.133 0.6 6.917 1.383 8.35 2.35z" clip-rule="evenodd" fill="#D9D9D9" fill-rule="evenodd"/>
					<use transform="translate(4.5498 -12.15)" y="-12.7" width="24.3" height="12.7" enable-background="new" opacity=".7188" xlink:href="#az"/>
					<use transform="translate(27.05 -11.5)" y="-13.1" width="17.2" height="13.1" enable-background="new" opacity=".1602" xlink:href="#ay"/>
					<use transform="translate(.3501 -10.45)" y="-12.55" width="12.75" height="12.55" enable-background="new" opacity=".3203" xlink:href="#ax"/>
				<linearGradient id="bo" x1=".7998" x2="46.05" y1="-8.6499" y2="-8.6499" gradientUnits="userSpaceOnUse">
					<stop stop-color="#7D7D7D" offset="0"/>
					<stop stop-color="#D4D4D4" offset="1"/>
				</linearGradient>
				<path d="m39.4-2.65c4.434-1.667 6.65-3.667 6.65-6 0-2.367-2.216-4.367-6.65-6-4.4-1.667-9.733-2.5-16-2.5-6.233 0-11.566 0.833-16 2.5-4.4 1.633-6.6 3.633-6.6 6 0 2.333 2.2 4.333 6.6 6 4.434 1.667 9.767 2.5 16 2.5 6.267 0 11.6-0.833 16-2.5z" clip-rule="evenodd" fill="url(#bo)" fill-rule="evenodd"/>
				<path d="m46.7-8h-1.45c-0.3 2.067-2.55 3.817-6.75 5.25s-9.2 2.15-15 2.15c-5.767 0-10.75-0.717-14.95-2.15s-6.45-3.183-6.75-5.25h-1.7c0.533 2.233 3.017 4.117 7.45 5.65 4.5 1.567 9.783 2.35 15.85 2.35 6.1 0 11.383-0.783 15.85-2.35 4.467-1.533 6.95-3.417 7.45-5.65z" clip-rule="evenodd" fill="#F5F5F5" fill-rule="evenodd"/>
				<linearGradient id="bp" x1="3.5869" x2="44.06" y1="-10.753" y2="-10.753" gradientUnits="userSpaceOnUse">
					<stop stop-color="#FFEA9E" offset="0"/>
					<stop stop-color="#C7AC77" offset="1"/>
				</linearGradient>
				<path d="m41.7-13.2c-1.867-0.867-4.583-1.716-8.15-2.55-4.066-0.967-7.45-1.433-10.15-1.4-4.033 0.066-7.667 0.433-10.9 1.1-4.467 0.966-7.317 2.383-8.55 4.25-0.467 0.4-0.483 0.816-0.05 1.25 0.3 0.3 0.983 0.75 2.05 1.35 0.6 0.333 1.433 0.95 2.5 1.85 1.066 0.733 2.183 1.117 3.35 1.15 1.067 0.067 2.733 0.333 5 0.8 2.4 0.5 3.95 0.783 4.65 0.85 4.033 0.4 7.367 0.183 10-0.65 1.333-0.433 2.583-0.733 3.75-0.9 0.667-0.1 1.667-0.217 3-0.35 1.667-0.2 3.367-1.316 5.1-3.35 0.567-0.633 0.817-1.133 0.75-1.5-0.1-0.6-0.883-1.233-2.35-1.9z" clip-rule="evenodd" fill="url(#bp)" fill-rule="evenodd"/>
				<path d="m12.55-8.7c0.567-0.1 0.717-0.316 0.45-0.65-0.3-0.3-0.667-0.45-1.1-0.45-0.7 0-1.133 0.017-1.3 0.05-0.5 0.1-0.767 0.367-0.8 0.8-0.033 0.434 0.25 0.633 0.85 0.6 0.033 0 0.667-0.117 1.9-0.35z" clip-rule="evenodd" fill="#FFF7DB" fill-rule="evenodd"/>
				<path d="m13.55-10.6c1.6 0 2.117-0.316 1.55-0.95-0.6-0.633-1.367-0.883-2.3-0.75-0.767 0.133-1 0.45-0.7 0.95s0.783 0.75 1.45 0.75z" clip-rule="evenodd" fill="#FFF7DB" fill-rule="evenodd"/>
				<path d="m8.45-11.3c0.667-0.067 0.75-0.3 0.25-0.7-0.467-0.367-1.017-0.4-1.65-0.1-0.6 0.233-0.633 0.45-0.1 0.65 0.5 0.2 1 0.25 1.5 0.15z" clip-rule="evenodd" fill="#FFF7DB" fill-rule="evenodd"/>
				<path d="m16.95-6.7c0.867-0.067 1.25-0.3 1.15-0.7-0.067-0.434-0.55-0.65-1.45-0.65-0.933 0-1.333 0.233-1.2 0.7s0.633 0.683 1.5 0.65z" clip-rule="evenodd" fill="#FFF7DB" fill-rule="evenodd"/>
				<path d="m22.15-7.1c0.733-0.066 1.3-0.233 1.7-0.5 0.233-0.167 0.6-0.417 1.1-0.75 0.533-0.233 0.583-0.417 0.15-0.55-0.4-0.1-1.083-0.117-2.05-0.05-0.633 0.034-0.966 0.167-1 0.4-0.033 0.3-0.333 0.5-0.9 0.6-0.833 0.167-1.066 0.367-0.7 0.6s0.933 0.317 1.7 0.25z" clip-rule="evenodd" fill="#FFF7DB" fill-rule="evenodd"/>
				<path d="m21.4-9.45c0.967-0.066 1.333-0.3 1.1-0.7-0.233-0.367-0.85-0.434-1.85-0.2-0.9 0.167-1.117 0.367-0.65 0.6s0.933 0.333 1.4 0.3z" clip-rule="evenodd" fill="#FFF7DB" fill-rule="evenodd"/>
				<path d="m23.05-13.05c2.067 0.1 3.184-0.217 3.35-0.95 0.2-0.867-0.3-1.133-1.5-0.8-0.733 0.2-1.267 0.267-1.6 0.2-0.4-0.066-0.783-0.066-1.15 0-0.7 0.067-0.9 0.333-0.6 0.8s0.8 0.717 1.5 0.75z" clip-rule="evenodd" fill="#FFF7DB" fill-rule="evenodd"/>
				<path d="m18.45-13.1c0.466-0.033 0.566-0.167 0.3-0.4-0.267-0.2-0.617-0.3-1.05-0.3-0.434 0-0.55 0.133-0.35 0.4 0.2 0.233 0.567 0.333 1.1 0.3z" clip-rule="evenodd" fill="#FFF7DB" fill-rule="evenodd"/>
				<path d="m31.8-9.45c1.4 0.034 2.133-0.233 2.2-0.8 0.033-0.5-0.333-0.9-1.1-1.2-0.467-0.2-0.767-0.25-0.9-0.15-0.4 0.267-0.85 0.45-1.35 0.55-0.833 0.2-1.017 0.517-0.55 0.95 0.467 0.4 1.033 0.617 1.7 0.65z" clip-rule="evenodd" fill="#FFF7DB" fill-rule="evenodd"/>
				<path d="m37.2-11.2c1.233-0.167 1.566-0.5 1-1-0.534-0.5-1.2-0.633-2-0.4-0.667 0.2-0.8 0.5-0.4 0.9 0.367 0.4 0.833 0.567 1.4 0.5z" clip-rule="evenodd" fill="#FFF7DB" fill-rule="evenodd"/>
				<path d="m31.8-7.2c1.167 0 1.567-0.167 1.2-0.5s-0.933-0.466-1.7-0.4c-0.633 0.033-0.85 0.184-0.65 0.45 0.233 0.3 0.617 0.45 1.15 0.45z" clip-rule="evenodd" fill="#FFF7DB" fill-rule="evenodd"/>
				<path d="m32.65-13.1c1.4-0.2 1.833-0.417 1.3-0.65-0.467-0.233-1.067-0.35-1.8-0.35-0.467 0-0.6 0.184-0.4 0.55 0.2 0.333 0.5 0.483 0.9 0.45z" clip-rule="evenodd" fill="#FFF7DB" fill-rule="evenodd"/>
					<use transform="translate(14.25 -7.5)" x="-0.082" y="-5.588" width="21.166" height="5.591" enable-background="new" opacity=".7891" xlink:href="#aw"/>
					<use transform="translate(3.5498 -4.3999)" x="0.037" y="-9.05" width="40.474" height="9.094" enable-background="new" opacity=".1719" xlink:href="#av"/>
				<linearGradient id="bq" x1="18.737" x2="25.362" y1="-8.6255" y2="-8.6255" gradientUnits="userSpaceOnUse">
					<stop stop-color="#BA782D" offset="0"/>
					<stop stop-color="#8C5414" offset="1"/>
				</linearGradient>
				<path d="m21.3-7.1c3.667-0.133 4.833-1.033 3.5-2.7-0.4-0.534-1.35-0.467-2.85 0.2-0.4 0.167-0.967 0.35-1.7 0.55-0.5 0.167-0.933 0.367-1.3 0.6-0.434 0.3-0.333 0.617 0.3 0.95 0.567 0.3 1.25 0.433 2.05 0.4z" clip-rule="evenodd" fill="url(#bq)" fill-rule="evenodd"/>
				<linearGradient id="br" x1="21.737" x2="25.162" y1="-9.9048" y2="-9.9048" gradientUnits="userSpaceOnUse">
					<stop stop-color="#BA782D" offset="0"/>
					<stop stop-color="#8C5414" offset="1"/>
				</linearGradient>
				<path d="m23.05-8.95c1.4 0 2.117-0.333 2.15-1 0-0.667-0.633-0.966-1.9-0.9-1.167 0.033-1.683 0.35-1.55 0.95 0.1 0.633 0.533 0.95 1.3 0.95z" clip-rule="evenodd" fill="url(#br)" fill-rule="evenodd"/>
				<linearGradient id="bs" x1="15.85" x2="18.45" y1="-9.9053" y2="-9.9053" gradientUnits="userSpaceOnUse">
					<stop stop-color="#BA782D" offset="0"/>
					<stop stop-color="#8C5414" offset="1"/>
				</linearGradient>
				<path d="m16.8-9.1c1.434 0 1.967-0.283 1.6-0.85-0.4-0.566-0.983-0.816-1.75-0.75-0.6 0.034-0.85 0.317-0.75 0.85 0.067 0.5 0.367 0.75 0.9 0.75z" clip-rule="evenodd" fill="url(#bs)" fill-rule="evenodd"/>
				<linearGradient id="bt" x1="18.71" x2="21.385" y1="-11.308" y2="-11.308" gradientUnits="userSpaceOnUse">
					<stop stop-color="#BA782D" offset="0"/>
					<stop stop-color="#8C5414" offset="1"/>
				</linearGradient>
				<path d="m20.05-10.8c1.367-0.133 1.733-0.35 1.1-0.65-0.667-0.333-1.316-0.45-1.95-0.35-0.467 0.1-0.6 0.316-0.4 0.65 0.2 0.3 0.617 0.417 1.25 0.35z" clip-rule="evenodd" fill="url(#bt)" fill-rule="evenodd"/>
				<linearGradient id="bu" x1="25.45" x2="28.45" y1="-7.7446" y2="-7.7446" gradientUnits="userSpaceOnUse">
					<stop stop-color="#BA782D" offset="0"/>
					<stop stop-color="#8C5414" offset="1"/>
				</linearGradient>
				<path d="m27.4-7.2c1.2-0.033 1.434-0.25 0.7-0.65-0.733-0.433-1.45-0.55-2.15-0.35-0.633 0.167-0.717 0.383-0.25 0.65 0.433 0.267 1 0.383 1.7 0.35z" clip-rule="evenodd" fill="url(#bu)" fill-rule="evenodd"/>
				<linearGradient id="bv" x1="26.312" x2="29.888" y1="-10.378" y2="-10.378" gradientUnits="userSpaceOnUse">
					<stop stop-color="#BA782D" offset="0"/>
					<stop stop-color="#8C5414" offset="1"/>
				</linearGradient>
				<path d="m28.4-9.6c0.934-0.1 1.417-0.267 1.45-0.5 0.033-0.167-0.15-0.417-0.55-0.75-0.267-0.267-0.617-0.367-1.05-0.3-0.6 0.1-1.117 0.2-1.55 0.3-0.6 0.133-0.617 0.383-0.05 0.75 0.567 0.4 1.15 0.567 1.75 0.5z" clip-rule="evenodd" fill="url(#bv)" fill-rule="evenodd"/>
				<linearGradient id="bw" x1="27.225" x2="30.875" y1="-11.443" y2="-11.443" gradientUnits="userSpaceOnUse">
					<stop stop-color="#BA782D" offset="0"/>
					<stop stop-color="#8C5414" offset="1"/>
				</linearGradient>
				<path d="m28.45-10.8c0.733-0.133 1.35-0.333 1.85-0.6 0.534-0.233 0.7-0.417 0.5-0.55-0.167-0.1-0.517-0.15-1.05-0.15-0.767 0.033-1.383 0.05-1.85 0.05-0.667 0-0.85 0.233-0.55 0.7 0.3 0.433 0.667 0.617 1.1 0.55z" clip-rule="evenodd" fill="url(#bw)" fill-rule="evenodd"/>
				<linearGradient id="bx" x1="25.45" x2="28.25" y1="-13.051" y2="-13.051" gradientUnits="userSpaceOnUse">
					<stop stop-color="#BA782D" offset="0"/>
					<stop stop-color="#8C5414" offset="1"/>
				</linearGradient>
				<path d="m26.05-12.3c1.6 0 2.333-0.233 2.2-0.7s-0.667-0.733-1.6-0.8c-0.733-0.034-1.133 0.216-1.2 0.75-0.067 0.5 0.133 0.75 0.6 0.75z" clip-rule="evenodd" fill="url(#bx)" fill-rule="evenodd"/>
				<linearGradient id="by" x1="32.55" x2="34.85" y1="-10.95" y2="-10.95" gradientUnits="userSpaceOnUse">
					<stop stop-color="#BA782D" offset="0"/>
					<stop stop-color="#8C5414" offset="1"/>
				</linearGradient>
				<path d="m34.05-10.35c0.733 0.133 0.967-0.066 0.7-0.6-0.267-0.533-0.783-0.733-1.55-0.6-0.7 0.1-0.867 0.3-0.5 0.6 0.3 0.267 0.75 0.467 1.35 0.6z" clip-rule="evenodd" fill="url(#by)" fill-rule="evenodd"/>
				<linearGradient id="bz" x1="32.575" x2="35.025" y1="-8.4434" y2="-8.4434" gradientUnits="userSpaceOnUse">
					<stop stop-color="#BA782D" offset="0"/>
					<stop stop-color="#8C5414" offset="1"/>
				</linearGradient>
				<path d="m34.15-7.85c0.867-0.1 1.15-0.333 0.85-0.7-0.3-0.333-0.867-0.5-1.7-0.5-0.767 0-0.95 0.216-0.55 0.65 0.4 0.433 0.867 0.617 1.4 0.55z" clip-rule="evenodd" fill="url(#bz)" fill-rule="evenodd"/>
				<linearGradient id="ca" x1="22.55" x2="25.15" y1="-6.103" y2="-6.103" gradientUnits="userSpaceOnUse">
					<stop stop-color="#BA782D" offset="0"/>
					<stop stop-color="#8C5414" offset="1"/>
				</linearGradient>
				<path d="m23.9-5.55c1.1-0.333 1.467-0.633 1.1-0.9-0.3-0.233-0.9-0.316-1.8-0.25-0.7 0.034-0.883 0.267-0.55 0.7 0.367 0.467 0.783 0.617 1.25 0.45z" clip-rule="evenodd" fill="url(#ca)" fill-rule="evenodd"/>
				<linearGradient id="cb" x1="17.888" x2="19.713" y1="-6.5664" y2="-6.5664" gradientUnits="userSpaceOnUse">
					<stop stop-color="#BA782D" offset="0"/>
					<stop stop-color="#8C5414" offset="1"/>
				</linearGradient>
				<path d="m18.95-6.1c0.6-0.133 0.85-0.316 0.75-0.55-0.1-0.267-0.483-0.4-1.15-0.4-0.633 0-0.833 0.183-0.6 0.55 0.233 0.333 0.567 0.467 1 0.4z" clip-rule="evenodd" fill="url(#cb)" fill-rule="evenodd"/>
				<linearGradient id="cc" x1="13.45" x2="16.15" y1="-8.8213" y2="-8.8213" gradientUnits="userSpaceOnUse">
					<stop stop-color="#BA782D" offset="0"/>
					<stop stop-color="#8C5414" offset="1"/>
				</linearGradient>
				<path d="m15.05-8.1c0.6 0.033 0.967-0.05 1.1-0.25 0.1-0.133 0.017-0.283-0.25-0.45-0.233-0.2-0.417-0.35-0.55-0.45-0.3-0.2-0.733-0.3-1.3-0.3-0.667 0-0.816 0.233-0.45 0.7 0.367 0.433 0.85 0.683 1.45 0.75z" clip-rule="evenodd" fill="url(#cc)" fill-rule="evenodd"/>
				<linearGradient id="ce" x1="13.062" x2="15.538" y1="-10.798" y2="-10.798" gradientUnits="userSpaceOnUse">
					<stop stop-color="#BA782D" offset="0"/>
					<stop stop-color="#8C5414" offset="1"/>
				</linearGradient>
				<path d="m14.2-10.2c1.333-0.267 1.683-0.566 1.05-0.9-0.667-0.3-1.283-0.383-1.85-0.25-0.433 0.067-0.5 0.3-0.2 0.7 0.267 0.367 0.6 0.517 1 0.45z" clip-rule="evenodd" fill="url(#ce)" fill-rule="evenodd"/>
				<linearGradient id="cf" x1="15.3" x2="17.8" y1="-12.823" y2="-12.823" gradientUnits="userSpaceOnUse">
					<stop stop-color="#BA782D" offset="0"/>
					<stop stop-color="#8C5414" offset="1"/>
				</linearGradient>
				<path d="m16.2-12.1c1.2-0.133 1.733-0.4 1.6-0.8-0.167-0.434-0.7-0.65-1.6-0.65-0.7 0-1 0.25-0.9 0.75 0.133 0.5 0.433 0.733 0.9 0.7z" clip-rule="evenodd" fill="url(#cf)" fill-rule="evenodd"/>
				<linearGradient id="cg" x1="9.4868" x2="10.912" y1="-11.208" y2="-11.208" gradientUnits="userSpaceOnUse">
					<stop stop-color="#BA782D" offset="0"/>
					<stop stop-color="#8C5414" offset="1"/>
				</linearGradient>
				<path d="m10.05-10.7c0.633 0 0.917-0.15 0.85-0.45-0.066-0.3-0.316-0.483-0.75-0.55-0.367-0.066-0.583 0.083-0.65 0.45s0.117 0.55 0.55 0.55z" clip-rule="evenodd" fill="url(#cg)" fill-rule="evenodd"/>
				<path d="m45.25-8h1.45c0.066-0.167 0.1-0.417 0.1-0.75 0-2.433-2.283-4.5-6.85-6.2s-10.083-2.55-16.55-2.55-11.983 0.85-16.55 2.55-6.85 3.767-6.85 6.2l0.1 0.75h1.7v-0.4c0-2.167 2.117-4 6.35-5.5 4.233-1.533 9.35-2.3 15.35-2.3 6.033 0 11.167 0.767 15.4 2.3 4.233 1.5 6.35 3.333 6.35 5.5v0.4z" clip-rule="evenodd" fill="#F5F5F5" fill-rule="evenodd"/>
		</g>
		<g clip-path="url(#au)">
			<path d="m24.225-23.125c0.15 0.027 0.542 0.094 1.175 0.2 0.64 0.102 1.29 0.285 1.95 0.55 0.655 0.26 1.497 0.243 2.525-0.05 1.026-0.288 3.185 0.321 6.475 1.825 3.298 1.497 3.665 0.922 1.1-1.725-2.572-2.651-7.838-3.768-15.8-3.35-7.965 0.418-12.298 1.977-13 4.675 0.411 0.537 1.32 0.529 2.725-0.025 1.41-0.557 2.435-0.84 3.075-0.85 0.632-6e-3 1.374-0.223 2.225-0.65 0.858-0.428 1.667-0.503 2.425-0.225 0.75 0.281 1.55 0.289 2.4 0.025 0.862-0.269 1.496-0.411 1.9-0.425 0.401-0.01 0.676-2e-3 0.825 0.025z" clip-rule="evenodd" fill="#818181" fill-rule="evenodd"/>
		</g>
</symbol>
		<path d="m39.737 28.487l0.15-0.037c-0.975 3.1-3.037 5.649-6.188 7.649-3.225 2.025-6.9 3.037-11.025 3.037-4.149 0-7.837-1.024-11.063-3.074-3.2-2.025-5.25-4.6-6.149-7.725l0.263 0.037c0.975 0.75 3.037 1.375 6.188 1.875 3.174 0.475 6.812 0.713 10.912 0.713 3.975 0 7.524-0.238 10.65-0.713 3.1-0.449 5.187-1.036 6.262-1.762z" clip-rule="evenodd" fill="#D9D9D9" fill-rule="evenodd"/>
			<use transform="matrix(.75 0 0 -.75 8.6001 29.6)" y="-12.7" width="24.3" height="12.7" enable-background="new" opacity=".7188" xlink:href="#az"/>
			<use transform="matrix(.75 0 0 -.75 25.5 29.1)" y="-13.1" width="17.2" height="13.1" enable-background="new" opacity=".1602" xlink:href="#ay"/>
			<use transform="matrix(.75 0 0 -.75 5.4502 28.35)" y="-12.55" width="12.75" height="12.55" enable-background="new" opacity=".3203" xlink:href="#ax"/>
			<linearGradient id="ch" x1=".7998" x2="46.05" y1="8.6499" y2="8.6499" gradientTransform="matrix(.75 0 0 .75 5.2002 20.5)" gradientUnits="userSpaceOnUse">
			<stop stop-color="#7D7D7D" offset="0"/>
			<stop stop-color="#D4D4D4" offset="1"/>
		</linearGradient>
		<path d="m34.75 22.487c3.325 1.25 4.987 2.75 4.987 4.5 0 1.775-1.662 3.275-4.987 4.5-3.3 1.25-7.3 1.875-12 1.875-4.675 0-8.675-0.625-12-1.875-3.3-1.225-4.95-2.725-4.95-4.5 0-1.75 1.65-3.25 4.95-4.5 3.325-1.25 7.325-1.875 12-1.875 4.7 0 8.7 0.625 12 1.875z" clip-rule="evenodd" fill="url(#ch)" fill-rule="evenodd"/>
		<path d="m40.226 26.5h-1.088c-0.225-1.55-1.912-2.862-5.063-3.938s-6.9-1.612-11.25-1.612c-4.325 0-8.063 0.537-11.213 1.612-3.149 1.076-4.837 2.388-5.062 3.938h-1.275c0.4-1.675 2.262-3.088 5.587-4.237 3.375-1.175 7.338-1.763 11.888-1.763 4.575 0 8.537 0.588 11.888 1.763 3.35 1.149 5.213 2.562 5.588 4.237z" clip-rule="evenodd" fill="#F5F5F5" fill-rule="evenodd"/>
			<linearGradient id="ci" x1="3.5874" x2="44.06" y1="10.753" y2="10.753" gradientTransform="matrix(.75 0 0 .75 5.2002 20.5)" gradientUnits="userSpaceOnUse">
			<stop stop-color="#FFEA9E" offset="0"/>
			<stop stop-color="#C7AC77" offset="1"/>
		</linearGradient>
		<path d="m36.476 30.4c-1.4 0.649-3.438 1.287-6.113 1.912-3.05 0.725-5.587 1.075-7.612 1.05-3.025-0.05-5.75-0.325-8.175-0.825-3.35-0.725-5.488-1.787-6.412-3.188-0.351-0.3-0.363-0.612-0.038-0.938 0.226-0.225 0.738-0.563 1.538-1.012 0.449-0.25 1.075-0.713 1.875-1.388 0.8-0.55 1.637-0.838 2.512-0.862 0.8-0.051 2.05-0.25 3.75-0.601 1.801-0.375 2.963-0.587 3.488-0.638 3.024-0.3 5.524-0.137 7.5 0.488 0.999 0.324 1.937 0.55 2.813 0.675 0.499 0.075 1.249 0.162 2.25 0.263 1.249 0.149 2.524 0.987 3.824 2.512 0.425 0.476 0.612 0.851 0.563 1.125-0.076 0.452-0.664 0.927-1.763 1.427z" clip-rule="evenodd" fill="url(#ci)" fill-rule="evenodd"/>
		<path d="m14.612 27.025c0.425 0.074 0.538 0.237 0.338 0.487-0.225 0.225-0.5 0.337-0.825 0.337-0.524 0-0.85-0.012-0.975-0.037-0.375-0.075-0.575-0.275-0.601-0.6-0.024-0.325 0.188-0.476 0.638-0.45 0.025 1e-3 0.501 0.088 1.425 0.263z" clip-rule="evenodd" fill="#FFF7DB" fill-rule="evenodd"/>
		<path d="m15.362 28.45c1.2 0 1.588 0.237 1.163 0.712-0.45 0.476-1.025 0.663-1.726 0.563-0.575-0.1-0.75-0.337-0.524-0.712 0.225-0.375 0.588-0.563 1.087-0.563z" clip-rule="evenodd" fill="#FFF7DB" fill-rule="evenodd"/>
		<path d="m11.538 28.975c0.5 0.051 0.563 0.226 0.188 0.525-0.351 0.275-0.763 0.3-1.238 0.075-0.449-0.175-0.475-0.338-0.074-0.487 0.374-0.15 0.749-0.188 1.124-0.113z" clip-rule="evenodd" fill="#FFF7DB" fill-rule="evenodd"/>
		<path d="m17.913 25.525c0.65 0.05 0.938 0.225 0.862 0.524-0.05 0.325-0.413 0.487-1.088 0.487-0.7 0-1-0.175-0.899-0.524 0.1-0.35 0.475-0.512 1.125-0.487z" clip-rule="evenodd" fill="#FFF7DB" fill-rule="evenodd"/>
		<path d="m21.813 25.825c0.55 0.05 0.975 0.175 1.275 0.375 0.175 0.125 0.45 0.313 0.825 0.563 0.399 0.175 0.437 0.313 0.112 0.412-0.3 0.075-0.813 0.088-1.538 0.038-0.475-0.025-0.725-0.125-0.75-0.301-0.024-0.225-0.25-0.375-0.675-0.449-0.625-0.125-0.8-0.275-0.524-0.45 0.275-0.175 0.7-0.238 1.275-0.188z" clip-rule="evenodd" fill="#FFF7DB" fill-rule="evenodd"/>
		<path d="m21.25 27.588c0.725 0.05 1 0.225 0.825 0.524-0.175 0.275-0.638 0.325-1.388 0.15-0.675-0.125-0.837-0.275-0.487-0.45s0.7-0.249 1.05-0.224z" clip-rule="evenodd" fill="#FFF7DB" fill-rule="evenodd"/>
		<path d="m22.487 30.287c1.55-0.074 2.388 0.163 2.513 0.713 0.15 0.65-0.225 0.85-1.125 0.6-0.55-0.149-0.949-0.199-1.2-0.149-0.3 0.05-0.587 0.05-0.862 0-0.525-0.05-0.675-0.25-0.451-0.601 0.226-0.35 0.6-0.537 1.125-0.563z" clip-rule="evenodd" fill="#FFF7DB" fill-rule="evenodd"/>
		<path d="m19.038 30.325c0.35 0.024 0.425 0.125 0.225 0.3-0.2 0.15-0.462 0.225-0.787 0.225s-0.413-0.1-0.263-0.3c0.149-0.175 0.425-0.25 0.825-0.225z" clip-rule="evenodd" fill="#FFF7DB" fill-rule="evenodd"/>
		<path d="m29.05 27.588c1.051-0.025 1.601 0.175 1.65 0.6 0.024 0.375-0.25 0.675-0.825 0.9-0.35 0.149-0.574 0.188-0.675 0.112-0.3-0.2-0.638-0.338-1.013-0.413-0.625-0.149-0.762-0.387-0.412-0.712 0.35-0.3 0.776-0.463 1.275-0.487z" clip-rule="evenodd" fill="#FFF7DB" fill-rule="evenodd"/>
		<path d="m33.101 28.9c0.925 0.125 1.175 0.375 0.75 0.75-0.4 0.375-0.9 0.475-1.5 0.3-0.501-0.15-0.601-0.375-0.301-0.675 0.275-0.3 0.626-0.425 1.051-0.375z" clip-rule="evenodd" fill="#FFF7DB" fill-rule="evenodd"/>
		<path d="m29.05 25.9c0.876 0 1.175 0.125 0.9 0.375s-0.7 0.35-1.275 0.3c-0.475-0.025-0.637-0.138-0.487-0.338 0.175-0.224 0.462-0.337 0.862-0.337z" clip-rule="evenodd" fill="#FFF7DB" fill-rule="evenodd"/>
		<path d="m29.688 30.325c1.05 0.149 1.375 0.313 0.976 0.487-0.351 0.175-0.8 0.263-1.351 0.263-0.35 0-0.45-0.138-0.3-0.413 0.15-0.25 0.375-0.362 0.675-0.337z" clip-rule="evenodd" fill="#FFF7DB" fill-rule="evenodd"/>
			<use transform="matrix(.75 0 0 -.75 15.9 26.1)" x="-0.082" y="-5.588" width="21.166" height="5.591" enable-background="new" opacity=".7891" xlink:href="#aw"/>
			<use transform="matrix(.75 0 0 -.75 7.8501 23.8)" x="0.037" y="-9.05" width="40.474" height="9.094" enable-background="new" opacity=".1719" xlink:href="#av"/>
			<linearGradient id="cj" x1="18.737" x2="25.362" y1="8.6255" y2="8.6255" gradientTransform="matrix(.75 0 0 .75 5.2002 20.5)" gradientUnits="userSpaceOnUse">
			<stop stop-color="#BA782D" offset="0"/>
			<stop stop-color="#8C5414" offset="1"/>
		</linearGradient>
		<path d="m21.175 25.825c2.751 0.1 3.626 0.774 2.625 2.024-0.3 0.4-1.012 0.351-2.137-0.149-0.301-0.125-0.726-0.263-1.275-0.413-0.375-0.125-0.7-0.274-0.975-0.449-0.325-0.226-0.25-0.463 0.225-0.713 0.425-0.225 0.937-0.325 1.537-0.3z" clip-rule="evenodd" fill="url(#cj)" fill-rule="evenodd"/>
			<linearGradient id="ck" x1="21.737" x2="25.162" y1="9.9053" y2="9.9053" gradientTransform="matrix(.75 0 0 .75 5.2002 20.5)" gradientUnits="userSpaceOnUse">
			<stop stop-color="#BA782D" offset="0"/>
			<stop stop-color="#8C5414" offset="1"/>
		</linearGradient>
		<path d="m22.487 27.213c1.051 0 1.588 0.25 1.613 0.75 0 0.5-0.476 0.725-1.426 0.675-0.874-0.025-1.262-0.263-1.162-0.713 0.076-0.475 0.401-0.712 0.975-0.712z" clip-rule="evenodd" fill="url(#ck)" fill-rule="evenodd"/>
			<linearGradient id="cl" x1="15.85" x2="18.45" y1="9.9058" y2="9.9058" gradientTransform="matrix(.75 0 0 .75 5.2002 20.5)" gradientUnits="userSpaceOnUse">
			<stop stop-color="#BA782D" offset="0"/>
			<stop stop-color="#8C5414" offset="1"/>
		</linearGradient>
		<path d="m17.8 27.325c1.075 0 1.476 0.212 1.2 0.638-0.3 0.425-0.737 0.612-1.313 0.563-0.45-0.025-0.638-0.238-0.563-0.638 0.051-0.375 0.276-0.563 0.676-0.563z" clip-rule="evenodd" fill="url(#cl)" fill-rule="evenodd"/>
			<linearGradient id="cm" x1="18.71" x2="21.385" y1="11.308" y2="11.308" gradientTransform="matrix(.75 0 0 .75 5.2002 20.5)" gradientUnits="userSpaceOnUse">
			<stop stop-color="#BA782D" offset="0"/>
			<stop stop-color="#8C5414" offset="1"/>
		</linearGradient>
		<path d="m20.237 28.6c1.025 0.101 1.3 0.263 0.825 0.488-0.5 0.25-0.987 0.337-1.462 0.262-0.351-0.074-0.45-0.237-0.301-0.487 0.151-0.225 0.464-0.313 0.938-0.263z" clip-rule="evenodd" fill="url(#cm)" fill-rule="evenodd"/>
			<linearGradient id="ba" x1="25.45" x2="28.45" y1="7.7451" y2="7.7451" gradientTransform="matrix(.75 0 0 .75 5.2002 20.5)" gradientUnits="userSpaceOnUse">
			<stop stop-color="#BA782D" offset="0"/>
			<stop stop-color="#8C5414" offset="1"/>
		</linearGradient>
		<path d="m25.75 25.9c0.9 0.024 1.075 0.188 0.525 0.487-0.551 0.325-1.088 0.412-1.612 0.263-0.476-0.125-0.538-0.288-0.188-0.488 0.326-0.199 0.751-0.287 1.275-0.262z" clip-rule="evenodd" fill="url(#ba)" fill-rule="evenodd"/>
			<linearGradient id="bc" x1="26.312" x2="29.888" y1="10.378" y2="10.378" gradientTransform="matrix(.75 0 0 .75 5.2002 20.5)" gradientUnits="userSpaceOnUse">
			<stop stop-color="#BA782D" offset="0"/>
			<stop stop-color="#8C5414" offset="1"/>
		</linearGradient>
		<path d="m26.5 27.7c0.7 0.075 1.063 0.2 1.088 0.375 0.025 0.125-0.112 0.313-0.413 0.563-0.2 0.2-0.462 0.274-0.787 0.225-0.45-0.075-0.837-0.149-1.162-0.225-0.45-0.101-0.463-0.288-0.038-0.563 0.425-0.3 0.862-0.425 1.312-0.375z" clip-rule="evenodd" fill="url(#bc)" fill-rule="evenodd"/>
			<linearGradient id="bd" x1="27.225" x2="30.875" y1="11.443" y2="11.443" gradientTransform="matrix(.75 0 0 .75 5.2002 20.5)" gradientUnits="userSpaceOnUse">
			<stop stop-color="#BA782D" offset="0"/>
			<stop stop-color="#8C5414" offset="1"/>
		</linearGradient>
		<path d="m26.538 28.6c0.55 0.101 1.012 0.25 1.387 0.45 0.4 0.175 0.525 0.313 0.375 0.413-0.124 0.074-0.388 0.112-0.787 0.112-0.575-0.025-1.038-0.038-1.388-0.038-0.5 0-0.638-0.175-0.412-0.524 0.225-0.325 0.5-0.463 0.825-0.413z" clip-rule="evenodd" fill="url(#bd)" fill-rule="evenodd"/>
			<linearGradient id="be" x1="25.45" x2="28.25" y1="13.051" y2="13.051" gradientTransform="matrix(.75 0 0 .75 5.2002 20.5)" gradientUnits="userSpaceOnUse">
			<stop stop-color="#BA782D" offset="0"/>
			<stop stop-color="#8C5414" offset="1"/>
		</linearGradient>
		<path d="m24.737 29.725c1.2 0 1.751 0.176 1.65 0.525s-0.5 0.55-1.2 0.6c-0.55 0.025-0.85-0.162-0.899-0.563-0.05-0.375 0.1-0.562 0.449-0.562z" clip-rule="evenodd" fill="url(#be)" fill-rule="evenodd"/>
			<linearGradient id="bf" x1="32.55" x2="34.85" y1="10.95" y2="10.95" gradientTransform="matrix(.75 0 0 .75 5.2002 20.5)" gradientUnits="userSpaceOnUse">
			<stop stop-color="#BA782D" offset="0"/>
			<stop stop-color="#8C5414" offset="1"/>
		</linearGradient>
		<path d="m30.737 28.263c0.55-0.101 0.726 0.05 0.525 0.45-0.2 0.399-0.587 0.55-1.162 0.449-0.525-0.074-0.65-0.225-0.375-0.449 0.225-0.2 0.563-0.351 1.012-0.45z" clip-rule="evenodd" fill="url(#bf)" fill-rule="evenodd"/>
			<linearGradient id="bg" x1="32.575" x2="35.025" y1="8.4434" y2="8.4434" gradientTransform="matrix(.75 0 0 .75 5.2002 20.5)" gradientUnits="userSpaceOnUse">
			<stop stop-color="#BA782D" offset="0"/>
			<stop stop-color="#8C5414" offset="1"/>
		</linearGradient>
		<path d="m30.813 26.388c0.65 0.075 0.862 0.25 0.638 0.524-0.225 0.25-0.649 0.375-1.275 0.375-0.575 0-0.712-0.162-0.412-0.487s0.648-0.462 1.049-0.412z" clip-rule="evenodd" fill="url(#bg)" fill-rule="evenodd"/>
			<linearGradient id="bh" x1="22.55" x2="25.15" y1="6.1035" y2="6.1035" gradientTransform="matrix(.75 0 0 .75 5.2002 20.5)" gradientUnits="userSpaceOnUse">
			<stop stop-color="#BA782D" offset="0"/>
			<stop stop-color="#8C5414" offset="1"/>
		</linearGradient>
		<path d="m23.125 24.662c0.825 0.25 1.1 0.476 0.825 0.676-0.225 0.175-0.675 0.237-1.35 0.188-0.525-0.025-0.663-0.2-0.413-0.525 0.276-0.351 0.588-0.464 0.938-0.339z" clip-rule="evenodd" fill="url(#bh)" fill-rule="evenodd"/>
			<linearGradient id="bi" x1="17.888" x2="19.713" y1="6.5669" y2="6.5669" gradientTransform="matrix(.75 0 0 .75 5.2002 20.5)" gradientUnits="userSpaceOnUse">
			<stop stop-color="#BA782D" offset="0"/>
			<stop stop-color="#8C5414" offset="1"/>
		</linearGradient>
		<path d="m19.413 25.075c0.449 0.1 0.637 0.237 0.563 0.412-0.075 0.2-0.363 0.3-0.863 0.3-0.475 0-0.625-0.137-0.449-0.412 0.173-0.25 0.424-0.35 0.749-0.3z" clip-rule="evenodd" fill="url(#bi)" fill-rule="evenodd"/>
			<linearGradient id="bj" x1="13.45" x2="16.15" y1="8.8213" y2="8.8213" gradientTransform="matrix(.75 0 0 .75 5.2002 20.5)" gradientUnits="userSpaceOnUse">
			<stop stop-color="#BA782D" offset="0"/>
			<stop stop-color="#8C5414" offset="1"/>
		</linearGradient>
		<path d="m16.487 26.575c0.45-0.025 0.726 0.037 0.825 0.188 0.075 0.1 0.013 0.212-0.188 0.337-0.175 0.15-0.313 0.263-0.412 0.338-0.226 0.15-0.55 0.225-0.976 0.225-0.5 0-0.612-0.175-0.337-0.524 0.276-0.326 0.639-0.514 1.088-0.564z" clip-rule="evenodd" fill="url(#bj)" fill-rule="evenodd"/>
			<linearGradient id="bk" x1="13.062" x2="15.538" y1="10.798" y2="10.798" gradientTransform="matrix(.75 0 0 .75 5.2002 20.5)" gradientUnits="userSpaceOnUse">
			<stop stop-color="#BA782D" offset="0"/>
			<stop stop-color="#8C5414" offset="1"/>
		</linearGradient>
		<path d="m15.851 28.15c1 0.199 1.262 0.425 0.787 0.675-0.5 0.225-0.962 0.287-1.388 0.188-0.325-0.05-0.375-0.226-0.149-0.525 0.199-0.275 0.449-0.388 0.75-0.338z" clip-rule="evenodd" fill="url(#bk)" fill-rule="evenodd"/>
			<linearGradient id="bl" x1="15.3" x2="17.8" y1="12.823" y2="12.823" gradientTransform="matrix(.75 0 0 .75 5.2002 20.5)" gradientUnits="userSpaceOnUse">
			<stop stop-color="#BA782D" offset="0"/>
			<stop stop-color="#8C5414" offset="1"/>
		</linearGradient>
		<path d="m17.351 29.575c0.899 0.1 1.299 0.3 1.199 0.6-0.125 0.325-0.524 0.487-1.199 0.487-0.525 0-0.75-0.188-0.676-0.563 0.1-0.374 0.325-0.549 0.676-0.524z" clip-rule="evenodd" fill="url(#bl)" fill-rule="evenodd"/>
			<linearGradient id="bn" x1="9.4868" x2="10.912" y1="11.208" y2="11.208" gradientTransform="matrix(.75 0 0 .75 5.2002 20.5)" gradientUnits="userSpaceOnUse">
			<stop stop-color="#BA782D" offset="0"/>
			<stop stop-color="#8C5414" offset="1"/>
		</linearGradient>
		<path d="m12.737 28.525c0.475 0 0.688 0.112 0.638 0.337-0.05 0.226-0.237 0.362-0.563 0.413-0.275 0.05-0.437-0.063-0.487-0.338s0.088-0.412 0.412-0.412z" clip-rule="evenodd" fill="url(#bn)" fill-rule="evenodd"/>
		<path d="m39.138 26.5h1.088c0.05 0.125 0.074 0.313 0.074 0.563 0 1.825-1.712 3.375-5.137 4.65-3.425 1.274-7.563 1.912-12.413 1.912s-8.987-0.638-12.412-1.912c-3.425-1.275-5.138-2.825-5.138-4.65l0.075-0.563h1.275v0.3c0 1.625 1.588 3 4.763 4.125 3.175 1.15 7.013 1.726 11.513 1.726 4.524 0 8.375-0.575 11.55-1.726 3.176-1.125 4.763-2.5 4.763-4.125v-0.3z" clip-rule="evenodd" fill="#F5F5F5" fill-rule="evenodd"/>
		<use transform="matrix(.7483 -.0505 -.0505 -.7483 4.1001 15.2)" x="-0.062" y="-25.76" width="47.024" height="26.01" xlink:href="#a"/>
		<use transform="matrix(.75 .0036 .0036 -.75 5.2998 7.5)" x="-0.062" y="-25.76" width="47.024" height="26.01" xlink:href="#a"/>
		<use transform="matrix(.749 -.0381 -.0381 -.749 3.9502 2)" x="-0.062" y="-25.76" width="47.024" height="26.01" xlink:href="#a"/>
	<g clip-rule="evenodd" fill-rule="evenodd">
		<path d="m37.7 17.9c-0.2 0.367-0.634 0.55-1.3 0.55-0.367 0.066-0.584-0.034-0.65-0.3-0.033-0.3-0.083-0.2-0.15 0.3-0.066 0.5-0.166 0.95-0.3 1.35-0.133 0.434-0.333 0.601-0.6 0.5-0.167-0.066-0.267-0.25-0.3-0.55-0.134-0.3-0.284-0.45-0.45-0.45-0.233-0.033-0.367 0-0.4 0.1-0.066 0.1-0.35 0.2-0.85 0.3-0.066 0-0.134-0.034-0.2-0.1-0.1-0.033-0.267 0.133-0.5 0.5-0.3 0.301-0.583 0.334-0.85 0.101-0.134-0.167-0.301-0.333-0.5-0.5-0.134-0.167-0.2-0.333-0.2-0.5-0.066-0.1 0.05-0.25 0.35-0.45 0 0.033-0.017 0.067-0.05 0.1 0 0.333 0.15 0.467 0.45 0.4 0.2 0.033 1.05-0.117 2.55-0.45 0.134-0.066 0.3-0.183 0.5-0.35 0.267-0.2 0.467-0.333 0.6-0.4 0.934-0.333 1.551-0.533 1.851-0.6 0.533-0.233 0.767-0.5 0.7-0.8 0-0.467-0.233-0.65-0.7-0.55 0.267-0.1 0.5-0.15 0.7-0.15 0.3 0 0.466 0.35 0.5 1.05 0.066 0.333 0.017 0.617-0.15 0.85l-0.051 0.049zm-23.75-6.1c-0.367 0-0.55 0.167-0.55 0.5 0 0.1 0.033 0.2 0.1 0.3 0.1 0.133 0.267 0.2 0.5 0.2 0.2 0 0.4-0.066 0.6-0.2 0.133-0.1 0.2-0.2 0.2-0.3 0-0.066-0.066-0.167-0.2-0.3-0.2-0.133-0.417-0.2-0.65-0.2zm1.35-0.1c0 0.066-0.15 0.367-0.45 0.9-0.233 0.433-0.35 0.733-0.35 0.9 0 0.2 0.033 0.45 0.1 0.75 0.167 0.333 0.25 0.583 0.25 0.75 0 0.2 0.05 0.45 0.15 0.75 0.133 0.3 0.2 0.55 0.2 0.75 0 0.1-0.067 0.15-0.2 0.15-0.467 0-0.75-0.267-0.85-0.8-0.133-0.3-0.217-0.533-0.25-0.7-0.033-0.2-0.117-0.367-0.25-0.5-0.267-0.333-0.433-0.65-0.5-0.95-0.033-0.267-0.05-0.583-0.05-0.95 0-0.4 0.017-0.65 0.05-0.75 0.233-0.3 0.717-0.45 1.45-0.45 0.4 0 0.633 0.05 0.7 0.15zm-7.05 16.15v-0.05l-0.05-0.05v-0.05c-0.2-0.167-0.3-0.5-0.3-1 0-0.634 0.067-1.084 0.2-1.351s0.3-0.483 0.5-0.649c0.066 0.033 0.117 0.116 0.15 0.25 0.033 0.133 0.183 0.184 0.45 0.149 0.2-0.1 0.517-0.216 0.95-0.35 0.333-0.134 0.5-0.233 0.5-0.3 0-0.099-0.033-0.148-0.1-0.15 0.101 1e-3 0.201 0.018 0.3 0.05v0.101l-0.7 0.45c-0.567 0.2-0.883 0.55-0.95 1.05v1.149c0 0.733-0.15 1.084-0.45 1.051-0.267 0-0.433-0.1-0.5-0.3zm6.05-11.65c0 0.033 0.1 0.083 0.3 0.15 0.133-0.1 0.2-0.184 0.2-0.25 0-0.167-0.066-0.217-0.2-0.15-0.2 0.033-0.3 0.117-0.3 0.25zm-5.85 11.4c0.033 0.101 0.133 0.15 0.3 0.15 0.067 0 0.117-0.017 0.15-0.05v-0.35l-0.15-0.1c-0.2 0-0.3 0.083-0.3 0.25v0.1z" fill="#CEB47C"/>
		<path d="m30.8 18.75c-0.1-0.167 0.55-0.35 1.95-0.55 1.467-0.167 2.417-0.5 2.85-1 0.5-0.5 0.784-0.784 0.851-0.85 0.066-0.2 0.149-0.283 0.25-0.25 0.467-0.1 0.7 0.083 0.7 0.55 0.066 0.3-0.167 0.567-0.7 0.8-0.3 0.066-0.917 0.267-1.851 0.6-0.133 0.067-0.333 0.2-0.6 0.4-0.2 0.167-0.366 0.283-0.5 0.35-1.5 0.333-2.35 0.483-2.55 0.45-0.3 0.067-0.45-0.067-0.45-0.4 0.033-0.033 0.05-0.067 0.05-0.1zm-16.85-6.95c0.233 0 0.45 0.067 0.65 0.2 0.133 0.133 0.2 0.233 0.2 0.3 0 0.1-0.066 0.2-0.2 0.3-0.2 0.133-0.4 0.2-0.6 0.2-0.233 0-0.4-0.066-0.5-0.2-0.067-0.1-0.1-0.2-0.1-0.3 0-0.333 0.183-0.5 0.55-0.5zm-3.4 12.5c0.067 2e-3 0.1 0.052 0.1 0.15 0 0.066-0.167 0.166-0.5 0.3-0.433 0.134-0.75 0.25-0.95 0.35-0.267 0.034-0.417-0.017-0.45-0.149-0.033-0.134-0.083-0.217-0.15-0.25 0.066-0.233 0.15-0.351 0.25-0.351 0.133 0 0.3-0.017 0.5-0.05 0.233-0.1 0.4-0.149 0.5-0.149 0.267-1e-3 0.5 0.049 0.7 0.149zm3.75-8.1c0-0.133 0.1-0.217 0.3-0.25 0.133-0.067 0.2-0.017 0.2 0.15 0 0.066-0.066 0.15-0.2 0.25-0.2-0.067-0.3-0.117-0.3-0.15zm-5.85 11.4v-0.1c0-0.167 0.1-0.25 0.3-0.25l0.15 0.1v0.35c-0.033 0.033-0.083 0.05-0.15 0.05-0.167 0-0.267-0.05-0.3-0.15z" fill="#F8E399"/>
		<path d="m37.7 17.9c0 0.067-0.017 0.15-0.05 0.25-0.067 0-0.617 0.4-1.65 1.2-0.066 0.167-0.134 0.6-0.2 1.3-0.2 0.699-0.55 1.05-1.05 1.05-0.533 0.033-0.75-0.233-0.65-0.8 0.067-0.534-0.133-0.767-0.6-0.7-0.5 0.1-0.884 0.25-1.15 0.45-0.234 0.2-0.45 0.45-0.65 0.75-0.2 0.166-0.517 0.133-0.95-0.101-0.366-0.366-0.583-0.816-0.65-1.35 0-0.267 0.117-0.517 0.351-0.75 0 0.167 0.066 0.333 0.2 0.5 0.199 0.167 0.366 0.333 0.5 0.5 0.267 0.233 0.55 0.2 0.85-0.101 0.233-0.366 0.4-0.533 0.5-0.5 0.066 0.066 0.134 0.1 0.2 0.1 0.5-0.1 0.783-0.2 0.85-0.3 0.033-0.1 0.167-0.133 0.4-0.1 0.166 0 0.316 0.15 0.45 0.45 0.033 0.3 0.133 0.483 0.3 0.55 0.267 0.101 0.467-0.066 0.6-0.5 0.134-0.4 0.233-0.85 0.3-1.35s0.117-0.6 0.15-0.3c0.066 0.267 0.283 0.367 0.65 0.3 0.665 2e-3 1.099-0.181 1.299-0.548zm-23.8-2.75c0.033 0.167 0.117 0.4 0.25 0.7 0.1 0.533 0.383 0.8 0.85 0.8 0.133 0 0.2-0.05 0.2-0.15 0-0.2-0.067-0.45-0.2-0.75-0.1-0.3-0.15-0.55-0.15-0.75 0-0.167-0.083-0.417-0.25-0.75-0.067-0.3-0.1-0.55-0.1-0.75 0-0.167 0.117-0.467 0.35-0.9 0.3-0.533 0.45-0.833 0.45-0.9 0.133 0.066 0.267 0.15 0.4 0.25 0.167 0.167 0.25 0.383 0.25 0.65 0 0.2-0.1 0.367-0.3 0.5-0.267 0.133-0.4 0.217-0.4 0.25 0 0.1 0.083 0.483 0.25 1.15 0.233 0.6 0.35 1.033 0.35 1.3 0 0.3-0.017 0.534-0.05 0.7-0.066 0.133-0.133 0.25-0.2 0.35-0.167 0.066-0.35 0.1-0.55 0.1s-0.367-0.034-0.5-0.1c-0.267-0.133-0.466-0.417-0.6-0.85-0.033-0.467-0.05-0.75-0.05-0.85zm-3.05 9.2c0.233 0.067 0.35 0.25 0.35 0.551 0 0.3-0.167 0.466-0.5 0.5-0.3 0-0.534 0.199-0.7 0.6-0.2 0.333-0.3 0.6-0.3 0.8 0 0.167 0.05 0.55 0.15 1.15 0.033 0.166 0.033 0.3 0 0.399-0.1 0.301-0.367 0.384-0.8 0.25-0.167-0.066-0.3-0.149-0.4-0.25-0.2-0.1-0.333-0.267-0.4-0.5 0.067 0.2 0.233 0.301 0.5 0.301 0.3 0.033 0.45-0.317 0.45-1.051v-1.149c0.066-0.5 0.383-0.851 0.95-1.05l0.7-0.45v-0.101z" fill="#AB9466"/>
	</g>
</svg>